<?xml version="1.0" encoding="utf-8"?>
<!-- Generator: Adobe Illustrator 24.1.0, SVG Export Plug-In . SVG Version: 6.00 Build 0)  -->
<svg version="1.1" id="Layer_1" xmlns="http://www.w3.org/2000/svg" xmlns:xlink="http://www.w3.org/1999/xlink" x="0px" y="0px"
	 viewBox="0 0 200 200" style="enable-background:new 0 0 200 200;" xml:space="preserve">
<style type="text/css">
	.st0{clip-path:url(#SVGID_2_);fill:#FFFFFF;}
</style>
<g>
	<g>
		<defs>
			<rect id="SVGID_1_" x="36.6" y="36.2" width="128.6" height="126.8"/>
		</defs>
		<clipPath id="SVGID_2_">
			<use xlink:href="#SVGID_1_"  style="overflow:visible;"/>
		</clipPath>
		<path class="st0" d="M101.1,151.4L101.1,151.4c9.2,0,18.4,0.3,27.6,0c15.4-0.6,24.5-9.4,24.7-24.8c0.3-18,0.3-36.1,0-54.2
			c0.9-12.7-8.7-23.7-21.4-24.6c-1-0.1-2.1-0.1-3.1,0c-18.6-0.4-37.3-0.4-55.9,0c-12.6-0.8-23.5,8.7-24.3,21.3
			c-0.1,0.9-0.1,1.8,0,2.7c-0.5,18.5-0.5,37,0,55.6c-0.6,12.6,9.2,23.3,21.9,23.9c0.7,0,1.5,0,2.2,0
			C82.3,151.7,91.7,151.4,101.1,151.4 M36.6,74.8c0.4-3,0.7-6,1.3-9c2-16.3,15.7-28.7,32.2-29.1c20.6-0.7,41.3-0.7,61.9,0
			c18.1,0.2,32.7,15,32.7,33.1c0.6,19.8,0.6,39.7,0,59.5c0,18.1-14.6,32.9-32.7,33.1c-20.6,0.7-41.3,0.8-61.9,0
			c-18.1-0.5-32.5-15.2-32.8-33.2c-0.1-1.6-0.5-3.2-0.7-4.8C36.6,107.9,36.6,91.3,36.6,74.8"/>
		<path class="st0" d="M122.5,99.5C122.6,87.7,113,78,101.2,78c-11.8-0.1-21.5,9.5-21.6,21.3s9.5,21.5,21.3,21.6h0.2
			C112.9,120.9,122.5,111.4,122.5,99.5L122.5,99.5z M101.1,132.2c-18-0.3-32.4-15.1-32.2-33.1C69.2,81.1,84,66.7,102,67
			c17.8,0.3,32.2,14.8,32.2,32.7C134.1,117.8,119.2,132.4,101.1,132.2L101.1,132.2z"/>
		<path class="st0" d="M143.1,65.5c0,4.2-3.4,7.6-7.6,7.6c-4.2,0-7.6-3.4-7.6-7.6c0-4.2,3.4-7.6,7.6-7.6
			C139.7,57.9,143.1,61.3,143.1,65.5"/>
	</g>
</g>
</svg>
