<?xml version="1.0" encoding="utf-8"?>
<!-- Generator: Adobe Illustrator 24.1.0, SVG Export Plug-In . SVG Version: 6.00 Build 0)  -->
<svg version="1.1" id="Layer_1" xmlns="http://www.w3.org/2000/svg" xmlns:xlink="http://www.w3.org/1999/xlink" x="0px" y="0px"
	 viewBox="0 0 200 200" style="enable-background:new 0 0 200 200;" xml:space="preserve">
<style type="text/css">
	.st0{clip-path:url(#SVGID_2_);fill:#CA3333;}
</style>
<g>
	<defs>
		
			<rect id="SVGID_1_" x="2" y="1.5" transform="matrix(1 -4.467651e-03 4.467651e-03 1 -0.4425 0.4467)" width="195.5" height="195.5"/>
	</defs>
	<clipPath id="SVGID_2_">
		<use xlink:href="#SVGID_1_"  style="overflow:visible;"/>
	</clipPath>
	<path class="st0" d="M181.6,42.1L17.4,42.8l0,1.7c0.2,44.2,0.4,88.4,0.6,132.5c0,3.6,1.1,4.7,4.7,4.7c51.6-0.2,103.2-0.5,154.9-0.7
		c3.6,0,4.7-1.1,4.7-4.7c-0.2-44.1-0.4-88.3-0.6-132.4L181.6,42.1z M2.4,180.9L1.7,18.5c0.1-0.4,0.3-0.8,0.4-1.2
		C3.4,11.4,6.6,6.9,12,4.1c1.9-1,4.1-1.5,6.1-2.2l162.4-0.7c0.3,0.1,0.7,0.2,1,0.3c6,1.4,10.7,4.6,13.5,10.2c0.9,1.9,1.4,4,2.1,6
		l0.7,162.4c-0.1,0.4-0.3,0.9-0.4,1.3c-1.4,5.8-4.6,10.4-10,13.1c-1.9,1-4.1,1.5-6.1,2.2L19,197.4c-0.4-0.1-0.8-0.3-1.2-0.4
		c-5.9-1.4-10.5-4.6-13.2-10C3.6,185.1,3.1,182.9,2.4,180.9"/>
	<path class="st0" d="M114.5,108.4c-12.3,0.1-24.5,0.1-36.8,0.2c-3.2,0-6-0.9-8.1-3.5c-3.9-4.9-1.1-12.8,5-14.1
		c0.9-0.2,1.9-0.3,2.8-0.3c24.6-0.1,49.3-0.2,73.9-0.3c5.3,0,9.1,3.1,9.7,8c0.6,4.5-2.7,9-7.3,9.7c-1.1,0.2-2.2,0.2-3.3,0.2
		C138.5,108.3,126.5,108.4,114.5,108.4"/>
	<path class="st0" d="M114.6,119.6c12.2-0.1,24.4-0.1,36.5-0.2c3.1,0,5.9,0.7,7.9,3.2c2.1,2.6,2.8,5.6,1.6,8.8
		c-1.2,3.2-3.5,5.2-6.9,5.8c-0.8,0.1-1.7,0.2-2.5,0.2c-24.5,0.1-48.9,0.2-73.4,0.3c-4.9,0-8.1-2.1-9.5-6c-1.9-5.4,1.8-11.3,7.5-11.7
		c2.3-0.2,4.7-0.1,7-0.2C93.5,119.7,104.1,119.7,114.6,119.6"/>
	<path class="st0" d="M114.8,150.4c12.3-0.1,24.7-0.1,37-0.2c5.3,0,9.1,3.3,9.5,8.3c0.4,4.4-3,8.8-7.4,9.4c-0.8,0.1-1.6,0.2-2.3,0.2
		c-24.6,0.1-49.2,0.2-73.9,0.3c-4.9,0-8.2-2.3-9.4-6.5c-1.5-5,1.8-10.3,6.9-11.2c0.9-0.2,1.9-0.2,2.8-0.2
		C90.4,150.5,102.6,150.5,114.8,150.4"/>
	<path class="st0" d="M114.3,61.4c12.4-0.1,24.8-0.1,37.2-0.2c5.1,0,8.8,3.1,9.4,7.9c0.6,4.8-2.9,9.3-7.7,9.8
		c-0.7,0.1-1.3,0.1-2,0.1c-24.6,0.1-49.1,0.2-73.7,0.3c-3.1,0-5.9-0.8-7.9-3.3c-2.2-2.8-2.6-5.9-1.3-9.1c1.3-3.2,3.8-5,7.2-5.4
		c2-0.2,4-0.1,5.9-0.1C92.5,61.5,103.4,61.4,114.3,61.4"/>
	<path class="st0" d="M47.5,168.6c-5-0.1-8.9-4.1-8.9-9c0.1-5,4.2-9,9.2-8.9c4.9,0.1,9,4.3,8.8,9.1
		C56.4,164.9,52.4,168.7,47.5,168.6"/>
	<path class="st0" d="M47.3,90.8c4.8,0,9,4.1,9,8.9c0,5-3.9,8.9-8.9,8.9c-4.9,0.1-9-4-9-8.8C38.3,95,42.4,90.8,47.3,90.8"/>
	<path class="st0" d="M47.6,137.8c-4.9,0.1-9-3.9-9.1-8.8c-0.1-4.9,3.9-8.9,8.9-9c4.9-0.1,9,3.9,9.1,8.8
		C56.5,133.7,52.5,137.8,47.6,137.8"/>
	<path class="st0" d="M47.2,79.5c-4.9,0-9-4-8.9-8.9c0-4.9,4.2-9,9.1-8.9c4.9,0,8.9,4.1,8.8,9C56.1,75.7,52.1,79.5,47.2,79.5"/>
</g>
</svg>
