<?xml version="1.0" encoding="utf-8"?>
<!-- Generator: Adobe Illustrator 24.1.0, SVG Export Plug-In . SVG Version: 6.00 Build 0)  -->
<svg version="1.1" id="Layer_1" xmlns="http://www.w3.org/2000/svg" xmlns:xlink="http://www.w3.org/1999/xlink" x="0px" y="0px"
	 viewBox="0 0 548 119" style="enable-background:new 0 0 548 119;" xml:space="preserve">
<style type="text/css">
	.st0{clip-path:url(#SVGID_2_);fill:#FFFFFF;}
</style>
<g>
	<defs>
		<rect id="SVGID_1_" x="5" y="9.2" width="538" height="102.9"/>
	</defs>
	<clipPath id="SVGID_2_">
		<use xlink:href="#SVGID_1_"  style="overflow:visible;"/>
	</clipPath>
	<path class="st0" d="M292.1,33.3h-9.6v24.9c-1.3-2.6-4.9-5.9-12.1-5.9c-11.6,0-19.7,9.7-19.7,21.6c0,12.5,8,21.8,19.8,21.8
		c5.8,0,10.2-2.9,12.1-6.4c0,1.7,0.3,4.4,0.4,5.3h9.4c-0.1-0.7-0.4-3.8-0.4-7.5V33.3z M260.6,73.9c0-7.9,4.7-12.9,11.2-12.9
		c6.4,0,10.8,4.9,10.8,12.8s-4.5,13.2-10.9,13.2C265,87.1,260.6,81.8,260.6,73.9 M235.7,80.3c-1.4,4.1-4.4,7.2-10.3,7.2
		c-6.1,0-11-4.5-11.3-10.8h30.2c0.1-0.2,0.3-1.5,0.3-3.1c0-13.1-7.5-21.4-20.2-21.4c-10.4,0-20.1,8.6-20.1,21.7
		c0,14,9.9,22.1,21.1,22.1c9.9,0,16.4-5.8,18.6-13.1L235.7,80.3z M214.4,69.5c0.3-4.4,3.9-9.2,10.1-9.2c6.8,0,10,4.3,10.2,9.2H214.4
		z M131,38.9c0,3.6,2.9,6.4,6.4,6.4c3.6,0,6.4-2.8,6.4-6.4c0-3.6-2.9-6.4-6.4-6.4C133.9,32.5,131,35.3,131,38.9 M142.3,53.4h-9.7
		v41.3h9.7V53.4z M125.5,53.1c-0.4-0.1-1.4-0.3-2.6-0.3c-5.4,0-10,2.6-12,7.1v-6.6h-9.6v41.3h9.8V75c0-7.7,3.5-12.1,11.1-12.1
		c1,0,2.1,0.1,3.2,0.3V53.1z M84.3,80.3c-1.4,4.1-4.4,7.2-10.3,7.2c-6.1,0-11-4.5-11.3-10.8h30.2c0.1-0.2,0.3-1.5,0.3-3.1
		c0-13.1-7.5-21.4-20.2-21.4c-10.4,0-20.1,8.6-20.1,21.7c0,14,9.9,22.1,21.1,22.1c9.9,0,16.4-5.8,18.7-13.1L84.3,80.3z M62.9,69.5
		c0.3-4.4,3.9-9.2,10.1-9.2c6.8,0,10,4.3,10.2,9.2H62.9z M28.6,81.4L16,40.9H5l18.1,53.7h10.3L67.9,9.2H57.1L28.6,81.4z"/>
	<path class="st0" d="M522.9,84.4c-6.4,0-10.8-4.5-10.8-11.7c0-7,4.5-11.6,10.8-11.6c6.1,0,10.6,4.6,10.6,11.6
		C533.5,79.9,529.2,84.4,522.9,84.4 M502.1,97c1.1,8.3,8.7,15.1,19.7,15.1c15.5,0,21.2-10.3,21.2-21.3V53.4h-9.5v5.3
		c-1.8-3.4-5.8-6-12.2-6c-11.4,0-19.1,9.1-19.1,20.1c0,11.6,8.1,20.1,19.1,20.1c6,0,10.2-2.8,12-6v4.3c0,8.4-3.9,12.4-11.7,12.4
		c-5.7,0-9.7-3.8-10.3-8.9L502.1,97z M466.3,70.9c0-5.4,3-9.7,8.6-9.7c6.2,0,8.5,4.1,8.5,9.2v24.4h9.8V68.6
		c0-9.1-4.8-16.4-14.9-16.4c-4.6,0-9.5,1.9-12.2,6.7v-5.5h-9.6v41.3h9.8V70.9z M432.5,38.9c0,3.6,2.9,6.4,6.4,6.4
		c3.6,0,6.4-2.8,6.4-6.4c0-3.6-2.9-6.4-6.4-6.4C435.3,32.5,432.5,35.3,432.5,38.9 M443.7,53.4H434v41.3h9.7V53.4z M416.2,40.8h-8.9
		V47c0,3.6-2,6.4-6.4,6.4h-2.1v8.7h7.6v20.8c0,7.7,4.7,12.3,12.4,12.3c3.6,0,5.4-0.7,6-0.9v-8.1c-0.4,0.1-2,0.3-3.4,0.3
		c-3.6,0-5.3-1.5-5.3-5.2V62.1h8.6v-8.7h-8.6V40.8z M374.2,52.1c-12.3,0-21.4,9.2-21.4,21.9c0,12.7,9.1,22,21.4,22
		c12.4,0,21.4-9.2,21.4-22C395.6,61.4,386.6,52.1,374.2,52.1 M374.2,87.1c-6,0-11.5-4.6-11.5-13.1s5.5-13,11.5-13
		c6.1,0,11.5,4.4,11.5,13C385.7,82.6,380.3,87.1,374.2,87.1 M328.6,81.4L316,40.9h-11l18.1,53.7h10.3l34.4-85.5h-10.8L328.6,81.4z"
		/>
	<path class="st0" d="M183.5,38.9c0,3.6,2.9,6.4,6.4,6.4c3.6,0,6.4-2.8,6.4-6.4c0-3.6-2.9-6.4-6.4-6.4
		C186.4,32.4,183.5,35.3,183.5,38.9 M194.8,53.4H185v41.3h9.8V53.4z M173.4,41.7c1.9,0,3,0.3,3.6,0.4v-8.4c-0.7-0.3-2.7-0.8-5.2-0.8
		c-8.5,0-14.4,5.6-14.4,14.8v5.7h-7.2v8.6h7.2v32.7h9.9V61.9h9.6v-8.6h-9.6v-5.4C167.3,42.8,170.8,41.7,173.4,41.7"/>
</g>
</svg>
