<?xml version="1.0" encoding="utf-8"?>
<!-- Generator: Adobe Illustrator 24.1.0, SVG Export Plug-In . SVG Version: 6.00 Build 0)  -->
<svg version="1.1" id="Layer_1" xmlns="http://www.w3.org/2000/svg" xmlns:xlink="http://www.w3.org/1999/xlink" x="0px" y="0px"
	 viewBox="0 0 200 200" style="enable-background:new 0 0 200 200;" xml:space="preserve">
<style type="text/css">
	.st0{clip-path:url(#SVGID_2_);fill:#FFFFFF;}
</style>
<g>
	<defs>
		<rect id="SVGID_1_" x="25.6" y="36" width="149.4" height="126.9"/>
	</defs>
	<clipPath id="SVGID_2_">
		<use xlink:href="#SVGID_1_"  style="overflow:visible;"/>
	</clipPath>
	<path class="st0" d="M49.6,83.5c0.4-5,4.8-8.7,9.8-8.4h81.8c5-0.3,9.3,3.4,9.8,8.4v10.8l19.6-14.6c0,0-58.3-38.8-61.1-40.2
		c-2.7-1.9-5.8-3.1-9.1-3.5c-3.3,0.4-6.4,1.6-9.1,3.5c-2.8,1.4-61.1,40.1-61.1,40.1l19.6,14.6L49.6,83.5L49.6,83.5z M115.7,85.7
		H84.9c-1.2-0.1-2.2,0.9-2.3,2.1c-0.1,1.2,0.9,2.2,2.1,2.3c0.1,0,0.2,0,0.2,0h30.8c1.2,0,2.2-1,2.2-2.2
		C117.9,86.7,116.9,85.7,115.7,85.7L115.7,85.7z M174.5,84.5c-12,9.2-55.7,42.6-59.8,46.3c-3.8,3.9-8.9,6.4-14.3,7.1
		c-5.4-0.7-10.5-3.2-14.3-7.1c-4.1-3.7-47.9-37.2-59.8-46.3c-0.4,1.2-0.5,2.4-0.5,3.6v61.4c0,2.4,0.7,4.8,1.9,6.9l35.1-34.2
		c0.8-0.7,2-0.7,2.7,0.1c0.7,0.8,0.7,2-0.1,2.7l-35.3,34.4c2.4,2.2,5.6,3.4,8.9,3.4h122.8c3.3,0,6.4-1.2,8.9-3.4l-35.3-34.4
		c-0.8-0.7-0.8-2-0.1-2.7c0.7-0.8,2-0.8,2.7-0.1l35.1,34.2c1.3-2.1,2-4.5,1.9-6.9V88.2C175,86.9,174.8,85.7,174.5,84.5 M115.7,96.5
		H84.9c-1.2-0.1-2.2,0.9-2.3,2.1s0.9,2.2,2.1,2.3c0.1,0,0.2,0,0.2,0h30.8c1.2,0,2.2-1,2.2-2.2C117.9,97.5,116.9,96.6,115.7,96.5
		L115.7,96.5z M115.7,107.1H84.9c-1.2-0.1-2.2,0.9-2.3,2.1s0.9,2.2,2.1,2.3c0.1,0,0.2,0,0.2,0h30.8c1.2,0.1,2.2-0.9,2.3-2.1
		c0.1-1.2-0.9-2.2-2.1-2.3C115.9,107.1,115.8,107.1,115.7,107.1"/>
</g>
</svg>
