<?xml version="1.0" encoding="utf-8"?>
<!-- Generator: Adobe Illustrator 24.1.0, SVG Export Plug-In . SVG Version: 6.00 Build 0)  -->
<svg version="1.1" id="Layer_1" xmlns="http://www.w3.org/2000/svg" xmlns:xlink="http://www.w3.org/1999/xlink" x="0px" y="0px"
	 viewBox="0 0 200 200" style="enable-background:new 0 0 200 200;" xml:space="preserve">
<style type="text/css">
	.st0{fill:#FFFFFF;}
</style>
<path class="st0" d="M25.6,116.6c17.3,13.6,41.9,12.7,58.3-1.8c-6.7-1.8-16.7-3.2-7.2-13c0,0-14.2-2.7-17.7-10
	c2.6-2.7,6.2-4,9.9-3.7c-3.4-2.2-16.6-6.3-16-15.7c8.1-0.2,8.8-0.2,8.8-0.2s-13.9-9.8-12.3-20.3c12.1,4,36.7,12.6,51.2,27.6
	c1.6-5.8,8.6-28.1,23.2-37.7l0.2,3.6c0,0,6.7-6.8,10.7-4.7l-1.6,3.1c2.6-1,5.5-1.3,8.2-0.9c-3.1,2.3-10.6,3.6-12.6,8.2
	c3.2,0,27.3-1.6,32.4,29.1c8.6,0.9,13.2,1.7,18.2-0.9c-2.3,3.2-4,6.2-16.4,7.9c5.4,2,11.2,2.7,17.1,2.2c-4.1,5.2-10.8,7.5-17.2,5.8
	c-5.2,14.7-18.9,47.5-74.7,50.7C79.2,145.5,45.5,145,25.6,116.6"/>
</svg>
