<?xml version="1.0" encoding="utf-8"?>
<!-- Generator: Adobe Illustrator 24.1.0, SVG Export Plug-In . SVG Version: 6.00 Build 0)  -->
<svg version="1.1" id="Layer_1" xmlns="http://www.w3.org/2000/svg" xmlns:xlink="http://www.w3.org/1999/xlink" x="0px" y="0px"
	 viewBox="0 0 200 200" style="enable-background:new 0 0 200 200;" xml:space="preserve">
<style type="text/css">
	.st0{clip-path:url(#SVGID_2_);fill:#CA3333;}
</style>
<g>
	<defs>
		<rect id="SVGID_1_" x="2.8" y="28.1" width="193.2" height="142.6"/>
	</defs>
	<clipPath id="SVGID_2_">
		<use xlink:href="#SVGID_1_"  style="overflow:visible;"/>
	</clipPath>
	<path class="st0" d="M31.4,95.7c11.7,0,21.3-9.5,21.3-21.3s-9.5-21.3-21.3-21.3s-21.3,9.5-21.3,21.3S19.7,95.7,31.4,95.7
		 M167.4,100.1c-15.6,0-28.3,12.5-28.6,28.1c-6.5-16.2-22.4-27.7-40.9-27.7c-16.5,0-30.9,9.1-38.5,22.6c-2.6-13.1-14.2-23-28-23
		c-15.8,0-28.6,12.8-28.6,28.6v16.9h51v25.1h88.3v-25.1H196v-16.9C196,112.9,183.2,100.1,167.4,100.1 M167.4,95.7
		c11.7,0,21.3-9.5,21.3-21.3s-9.5-21.3-21.3-21.3c-11.7,0-21.3,9.5-21.3,21.3S155.7,95.7,167.4,95.7 M97.9,93.7
		c18.1,0,32.8-14.7,32.8-32.8c0-18.1-14.7-32.8-32.8-32.8S65.1,42.8,65.1,60.9C65.1,79,79.8,93.7,97.9,93.7"/>
</g>
</svg>
