<?xml version="1.0" encoding="UTF-8"?> <!-- Generator: Adobe Illustrator 24.1.2, SVG Export Plug-In . SVG Version: 6.00 Build 0) --> <svg xmlns="http://www.w3.org/2000/svg" xmlns:xlink="http://www.w3.org/1999/xlink" version="1.1" id="Layer_1" x="0px" y="0px" viewBox="0 0 625.4 343.9" style="enable-background:new 0 0 625.4 343.9;" xml:space="preserve"> <style type="text/css"> .st0{clip-path:url(#SVGID_2_);fill:#FFFFFF;} .st1{clip-path:url(#SVGID_4_);fill:none;stroke:#666666;stroke-width:1.9716;stroke-miterlimit:10;} .st2{clip-path:url(#SVGID_6_);fill:#036EA6;} .st3{clip-path:url(#SVGID_8_);fill:#036EA6;} .st4{fill:#666666;} </style> <g> <defs> <rect id="SVGID_1_" x="-61.3" y="16.7" width="607.8" height="313.5"></rect> </defs> <clipPath id="SVGID_2_"> <use xlink:href="#SVGID_1_" style="overflow:visible;"></use> </clipPath> <path class="st0" d="M523.9,59.2v1c-4.4,3.4-8.8,6.8-13.9,10.8c0.8,2.4-1.1,4.6-4.3,6.7c-1.8,1.2-3.2,4-3.6,6.3 c-0.9,5-1,10.1-1.4,15.6c4.6-0.7,4.7,8.2,10.9,4.7c-3.7,1.5-7.4,3-10.3,4.2c-2.1,1.9-3.5,4-5.4,4.8c-7.5,3-13.8,7.3-17.4,14.8 c5.4,3.8,5.3,8.2-0.3,19.1c-2.2-0.9-4.4-1.8-6.6-2.6c0.8,2.5,2.4,4.1,3.4,6c1.1,2,2.7,4.5,2.3,6.4c-0.8,4.6-2.7,9.1-4.1,13.6 c-0.3-5.1,0.9-10.5-6-12.3c-0.3-0.1-0.5-0.8-0.6-1.3c-0.5-4-1-8-1.4-11.6c-3.6,3.9-3.6,3.9,0.3,15c-1.4,0.2-2.7,0.5-4.1,0.7 c8.5,1.1,5.6,8.4,8,13.1c-1.2-0.2-1.9-0.3-2.5-0.4c4.9,1.2,8.8,3.1,8.8,9.2c-1.2,0.9-2.6,2.1-3.5,2.8c2.2,0.9,6,1.6,6,2.4 c0,4.5-3.2,5.9-6.6,5.4v5.6c0.9-0.1,2-0.2,3-0.4c-6.3,3.9-11.7,8.1-13.2,15.9c-5.6,0-7.9,3.9-10.3,8.1c-2.3,4.1-4.7,8.5-8.2,11.3 c-5.8,4.7-12.7,20-9,28.2c2.3,5.1,5.1,10,7.6,15c1.2,2.4,2.4,4.8,3.6,7.3c1.1,2.4,1.7,5.3,3.3,7.2c7,8.3,8.2,17.6,5.4,27.6 c-0.4,1.6-2.7,2.8-4.4,3.8c-0.7,0.4-2.5,0.4-3-0.1c-3.7-4.2-7.3-8.5-10.8-12.8c-1.2-1.5-1.8-4.3-3.1-4.6c-6.8-1.7-7-5.9-4-12.7 c-2.5,1.5-3.5,2.1-5.3,3.2c0.3-2.9,0.9-5.5,0.6-7.9c-0.3-2.7-0.7-6-2.4-7.9c-2.6-3-6.2-5.3-9.6-7.6c-2.8-1.9-5.5-3.6-8.8,0 c-1.9,2.1-5.1,3-7.5,4.3c-8.3-10.7-17.9-8.1-27.5-4.1c-1-1.7-1.7-3-2.7-4.7c-1,4.6-4.3,4.1-7.3,4.4c-2.2,0.2-4.3,0.9-6.4,1.3 c-2,0.3-4.2,1.2-5.9,0.6c-2.8-1.1-4.1-0.4-5.3,2.8c3.8,0.3,7.3,0.7,11.1,1c-0.8,1.4-1.6,2.8-2.5,4.6c2.3,1.5,4.4,2.9,6.5,4.3 c-0.2,0.5-0.5,1-0.7,1.5c-3.2-1.6-6.4-3.2-9.8-4.8c-0.3,1.8-0.5,3-0.5,3.2c-2.3,0.4-4,1.1-5.7,0.9c-2.1-0.2-4.3-0.7-6.1-1.6 c-2.4-1.2-4.5-3.3-6.9-4.5c-2.1-1-2.3-0.6-2.1,2c0,0.1,0.3,0.1,0.4,0.2c0,0.1-0.1,0.2-0.3,0.6c-8.5-0.4-17.3-4.6-25.7,0.7 c-5-3.5-4.5,0.5-6.1,3.6c-3.1,5.9-8.9,8.1-14.5,7.5c-1.2,1.6-1.7,3-2.6,3.3c-6.3,2.1-7.9,8-9.4,13c-1,3.6,1.2,8.2,1.9,12.3 c0.2,1.2,0.1,2.5,0.2,3.5c-3-0.6-5.3-1.2-7.6-1.6c-7.8-1.1-14.4-7.8-15.5-15.7c-0.2-1.3-1-2.6-1.7-3.7c-2.7-4.3-6.3-8.2-8.2-12.8 c-1.9-4.7-4.6-8.3-8.2-11.6c-5.5-5.1-13.1-4.2-17.3,1.8c-1.1,1.5-3.2,3.4-4.7,3.3c-5.8-0.4-12.9-8.2-14.1-14.1 c-0.5-2.4-1.6-4.9-3.1-6.9c-2.3-3-5.2-5.7-7.9-8.5c-2.1-2.2-4-5.5-6.6-6.3c-5.2-1.5-10.8-1.6-16.1-2.3c-0.7,2-1.3,3.4-1.8,4.9 c-6.8-1-13.4-1.9-19.9-3c-3.5-0.6-7.2-1-10.2-2.7c-10.4-5.9-21.5-11.1-30.4-18.8c-6.3-5.5-13-4.5-19.5-6.4 c-0.9-0.3-1.9-0.3-2.9-0.4c-2.8-0.3-4.1-1.9-3.8-4.5c0.7-6.1-3.2-9.8-7-13.5c-2.7-2.6-5.4-5.1-8.2-7.6c-1.7-1.5-3.3-3.4-5.3-4.4 c-4.1-1.9-8.3-3.3-5.5-9.3c0.2-0.5-0.3-1.5-0.6-2.2c-1.8-4.8-4-9.5-5.2-14.4c-0.7-2.8,1.7-7,0.3-8.9c-2.2-3.1-4-5.7-3-9.5 c0.1-0.5,0.4-1,0.6-1.4c0.8,1,1.4,1.8,2.3,2.9v-8.6c-1.2,1.3-1.9,2.1-3.4,3.9c-0.8-3.2-0.9-5.6-1.9-7.6c-2.9-6.1-3.6-12.1-1.7-18.6 c0.5-1.8-1.5-4.2-2.3-6.4v-2.9c6-5.5,7.5-12.6,7.8-20.4c0.1-3.7,1.4-7.5,3-10.9c4.8-10.1,10-20.1,15.1-30.1 c0.8-1.5,2.2-2.6,3.5-4.1c-0.2-0.2-1.2-0.8-2.1-1.4c0.4,0,0.9-0.1,1.3-0.1c0.8-8.1,1.5-16.1,2.3-24c5,3,9.3,5.6,14,8.4 c-1.2,1.3-2.3,2.5-2.6,2.8c0.6,1.9,1,3.1,1.4,4.3c-1.9,0.8-3.4,1.4-4.8,1.9c0.2,0.5,0.4,1,0.5,1.5c1.4-0.5,3.5-0.5,4.2-1.4 c4-5.9,5.6-12.4,4.4-19.8c13.1,4.1,25.7,8.4,38.6,12.1c54.5,15.4,110.2,22.6,166.8,23.2c3.6,0,7.8,1.4,9.1-5.6 c1.4,3.9,1.7,6.9,3.3,8.3c1.7,1.5,5,2.6,7.1,2.1c4.1-1.1,6.8,0.7,10,2.3c2.9,1.5,6.4,2.3,9.7,2.5c3.9,0.3,7.9-0.2,12-0.4 c-6.4,5.7-12.1,10.8-17.8,15.9c0.4,0.5,0.7,1.1,1.1,1.6c3-1.1,6.1-2.2,9.2-3.4c0,3.9,2,5,5.4,3c4.5-2.7,8.7-5.9,13-8.8 c1.5-1,3-1.9,5.4-3.4c-2,3.1-3.2,5.1-4,6.3c3.2,1.6,5.7,3.3,8.5,4.2c2.3,0.7,5.1,1.3,7.3,0.7c4.1-1.2,7.8-3.3,10.6-4.5 c2.2,1.4,3.3,2.7,4.5,2.9c3.9,0.8,3.9,0.6,6,4.5c-5.1,0.9-10.3,1.7-15.3,2.8c-6.2,1.4-11,4.6-12.7,11.3c-0.6,2.3-2,4.4-3.1,6.7 c0.3,0.1,0.6,0.3,0.9,0.4c1.5-1.3,3-2.7,5.3-4.7c-0.9,4.3-1.5,7.5-2.1,10.6c-1.5,8.4-0.9,16.6,2.2,24.5c0.7,1.7,2.9,4.3,3.9,4.1 c2.1-0.4,4.4-2.1,5.5-4c3-5.2,4.4-10.6,0.9-16.4c-3.6-5.8-1.7-12,0.1-18c0.4-1.5,2.6-2.6,4-3.8c1.6-1.4,3.8-3.6,3.6-5.5 c-0.5-5.9,3.3-3.6,5.5-3c9,2.4,13,10.4,8.8,17.1c-1.2,1.9-3.5,3.4-0.8,5.5c0.3,0.2,2.7-1.8,3.8-3.1c2.5-3.1,4.4-3,5.9,0.6 c1.1,2.7,2.2,5.4,2.9,8.2c0.3,1.4,0.2,3.2-0.4,4.5c-1.8,4-3.9,7.9-6,11.9c6.2,3.3,11.5,3.6,16.4,0.3c4.7-3.1,9.1-6.6,13.3-10.3 c4.2-3.8,10.8-7,5.4-15.5c4.4-0.7,7.9-1.6,11.5-1.8c7-0.3,12.1-4,11.6-9c-0.8-8.8,4.3-15.2,12.9-18.3c8.2-2.9,18.5-1.6,23.8-10.7 c1.9-3.2,3.4-7,3.9-10.6c0.9-6.2,0.9-12.6,1.3-18.9c0.5,0.3,1.1,0.7,1.6,1c1.8-0.4,3.8-0.4,5.3-1.3c3.4-2.1,5.6-0.7,7,2.2 c1.5,3,2.5,6.3,3.8,9.4c0.7,1.6,1.5,3.3,2.7,4.4C517.6,54.6,520.8,56.9,523.9,59.2"></path> </g> <g> <defs> <rect id="SVGID_3_" x="-61.3" y="16.7" width="607.8" height="313.5"></rect> </defs> <clipPath id="SVGID_4_"> <use xlink:href="#SVGID_3_" style="overflow:visible;"></use> </clipPath> <path class="st1" d="M523.9,59.2v1c-4.4,3.4-8.8,6.8-13.9,10.8c0.8,2.4-1.1,4.6-4.3,6.7c-1.8,1.2-3.2,4-3.6,6.3 c-0.9,5-1,10.1-1.4,15.6c4.6-0.7,4.7,8.2,10.9,4.7c-3.7,1.5-7.4,3-10.3,4.2c-2.1,1.9-3.5,4-5.4,4.8c-7.5,3-13.8,7.3-17.4,14.8 c5.4,3.8,5.3,8.2-0.3,19.1c-2.2-0.9-4.4-1.8-6.6-2.6c0.8,2.5,2.4,4.1,3.4,6c1.1,2,2.7,4.5,2.3,6.4c-0.8,4.6-2.7,9.1-4.1,13.6 c-0.3-5.1,0.9-10.5-6-12.3c-0.3-0.1-0.5-0.8-0.6-1.3c-0.5-4-1-8-1.4-11.6c-3.6,3.9-3.6,3.9,0.3,15c-1.4,0.2-2.7,0.5-4.1,0.7 c8.5,1.1,5.6,8.4,8,13.1c-1.2-0.2-1.9-0.3-2.5-0.4c4.9,1.2,8.8,3.1,8.8,9.2c-1.2,0.9-2.6,2.1-3.5,2.8c2.2,0.9,6,1.6,6,2.4 c0,4.5-3.2,5.9-6.6,5.4v5.6c0.9-0.1,2-0.2,3-0.4c-6.3,3.9-11.7,8.1-13.2,15.9c-5.6,0-7.9,3.9-10.3,8.1c-2.3,4.1-4.7,8.5-8.2,11.3 c-5.8,4.7-12.7,20-9,28.2c2.3,5.1,5.1,10,7.6,15c1.2,2.4,2.4,4.8,3.6,7.3c1.1,2.4,1.7,5.3,3.3,7.2c7,8.3,8.2,17.6,5.4,27.6 c-0.4,1.6-2.7,2.8-4.4,3.8c-0.7,0.4-2.5,0.4-3-0.1c-3.7-4.2-7.3-8.5-10.8-12.8c-1.2-1.5-1.8-4.3-3.1-4.6c-6.8-1.7-7-5.9-4-12.7 c-2.5,1.5-3.5,2.1-5.3,3.2c0.3-2.9,0.9-5.5,0.6-7.9c-0.3-2.7-0.7-6-2.4-7.9c-2.6-3-6.2-5.3-9.6-7.6c-2.8-1.9-5.5-3.6-8.8,0 c-1.9,2.1-5.1,3-7.5,4.3c-8.3-10.7-17.9-8.1-27.5-4.1c-1-1.7-1.7-3-2.7-4.7c-1,4.6-4.3,4.1-7.3,4.4c-2.2,0.2-4.3,0.9-6.4,1.3 c-2,0.3-4.2,1.2-5.9,0.6c-2.8-1.1-4.1-0.4-5.3,2.8c3.8,0.3,7.3,0.7,11.1,1c-0.8,1.4-1.6,2.8-2.5,4.6c2.3,1.5,4.4,2.9,6.5,4.3 c-0.2,0.5-0.5,1-0.7,1.5c-3.2-1.6-6.4-3.2-9.8-4.8c-0.3,1.8-0.5,3-0.5,3.2c-2.3,0.4-4,1.1-5.7,0.9c-2.1-0.2-4.3-0.7-6.1-1.6 c-2.4-1.2-4.5-3.3-6.9-4.5c-2.1-1-2.3-0.6-2.1,2c0,0.1,0.3,0.1,0.4,0.2c0,0.1-0.1,0.2-0.3,0.6c-8.5-0.4-17.3-4.6-25.7,0.7 c-5-3.5-4.5,0.5-6.1,3.6c-3.1,5.9-8.9,8.1-14.5,7.5c-1.2,1.6-1.7,3-2.6,3.3c-6.3,2.1-7.9,8-9.4,13c-1,3.6,1.2,8.2,1.9,12.3 c0.2,1.2,0.1,2.5,0.2,3.5c-3-0.6-5.3-1.2-7.6-1.6c-7.8-1.1-14.4-7.8-15.5-15.7c-0.2-1.3-1-2.6-1.7-3.7c-2.7-4.3-6.3-8.2-8.2-12.8 c-1.9-4.7-4.6-8.3-8.2-11.6c-5.5-5.1-13.1-4.2-17.3,1.8c-1.1,1.5-3.2,3.4-4.7,3.3c-5.8-0.4-12.9-8.2-14.1-14.1 c-0.5-2.4-1.6-4.9-3.1-6.9c-2.3-3-5.2-5.7-7.9-8.5c-2.1-2.2-4-5.5-6.6-6.3c-5.2-1.5-10.8-1.6-16.1-2.3c-0.7,2-1.3,3.4-1.8,4.9 c-6.8-1-13.4-1.9-19.9-3c-3.5-0.6-7.2-1-10.2-2.7c-10.4-5.9-21.5-11.1-30.4-18.8c-6.3-5.5-13-4.5-19.5-6.4 c-0.9-0.3-1.9-0.3-2.9-0.4c-2.8-0.3-4.1-1.9-3.8-4.5c0.7-6.1-3.2-9.8-7-13.5c-2.7-2.6-5.4-5.1-8.2-7.6c-1.7-1.5-3.3-3.4-5.3-4.4 c-4.1-1.9-8.3-3.3-5.5-9.3c0.2-0.5-0.3-1.5-0.6-2.2c-1.8-4.8-4-9.5-5.2-14.4c-0.7-2.8,1.7-7,0.3-8.9c-2.2-3.1-4-5.7-3-9.5 c0.1-0.5,0.4-1,0.6-1.4c0.8,1,1.4,1.8,2.3,2.9v-8.6c-1.2,1.3-1.9,2.1-3.4,3.9c-0.8-3.2-0.9-5.6-1.9-7.6c-2.9-6.1-3.6-12.1-1.7-18.6 c0.5-1.8-1.5-4.2-2.3-6.4v-2.9c6-5.5,7.5-12.6,7.8-20.4c0.1-3.7,1.4-7.5,3-10.9c4.8-10.1,10-20.1,15.1-30.1 c0.8-1.5,2.2-2.6,3.5-4.1c-0.2-0.2-1.2-0.8-2.1-1.4c0.4,0,0.9-0.1,1.3-0.1c0.8-8.1,1.5-16.1,2.3-24c5,3,9.3,5.6,14,8.4 c-1.2,1.3-2.3,2.5-2.6,2.8c0.6,1.9,1,3.1,1.4,4.3c-1.9,0.8-3.4,1.4-4.8,1.9c0.2,0.5,0.4,1,0.5,1.5c1.4-0.5,3.5-0.5,4.2-1.4 c4-5.9,5.6-12.4,4.4-19.8c13.1,4.1,25.7,8.4,38.6,12.1c54.5,15.4,110.2,22.6,166.8,23.2c3.6,0,7.8,1.4,9.1-5.6 c1.4,3.9,1.7,6.9,3.3,8.3c1.7,1.5,5,2.6,7.1,2.1c4.1-1.1,6.8,0.7,10,2.3c2.9,1.5,6.4,2.3,9.7,2.5c3.9,0.3,7.9-0.2,12-0.4 c-6.4,5.7-12.1,10.8-17.8,15.9c0.4,0.5,0.7,1.1,1.1,1.6c3-1.1,6.1-2.2,9.2-3.4c0,3.9,2,5,5.4,3c4.5-2.7,8.7-5.9,13-8.8 c1.5-1,3-1.9,5.4-3.4c-2,3.1-3.2,5.1-4,6.3c3.2,1.6,5.7,3.3,8.5,4.2c2.3,0.7,5.1,1.3,7.3,0.7c4.1-1.2,7.8-3.3,10.6-4.5 c2.2,1.4,3.3,2.7,4.5,2.9c3.9,0.8,3.9,0.6,6,4.5c-5.1,0.9-10.3,1.7-15.3,2.8c-6.2,1.4-11,4.6-12.7,11.3c-0.6,2.3-2,4.4-3.1,6.7 c0.3,0.1,0.6,0.3,0.9,0.4c1.5-1.3,3-2.7,5.3-4.7c-0.9,4.3-1.5,7.5-2.1,10.6c-1.5,8.4-0.9,16.6,2.2,24.5c0.7,1.7,2.9,4.3,3.9,4.1 c2.1-0.4,4.4-2.1,5.5-4c3-5.2,4.4-10.6,0.9-16.4c-3.6-5.8-1.7-12,0.1-18c0.4-1.5,2.6-2.6,4-3.8c1.6-1.4,3.8-3.6,3.6-5.5 c-0.5-5.9,3.3-3.6,5.5-3c9,2.4,13,10.4,8.8,17.1c-1.2,1.9-3.5,3.4-0.8,5.5c0.3,0.2,2.7-1.8,3.8-3.1c2.5-3.1,4.4-3,5.9,0.6 c1.1,2.7,2.2,5.4,2.9,8.2c0.3,1.4,0.2,3.2-0.4,4.5c-1.8,4-3.9,7.9-6,11.9c6.2,3.3,11.5,3.6,16.4,0.3c4.7-3.1,9.1-6.6,13.3-10.3 c4.2-3.8,10.8-7,5.4-15.5c4.4-0.7,7.9-1.6,11.5-1.8c7-0.3,12.1-4,11.6-9c-0.8-8.8,4.3-15.2,12.9-18.3c8.2-2.9,18.5-1.6,23.8-10.7 c1.9-3.2,3.4-7,3.9-10.6c0.9-6.2,0.9-12.6,1.3-18.9c0.5,0.3,1.1,0.7,1.6,1c1.8-0.4,3.8-0.4,5.3-1.3c3.4-2.1,5.6-0.7,7,2.2 c1.5,3,2.5,6.3,3.8,9.4c0.7,1.6,1.5,3.3,2.7,4.4C517.6,54.6,520.8,56.9,523.9,59.2z"></path> </g> <g> <defs> <rect id="SVGID_5_" x="-61.3" y="16.7" width="607.8" height="313.5"></rect> </defs> <clipPath id="SVGID_6_"> <use xlink:href="#SVGID_5_" style="overflow:visible;"></use> </clipPath> <path class="st2" d="M54.9,203.4l-24.8-79.8H8.4l35.8,106h20.4l67.8-168.8h-21.2L54.9,203.4z M122.6,180 c0.7-8.7,7.7-18.1,19.9-18.1c13.4,0,19.7,8.5,20.1,18.1H122.6z M164.8,201.2c-2.7,8-8.7,14.2-20.4,14.2c-12,0-21.7-8.9-22.2-21.2 h59.5c0.2-0.3,0.5-3,0.5-6.2c0-25.8-14.7-42.3-39.8-42.3c-20.6,0-39.6,17.1-39.6,42.8c0,27.6,19.6,43.7,41.6,43.7 c19.6,0,32.4-11.5,36.8-25.8L164.8,201.2z M246.1,147.7c-0.8-0.2-2.8-0.5-5.2-0.5c-10.7,0-19.7,5.2-23.6,14v-13h-18.9v81.4h19.4 v-38.8c0-15.2,6.9-23.9,21.9-23.9c2,0,4.2,0.2,6.4,0.5V147.7z M279.3,148.2h-19.2v81.4h19.2V148.2z M257.1,119.6 c0,7,5.7,12.5,12.5,12.5c7,0,12.7-5.5,12.7-12.5c0-7-5.7-12.7-12.7-12.7C262.7,106.9,257.1,112.6,257.1,119.6 M421.5,180 c0.7-8.7,7.7-18.1,19.9-18.1c13.4,0,19.7,8.5,20.1,18.1H421.5z M463.6,201.2c-2.7,8-8.7,14.2-20.4,14.2c-12,0-21.7-8.9-22.2-21.2 h59.5c0.2-0.3,0.5-3,0.5-6.2c0-25.8-14.7-42.3-39.8-42.3c-20.6,0-39.6,17.1-39.6,42.8c0,27.6,19.6,43.7,41.6,43.7 c19.6,0,32.4-11.5,36.8-25.8L463.6,201.2z"></path> </g> <g> <defs> <rect id="SVGID_7_" x="-61.3" y="16.7" width="607.8" height="313.5"></rect> </defs> <clipPath id="SVGID_8_"> <use xlink:href="#SVGID_7_" style="overflow:visible;"></use> </clipPath> <path class="st3" d="M340.7,125.1c3.7,0,5.9,0.5,7,0.8v-16.6c-1.3-0.7-5.4-1.7-10.2-1.7c-16.7,0-28.4,11-28.4,29.3v11.2h-14.2v16.9 H309v64.6h19.6v-64.6h18.9v-16.9h-18.9v-10.7C328.6,127.4,335.5,125.1,340.7,125.1 M382.8,148.2h-19.2v81.5h19.2V148.2z M360.6,119.5c0,7,5.7,12.6,12.6,12.6c7,0,12.7-5.5,12.7-12.6c0-7-5.7-12.7-12.7-12.7C366.3,106.8,360.6,112.5,360.6,119.5"></path> <path class="st3" d="M546.5,148.3c-0.8-0.2-2.8-0.5-5.1-0.5c-10.6,0-19.6,5.1-23.4,13.9v-12.9h-18.7v80.7h19.2V191 c0-15.1,6.8-23.7,21.7-23.7c2,0,4.1,0.2,6.3,0.5V148.3z"></path> </g> <polygon class="st4" points="165,103.6 165,122.8 160.4,122.8 160.4,103.6 153,103.6 153,99.3 172.5,99.3 172.5,103.6 "></polygon> <polygon class="st4" points="190.5,122.8 190.5,113.1 180.2,113.1 180.2,122.8 175.7,122.8 175.7,99.3 180.2,99.3 180.2,108.7 190.5,108.7 190.5,99.3 195.1,99.3 195.1,122.8 "></polygon> <polygon class="st4" points="200.5,122.8 200.5,99.3 215.2,99.3 215.2,103.6 205,103.6 205,109 214.2,109 214.2,113.1 205,113.1 205,118.5 215.2,118.5 215.2,122.8 "></polygon> </svg> 