<?xml version="1.0" encoding="UTF-8"?> <!-- Generator: Adobe Illustrator 24.1.2, SVG Export Plug-In . SVG Version: 6.00 Build 0) --> <svg xmlns="http://www.w3.org/2000/svg" xmlns:xlink="http://www.w3.org/1999/xlink" version="1.1" id="Layer_1" x="0px" y="0px" viewBox="0 0 200 200" style="enable-background:new 0 0 200 200;" xml:space="preserve"> <style type="text/css"> .st0{fill:#176DA5;} .st1{fill:#FFFFFF;} </style> <polygon class="st0" points="73.6,66 73.6,135 137.8,100.2 "></polygon> <path class="st1" d="M83.3,76.1v52.2c14.3-8.8,28.2-17.3,42.4-26.1C111.4,93.4,97.5,84.9,83.3,76.1 M104.1,161.2 c-22-0.7-39-1.2-55.9-1.9c-4.8-0.2-9.7-0.7-14.3-2c-9.6-2.8-15.5-9.3-17-19.5c-2.7-18.8-2.5-37.6-1.4-56.4 c0.3-5.5,1.3-11.1,1.9-16.6c1.1-9.7,10.5-17.3,20.5-18.5c22-2.6,44.2-2.7,66.3-2.4c15,0.2,29.9,0.7,44.9,1.3 c4.7,0.2,9.5,0.8,14.1,1.7c10.4,2,16.3,8.3,18.1,18.8c2.5,14.1,3.1,28.3,2.5,42.5c-0.4,10.4-1.3,20.8-2.6,31.1 c-1.4,10.5-9.6,18.2-20.2,18.9C140.3,159.5,119.7,160.4,104.1,161.2"></path> </svg> 