<?xml version="1.0" encoding="UTF-8"?> <!-- Generator: Adobe Illustrator 24.1.2, SVG Export Plug-In . SVG Version: 6.00 Build 0) --> <svg xmlns="http://www.w3.org/2000/svg" xmlns:xlink="http://www.w3.org/1999/xlink" version="1.1" id="Layer_1" x="0px" y="0px" viewBox="0 0 500 500" style="enable-background:new 0 0 500 500;" xml:space="preserve"> <style type="text/css"> .st0{fill:#CA3333;} </style> <path class="st0" d="M307.8,119.8c-0.2-0.1-0.3-0.3-0.5-0.4c-17-7.5-35.8-11.7-55.6-11.9h-0.2h-0.1c-3.1,0-6.2,0.1-9.3,0.3 c-2.2,0.1-4.3,0.3-6.4,0.5c-0.3,0-0.7,0.1-1,0.1v0c-24.9,2.7-48,11.8-67.4,25.8l-13.9-20.5c-0.8-1.2-2.3-1.8-3.7-1.5 c-1.4,0.3-2.5,1.4-2.8,2.9l-8.6,47.7l-6.1,33.7c-0.2,1.1,0.1,2.2,0.8,3c0.7,0.8,1.6,1.2,2.7,1.2c0.1,0,0.1,0,0.2,0l37.8-2l42.6-2.3 c1.4-0.1,2.7-1,3.2-2.4c0.5-1.3,0.2-2.8-0.9-3.8L201,173.6c11-7.2,23.6-12,37.2-13.8l0,0.4c4.1-0.5,8.4-0.9,12.7-0.8 c50.5,0.5,91,41.8,90.5,92.3c-0.5,50.5-41.8,91-92.3,90.5c-50.5-0.5-91-41.9-90.5-92.3c0-4.4,0.5-8.7,1.2-12.9L111,218.6 c-2.2,9.6-3.4,19.6-3.5,29.9c-0.8,78.7,62.4,143.1,141.1,143.9c78.7,0.8,143.1-62.4,143.9-141.1 C393.1,192.8,358.2,142.1,307.8,119.8"></path> </svg> 