<?xml version="1.0" encoding="UTF-8"?> <!-- Generator: Adobe Illustrator 24.1.2, SVG Export Plug-In . SVG Version: 6.00 Build 0) --> <svg xmlns="http://www.w3.org/2000/svg" xmlns:xlink="http://www.w3.org/1999/xlink" version="1.1" id="Layer_1" x="0px" y="0px" viewBox="0 0 500 500" style="enable-background:new 0 0 500 500;" xml:space="preserve"> <style type="text/css"> .st0{fill:#CA3333;} </style> <path class="st0" d="M353.7,285.5c18.8,0.1,34.2-15,34.4-33.9c0.1-18.9-15.1-34.2-33.9-34.4c-16.6-0.1-30.4,11.6-33.6,27.2l-89-0.6 l46.7-86.3l43.7,0.3c4.1,14.2,16.9,24.7,32.4,24.8c18.8,0.1,34.2-15.1,34.4-33.9c0.1-18.8-15-34.2-33.9-34.4 c-17.2-0.1-31.4,12.6-33.9,29.1l-51.1-0.4l-54.5,100.6l-36.5-0.2c-3-15.7-16.7-27.6-33.3-27.7c-18.8-0.1-34.2,15-34.3,33.9 c-0.1,18.8,15.1,34.2,33.9,34.3c16.2,0.1,29.8-11.1,33.4-26.3l38.8,0.3l51.2,97.6l51.1,0.3c2.2,16.6,16.2,29.5,33.5,29.6 c18.8,0.1,34.2-15,34.3-33.9c0.1-18.8-15-34.2-33.9-34.3c-15.5-0.1-28.5,10.2-32.8,24.3l-43.6-0.3l-43.6-83.1l87.2,0.6 C324.1,274,337.5,285.4,353.7,285.5"></path> </svg> 