<?xml version="1.0" encoding="UTF-8"?> <!-- Generator: Adobe Illustrator 24.1.2, SVG Export Plug-In . SVG Version: 6.00 Build 0) --> <svg xmlns="http://www.w3.org/2000/svg" xmlns:xlink="http://www.w3.org/1999/xlink" version="1.1" id="Layer_1" x="0px" y="0px" viewBox="0 0 439.2 313.6" style="enable-background:new 0 0 439.2 313.6;" xml:space="preserve"> <style type="text/css"> .st0{fill:#CA3333;} </style> <path class="st0" d="M236.8,174.1c-12.8,1.6-24.3,3.1-34.9,4.4c-5.7,33.5-10.8,66-16.8,98.4c-1.8,9.9-5.3,19.6-9.1,29 c-1.3,3.2-5.7,7.2-8.6,7.2c-2.9,0-7.6-4.3-8.2-7.4c-3.9-19-8.4-38.1-9.9-57.3c-1.7-20.6-0.4-41.4-0.4-63.8 c-11.6,1.1-23.5,2.2-34.7,3.3c-5.7,31.6-11.1,62.3-16.9,93c-1.4,7.5-3.5,15.2-6.7,22.1c-2,4.3-6.8,7.2-10.3,10.8 c-3.1-3.5-7.9-6.5-9.1-10.5c-3.4-12.1-6.9-24.4-7.7-36.8c-1.3-20.3-0.5-40.7-0.6-61c0-4.4,0-8.8,0-13.4c-3.9-0.4-6.7-1-9.5-0.9 c-24.5,1.1-39.2-12.5-49.8-32.6c-6.9-13.2-4.2-20.2,10.4-22.5c12.4-1.9,25.1-2.3,37.6-3.5c3.6-0.3,7.2-0.9,12.5-1.6 c0-5.4,0-10.6,0-15.8c-0.3-32.6-0.9-65.1-0.9-97.7c0-16.6,6.3-19.8,21.6-14.1c22,8.2,34.1,22.5,33.5,46.6 c-0.4,15.9-0.4,31.7-0.5,47.6c-0.1,9.7,0,19.4,0,30.6c10.6-0.8,21.3-1.5,32.4-2.3c0-30.2,0-59.8,0-89.5c0-8.1,0-16.3,0.4-24.4 c0.6-10.3,6.8-14.3,15.8-10.4c28.4,12.3,37.5,15,38.4,48.9c0.7,23.1,0.1,46.2,0.1,70.6c10.8-1,21.1-1.9,32.8-3 c0-6.1,0.1-11.7,0-17.3c-0.4-27.7-1.1-55.4-1-83.1c0.1-17.1,6.7-20,22.6-14c23.5,8.8,33.5,25.3,33,49.7c-0.4,19.5-0.1,38.9-0.1,59.8 c9.8-0.7,20.1-1.5,32.2-2.4c0-5.5,0-10.6,0-15.7c-0.2-26.1-0.9-52.1-0.6-78.2c0.2-16.4,6.6-19,22.1-13.2C369.6,12.2,380,28.3,379,53 c-0.8,17.8-0.2,35.6-0.2,53.8c11.9,1.4,23.1,2.7,34.3,4.1c3.6,0.5,7.6,0.8,10.6,2.7c5.5,3.4,10.3,7.8,15.5,11.7 c-5.1,4.2-9.6,10.3-15.4,12.4c-15.3,5.2-31.2,8.7-45.7,12.5c-5.6,39-10.9,77.2-16.7,115.4c-1.7,10.8-4.4,21.6-8.2,31.8 c-2.2,6-7.5,10.8-11.4,16.1c-4.1-5.5-10.5-10.5-11.8-16.6c-3.5-17-6.3-34.5-6.9-51.8c-0.8-23.6,0.7-47.2,1.1-70.8 c0.1-4.4,0-8.8,0-14.3c-12.2,2.1-23.3,4-35.4,6.1c-2.7,21.7-4.7,43.5-8.2,65c-3.5,21.2-8.6,42.2-13.2,63.2 c-0.8,3.5-1.7,7.4-3.7,10.2c-2.4,3.5-6,8.3-9.2,8.4c-2.9,0.1-7.9-4.8-8.8-8.3c-3.7-14.1-7.8-28.4-8.6-42.8 c-1.3-24.4-0.3-48.8-0.2-73.3C236.8,184.2,236.8,179.8,236.8,174.1"></path> </svg> 