<?xml version="1.0" encoding="UTF-8"?> <!-- Generator: Adobe Illustrator 24.1.2, SVG Export Plug-In . SVG Version: 6.00 Build 0) --> <svg xmlns="http://www.w3.org/2000/svg" xmlns:xlink="http://www.w3.org/1999/xlink" version="1.1" id="Layer_1" x="0px" y="0px" viewBox="0 0 500 500" style="enable-background:new 0 0 500 500;" xml:space="preserve"> <style type="text/css"> .st0{fill:#CA3333;} </style> <path class="st0" d="M141.8,238.5c19.5,0,35.3-15.8,35.3-35.3c0-19.5-15.8-35.3-35.3-35.3c-19.5,0-35.3,15.8-35.3,35.3 C106.5,222.7,122.3,238.5,141.8,238.5 M367.6,245.8c-25.9,0-47,20.8-47.4,46.6c-10.8-26.9-37.2-46-68-46 c-27.5,0-51.4,15.1-63.9,37.5c-4.3-21.8-23.5-38.2-46.5-38.2c-26.2,0-47.5,21.3-47.5,47.5v28H179V363h146.6v-41.7h89.6v-28 C415.1,267.1,393.8,245.8,367.6,245.8 M367.6,238.5c19.5,0,35.3-15.8,35.3-35.3c0-19.5-15.8-35.3-35.3-35.3 c-19.5,0-35.3,15.8-35.3,35.3C332.3,222.7,348.1,238.5,367.6,238.5 M252.2,235.2c30.1,0,54.5-24.4,54.5-54.5s-24.4-54.5-54.5-54.5 c-30.1,0-54.5,24.4-54.5,54.5S222.1,235.2,252.2,235.2"></path> </svg> 