<?xml version="1.0" encoding="UTF-8"?> <!-- Generator: Adobe Illustrator 24.1.2, SVG Export Plug-In . SVG Version: 6.00 Build 0) --> <svg xmlns="http://www.w3.org/2000/svg" xmlns:xlink="http://www.w3.org/1999/xlink" version="1.1" id="Layer_1" x="0px" y="0px" viewBox="0 0 587 120" style="enable-background:new 0 0 587 120;" xml:space="preserve"> <style type="text/css"> .st0{fill:#FFFFFF;} .st1{clip-path:url(#SVGID_2_);fill:#FFFFFF;} </style> <g> <path class="st0" d="M198.1,110c0-0.9-0.2-1.2-1-1.2h-2.5v4.6c0,0.8,0.1,0.9,0.6,0.9h1.5v2.7h-9.2v-2.7h1.3c0.5,0,0.6-0.2,0.6-0.9 v-12.7c0-0.8-0.1-1-0.6-1h-1.3V97h16.3v5.3H201l-0.4-1.6c-0.4-1-0.8-1.1-2.2-1.1h-3.8v6.5h2.5c0.8,0,1-0.2,1-1.1v-0.9h2.5v6.8h-2.5 V110z"></path> <path class="st0" d="M207.8,107c0-6.3,4.2-10.4,10.4-10.4c6.4,0,10.1,4.1,10.1,10.4c0,6.3-4.1,10.3-10.3,10.3 C211.7,117.4,207.8,113.3,207.8,107z M223,107.7v-1.3c0-4.6-1.6-6.6-4.8-6.6c-3.2,0-4.9,2-4.9,6.6v1.3c0,4.6,1.6,6.6,4.8,6.6 S223,112.3,223,107.7z"></path> <path class="st0" d="M234.1,110.1v-9.5c0-0.8-0.2-1-0.6-1h-1.1V97h8.9v2.6H240c-0.5,0-0.7,0.2-0.7,1v9.4c0,3.2,1,4.3,4.2,4.3 c2.8,0,4-1.3,4-4.3v-9.3c0-0.8-0.2-1-0.7-1h-1.5V97h7.3v2.6h-1.3c-0.5,0-0.7,0.2-0.7,1v9.6c0,4.8-2.7,7.1-8.1,7.1 C236.4,117.4,234.1,115.5,234.1,110.1z"></path> <path class="st0" d="M263.7,97l8.8,12v-8.4c0-0.8-0.2-1-0.6-1h-1.5V97h7.3v2.6h-1.5c-0.5,0-0.7,0.2-0.7,1V117h-3.4l-10.5-14.2v10.6 c0,0.8,0.1,0.9,0.6,0.9h1.5v2.7h-7.3v-2.7h1.5c0.5,0,0.7-0.2,0.7-0.9v-12.7c0-0.8-0.2-1-0.7-1h-1.5V97H263.7z"></path> <path class="st0" d="M281.5,114.3h1.3c0.5,0,0.6-0.2,0.6-1v-12.7c0-0.8-0.1-1-0.6-1h-1.3V97h9.5c7.2,0,10.6,3.4,10.6,10 c0,6.4-3.5,9.9-10.8,9.9h-9.2V114.3z M291,114.3c3.8,0,4.9-2,4.9-6.6v-1.4c0-4.7-1.1-6.7-4.8-6.7h-2.5v14.6H291z"></path> <path class="st0" d="M317.2,110.5h-6.3l-1,2.9c-0.3,0.8-0.1,0.9,0.6,0.9h1.2v2.7h-7.3v-2.7h1.2c0.7,0,0.8-0.2,1.1-1l6.2-16.3h4.9 l6.1,16.3c0.3,0.8,0.5,1,1.1,1h1v2.7h-9.3v-2.7h1.1c0.6,0,0.8-0.2,0.5-0.9L317.2,110.5z M311.7,108h4.8l-2.3-6.7L311.7,108z"></path> <path class="st0" d="M331.5,114.3h1.5c0.5,0,0.7-0.2,0.7-1V99.6h-1.3c-1.5,0-2.1,0.2-2.2,1.2l-0.2,1.6h-2.8V97h18.1v5.4h-2.8 l-0.2-1.6c-0.1-1.1-0.8-1.2-2.3-1.2h-1.4v13.7c0,0.8,0.1,1,0.6,1h1.5v2.7h-9.2V114.3z"></path> <path class="st0" d="M349.5,114.3h1.3c0.5,0,0.7-0.2,0.7-1v-12.7c0-0.8-0.2-1-0.7-1h-1.3V97h9.1v2.6h-1.3c-0.5,0-0.6,0.2-0.6,1 v12.7c0,0.8,0.1,1,0.6,1h1.3v2.7h-9.1V114.3z"></path> <path class="st0" d="M362.7,107c0-6.3,4.2-10.4,10.4-10.4c6.4,0,10.1,4.1,10.1,10.4c0,6.3-4.1,10.3-10.3,10.3 C366.5,117.4,362.7,113.3,362.7,107z M377.8,107.7v-1.3c0-4.6-1.6-6.6-4.8-6.6c-3.2,0-4.9,2-4.9,6.6v1.3c0,4.6,1.6,6.6,4.8,6.6 S377.8,112.3,377.8,107.7z"></path> <path class="st0" d="M394.5,97l8.8,12v-8.4c0-0.8-0.2-1-0.6-1h-1.5V97h7.3v2.6H407c-0.5,0-0.7,0.2-0.7,1V117h-3.4l-10.5-14.2v10.6 c0,0.8,0.1,0.9,0.6,0.9h1.5v2.7h-7.3v-2.7h1.5c0.5,0,0.7-0.2,0.7-0.9v-12.7c0-0.8-0.2-1-0.7-1h-1.5V97H394.5z"></path> </g> <g> <defs> <rect id="SVGID_1_" x="64.7" y="2" width="450.3" height="127.6"></rect> </defs> <clipPath id="SVGID_2_"> <use xlink:href="#SVGID_1_" style="overflow:visible;"></use> </clipPath> <path class="st1" d="M305.1,22.2h-8v20.9c-1.1-2.2-4.1-5-10.1-5c-9.7,0-16.5,8.2-16.5,18.1c0,10.4,6.7,18.2,16.6,18.2 c4.9,0,8.5-2.4,10.1-5.3c0,1.4,0.2,3.7,0.4,4.5h7.9c-0.1-0.6-0.4-3.2-0.4-6.3V22.2z M278.7,56.2c0-6.6,4-10.8,9.4-10.8 s9.1,4.1,9.1,10.7c0,6.6-3.8,11.1-9.2,11.1C282.3,67.2,278.7,62.8,278.7,56.2 M257.9,61.5c-1.1,3.4-3.7,6-8.7,6 c-5.1,0-9.2-3.8-9.4-9H265c0.1-0.1,0.2-1.3,0.2-2.6c0-10.9-6.2-18-16.9-18c-8.7,0-16.8,7.2-16.8,18.2c0,11.7,8.3,18.5,17.7,18.5 c8.3,0,13.8-4.9,15.6-10.9L257.9,61.5z M240,52.5c0.3-3.7,3.3-7.7,8.4-7.7c5.7,0,8.4,3.6,8.5,7.7H240z M170.2,26.9 c0,3,2.4,5.3,5.3,5.3c3,0,5.4-2.3,5.4-5.3c0-3-2.4-5.4-5.4-5.4C172.6,21.5,170.2,23.9,170.2,26.9 M179.7,39h-8.2v34.6h8.2V39z M165.6,38.8c-0.4-0.1-1.2-0.2-2.2-0.2c-4.5,0-8.4,2.2-10,6V39h-8v34.6h8.2V57.1c0-6.5,2.9-10.1,9.3-10.1c0.9,0,1.8,0.1,2.7,0.2 V38.8z M131.1,61.5c-1.1,3.4-3.7,6-8.7,6c-5.1,0-9.2-3.8-9.4-9h25.3c0.1-0.1,0.2-1.3,0.2-2.6c0-10.9-6.2-18-16.9-18 c-8.7,0-16.8,7.2-16.8,18.2c0,11.7,8.3,18.5,17.7,18.5c8.3,0,13.8-4.9,15.6-10.9L131.1,61.5z M113.2,52.5c0.3-3.7,3.3-7.7,8.4-7.7 c5.7,0,8.4,3.6,8.5,7.7H113.2z M84.5,62.4L74,28.6h-9.2l15.2,45h8.7L117.3,2h-9L84.5,62.4z"></path> <path class="st1" d="M498.3,65c-5.4,0-9-3.8-9-9.8c0-5.9,3.8-9.7,9-9.7c5.1,0,8.9,3.8,8.9,9.7C507.1,61.1,503.5,65,498.3,65 M480.9,75.5c0.9,7,7.3,12.6,16.5,12.6c13,0,17.7-8.6,17.7-17.8V39h-7.9v4.4c-1.5-2.8-4.8-5-10.2-5c-9.5,0-16,7.6-16,16.8 c0,9.7,6.7,16.8,16,16.8c5,0,8.5-2.3,10-5v3.6c0,7-3.3,10.4-9.8,10.4c-4.8,0-8.1-3.2-8.7-7.5L480.9,75.5z M450.9,53.6 c0-4.5,2.5-8.2,7.2-8.2c5.2,0,7.1,3.4,7.1,7.7v20.4h8.2V51.7c0-7.6-4-13.7-12.5-13.7c-3.8,0-7.9,1.6-10.2,5.6V39h-8v34.6h8.2V53.6z M422.5,26.9c0,3,2.4,5.3,5.3,5.3c3,0,5.4-2.3,5.4-5.3c0-3-2.4-5.4-5.4-5.4C425,21.5,422.5,23.9,422.5,26.9 M432,39h-8.2v34.6h8.2 V39z M408.9,28.4h-7.5v5.2c0,3.1-1.6,5.4-5.3,5.4h-1.8v7.3h6.4v17.4c0,6.5,4,10.3,10.4,10.3c3,0,4.5-0.6,5-0.8v-6.8 c-0.4,0.1-1.7,0.3-2.8,0.3c-3.1,0-4.4-1.3-4.4-4.3v-16h7.2V39h-7.2V28.4z M373.8,37.9c-10.3,0-17.9,7.7-17.9,18.3 c0,10.6,7.6,18.4,17.9,18.4c10.4,0,18-7.7,18-18.4C391.7,45.7,384.1,37.9,373.8,37.9 M373.8,67.2c-5,0-9.6-3.8-9.6-11 s4.6-10.9,9.6-10.9c5.1,0,9.7,3.7,9.7,10.9C383.4,63.5,378.9,67.2,373.8,67.2 M335.6,62.4l-10.5-33.8h-9.2l15.2,45h8.7L368.5,2h-9 L335.6,62.4z"></path> <path class="st1" d="M214.2,26.8c0,3,2.4,5.3,5.3,5.3c3,0,5.4-2.3,5.4-5.3s-2.4-5.4-5.4-5.4C216.6,21.4,214.2,23.9,214.2,26.8 M223.6,39h-8.2v34.6h8.2V39z M205.7,29.2c1.6,0,2.5,0.2,3,0.4v-7c-0.6-0.3-2.3-0.7-4.3-0.7c-7.1,0-12.1,4.7-12.1,12.4V39h-6v7.2h6 v27.4h8.3V46.1h8V39h-8v-4.5C200.6,30.2,203.5,29.2,205.7,29.2"></path> </g> </svg> 