<?xml version="1.0" encoding="UTF-8"?> <!-- Generator: Adobe Illustrator 24.1.2, SVG Export Plug-In . SVG Version: 6.00 Build 0) --> <svg xmlns="http://www.w3.org/2000/svg" xmlns:xlink="http://www.w3.org/1999/xlink" version="1.1" id="Layer_1" x="0px" y="0px" viewBox="0 0 587 96" style="enable-background:new 0 0 587 96;" xml:space="preserve"> <style type="text/css"> .st0{clip-path:url(#SVGID_2_);fill:#FFFFFF;} .st1{clip-path:url(#SVGID_2_);} .st2{fill:#FFFFFF;} </style> <g> <defs> <rect id="SVGID_1_" x="0.8" y="3.6" width="656.3" height="86.1"></rect> </defs> <clipPath id="SVGID_2_"> <use xlink:href="#SVGID_1_" style="overflow:visible;"></use> </clipPath> <path class="st0" d="M241.1,23.8h-8v20.9c-1.1-2.2-4.1-5-10.1-5c-9.7,0-16.5,8.2-16.5,18.1c0,10.4,6.7,18.2,16.6,18.2 c4.9,0,8.5-2.4,10.1-5.3c0,1.4,0.2,3.7,0.4,4.5h7.9c-0.1-0.6-0.4-3.2-0.4-6.3V23.8z M214.7,57.8c0-6.6,4-10.8,9.4-10.8 c5.4,0,9.1,4.1,9.1,10.7c0,6.6-3.8,11.1-9.2,11.1C218.4,68.8,214.7,64.4,214.7,57.8 M193.9,63.1c-1.1,3.4-3.7,6-8.7,6 c-5.1,0-9.2-3.8-9.4-9h25.3c0.1-0.1,0.2-1.3,0.2-2.6c0-10.9-6.2-18-16.9-18c-8.7,0-16.8,7.2-16.8,18.2c0,11.7,8.3,18.5,17.7,18.5 c8.3,0,13.8-4.9,15.6-10.9L193.9,63.1z M176,54.1c0.3-3.7,3.3-7.7,8.4-7.7c5.7,0,8.4,3.6,8.5,7.7H176z M106.3,28.5 c0,3,2.4,5.3,5.3,5.3c3,0,5.4-2.3,5.4-5.3c0-3-2.4-5.4-5.4-5.4C108.7,23.1,106.3,25.5,106.3,28.5 M115.7,40.6h-8.2v34.6h8.2V40.6z M101.6,40.4c-0.4-0.1-1.2-0.2-2.2-0.2c-4.5,0-8.4,2.2-10,6v-5.5h-8v34.6h8.2V58.7c0-6.5,2.9-10.1,9.3-10.1c0.9,0,1.8,0.1,2.7,0.2 V40.4z M67.1,63.1c-1.1,3.4-3.7,6-8.7,6c-5.1,0-9.2-3.8-9.4-9h25.3c0.1-0.1,0.2-1.3,0.2-2.6c0-10.9-6.2-18-16.9-18 c-8.7,0-16.8,7.2-16.8,18.2c0,11.7,8.3,18.5,17.7,18.5c8.3,0,13.8-4.9,15.6-10.9L67.1,63.1z M49.2,54.1c0.3-3.7,3.3-7.7,8.4-7.7 c5.7,0,8.4,3.6,8.5,7.7H49.2z M20.5,64L10,30.2H0.8l15.2,45h8.7L53.4,3.6h-9L20.5,64z"></path> <path class="st0" d="M434.3,66.6c-5.4,0-9-3.8-9-9.8c0-5.9,3.8-9.7,9-9.7c5.1,0,8.9,3.8,8.9,9.7C443.2,62.8,439.5,66.6,434.3,66.6 M416.9,77.1c0.9,7,7.3,12.6,16.5,12.6c13,0,17.7-8.6,17.7-17.8V40.6h-7.9V45c-1.5-2.8-4.8-5-10.2-5c-9.5,0-16,7.6-16,16.8 c0,9.7,6.7,16.8,16,16.8c5,0,8.5-2.3,10-5v3.6c0,7-3.3,10.4-9.8,10.4c-4.8,0-8.1-3.2-8.7-7.5L416.9,77.1z M386.9,55.2 c0-4.5,2.5-8.2,7.2-8.2c5.2,0,7.1,3.4,7.1,7.7v20.4h8.2V53.3c0-7.6-4-13.7-12.5-13.7c-3.8,0-7.9,1.6-10.2,5.6v-4.6h-8v34.6h8.2 V55.2z M358.6,28.5c0,3,2.4,5.3,5.3,5.3c3,0,5.4-2.3,5.4-5.3c0-3-2.4-5.4-5.4-5.4C361,23.1,358.6,25.5,358.6,28.5 M368,40.6h-8.2 v34.6h8.2V40.6z M345,30h-7.5v5.2c0,3.1-1.6,5.4-5.3,5.4h-1.8v7.3h6.4v17.4c0,6.5,4,10.3,10.4,10.3c3,0,4.5-0.6,5-0.8V68 c-0.4,0.1-1.7,0.3-2.8,0.3c-3.1,0-4.4-1.3-4.4-4.3v-16h7.2v-7.3H345V30z M309.8,39.6c-10.3,0-17.9,7.7-17.9,18.3 c0,10.6,7.6,18.4,17.9,18.4c10.4,0,18-7.7,18-18.4C327.8,47.3,320.2,39.6,309.8,39.6 M309.8,68.9c-5,0-9.6-3.8-9.6-11 c0-7.2,4.6-10.9,9.6-10.9c5.1,0,9.7,3.7,9.7,10.9C319.5,65.1,314.9,68.9,309.8,68.9 M271.6,64l-10.5-33.8h-9.2l15.2,45h8.7 l28.8-71.6h-9L271.6,64z"></path> <path class="st0" d="M150.2,28.4c0,3,2.4,5.3,5.3,5.3c3,0,5.4-2.3,5.4-5.3c0-3-2.4-5.4-5.4-5.4C152.6,23,150.2,25.5,150.2,28.4 M159.6,40.6h-8.2v34.6h8.2V40.6z M141.7,30.8c1.6,0,2.5,0.2,3,0.4v-7c-0.6-0.3-2.3-0.7-4.3-0.7c-7.1,0-12.1,4.7-12.1,12.4v4.8h-6 v7.2h6v27.4h8.3V47.8h8v-7.2h-8V36C136.6,31.8,139.5,30.8,141.7,30.8"></path> <g class="st1"> <path class="st2" d="M466,63.9c3.2,0,5.9,2.7,5.9,5.9s-2.7,5.8-5.9,5.8s-5.8-2.6-5.8-5.8S462.8,63.9,466,63.9z"></path> <path class="st2" d="M514.5,57.6c0,10.8-7.7,18.6-18.2,18.6c-10.4,0-18.1-7.8-18.1-18.6c0-10.7,7.7-18.6,18.1-18.6 C506.8,39.1,514.5,46.9,514.5,57.6z M506.1,57.6c0-7.3-4.6-11-9.8-11c-5.1,0-9.8,3.7-9.8,11s4.7,11.2,9.8,11.2 C501.5,68.8,506.1,65,506.1,57.6z"></path> <path class="st2" d="M543.1,48.4c-0.9-0.1-1.9-0.2-2.7-0.2c-6.5,0-9.4,3.7-9.4,10.3v16.7h-8.4V40.1h8.1v5.6c1.7-3.8,5.5-6,10.2-6 c1,0,1.9,0.1,2.2,0.2V48.4z"></path> <path class="st2" d="M555,75.1c0.6,4.3,4,7.6,8.8,7.6c6.6,0,9.9-3.4,9.9-10.5v-3.7c-1.5,2.7-5,5.1-10.2,5.1 c-9.4,0-16.2-7.2-16.2-17.1c0-9.4,6.6-17.1,16.2-17.1c5.5,0,8.9,2.2,10.4,5.1v-4.5h8.1v31.8c0,9.4-4.8,18.1-18,18.1 c-9.3,0-15.8-5.8-16.7-12.8L555,75.1z M574,56.6c0-6-3.8-9.9-9-9.9c-5.3,0-9.1,3.9-9.1,9.9c0,6.1,3.7,9.9,9.1,9.9 C570.3,66.5,574,62.6,574,56.6z"></path> </g> </g> </svg> 