<?xml version="1.0" encoding="UTF-8"?> <svg xmlns="http://www.w3.org/2000/svg" xmlns:xlink="http://www.w3.org/1999/xlink" width="450" zoomAndPan="magnify" viewBox="0 0 337.5 74.999997" height="100" preserveAspectRatio="xMidYMid meet" version="1.0"><defs><g></g><clipPath id="09e9eef637"><path d="M 7.488281 9.492188 L 323.445312 9.492188 L 323.445312 65.507812 L 7.488281 65.507812 Z M 7.488281 9.492188 " clip-rule="nonzero"></path></clipPath><clipPath id="f64067710c"><path d="M 295.4375 9.492188 C 310.90625 9.492188 323.445312 22.03125 323.445312 37.5 C 323.445312 52.96875 310.90625 65.507812 295.4375 65.507812 L 35.496094 65.507812 C 20.027344 65.507812 7.488281 52.96875 7.488281 37.5 C 7.488281 22.03125 20.027344 9.492188 35.496094 9.492188 Z M 295.4375 9.492188 " clip-rule="nonzero"></path></clipPath></defs><g clip-path="url(#09e9eef637)"><g clip-path="url(#f64067710c)"><path fill="#5b5b5b" d="M 7.488281 9.492188 L 323.445312 9.492188 L 323.445312 65.507812 L 7.488281 65.507812 Z M 7.488281 9.492188 " fill-opacity="1" fill-rule="nonzero"></path></g></g><g fill="#ffffff" fill-opacity="1"><g transform="translate(102.328866, 44.614458)"><g><path d="M 13.6875 0 L 10.71875 0 L 9.640625 -3.28125 L 4.1875 -3.28125 L 3.109375 0 L 0.21875 0 L 5.140625 -14.25 L 8.75 -14.25 Z M 6.78125 -11.28125 L 4.9375 -5.65625 L 8.859375 -5.65625 L 7.015625 -11.28125 Z M 6.78125 -11.28125 "></path></g></g></g><g fill="#ffffff" fill-opacity="1"><g transform="translate(116.218868, 44.614458)"><g><path d="M 1.546875 4.359375 L 1.546875 -10.75 L 4.25 -10.75 L 4.25 -9.34375 L 4.453125 -9.3125 C 4.773438 -9.851562 5.203125 -10.257812 5.734375 -10.53125 C 6.265625 -10.8125 6.890625 -10.953125 7.609375 -10.953125 C 8.472656 -10.953125 9.226562 -10.75 9.875 -10.34375 C 10.519531 -9.9375 11.019531 -9.3125 11.375 -8.46875 C 11.738281 -7.632812 11.921875 -6.601562 11.921875 -5.375 C 11.921875 -4.144531 11.726562 -3.113281 11.34375 -2.28125 C 10.96875 -1.445312 10.441406 -0.820312 9.765625 -0.40625 C 9.085938 0 8.3125 0.203125 7.4375 0.203125 C 6.757812 0.203125 6.175781 0.09375 5.6875 -0.125 C 5.207031 -0.351562 4.796875 -0.707031 4.453125 -1.1875 L 4.25 -1.140625 L 4.25 4.359375 Z M 6.671875 -2.09375 C 7.484375 -2.09375 8.097656 -2.351562 8.515625 -2.875 C 8.929688 -3.40625 9.140625 -4.238281 9.140625 -5.375 C 9.140625 -6.507812 8.929688 -7.34375 8.515625 -7.875 C 8.097656 -8.40625 7.484375 -8.671875 6.671875 -8.671875 C 5.921875 -8.671875 5.320312 -8.394531 4.875 -7.84375 C 4.4375 -7.300781 4.21875 -6.476562 4.21875 -5.375 C 4.21875 -4.269531 4.4375 -3.445312 4.875 -2.90625 C 5.320312 -2.363281 5.921875 -2.09375 6.671875 -2.09375 Z M 6.671875 -2.09375 "></path></g></g></g><g fill="#ffffff" fill-opacity="1"><g transform="translate(129.095143, 44.614458)"><g><path d="M 1.546875 4.359375 L 1.546875 -10.75 L 4.25 -10.75 L 4.25 -9.34375 L 4.453125 -9.3125 C 4.773438 -9.851562 5.203125 -10.257812 5.734375 -10.53125 C 6.265625 -10.8125 6.890625 -10.953125 7.609375 -10.953125 C 8.472656 -10.953125 9.226562 -10.75 9.875 -10.34375 C 10.519531 -9.9375 11.019531 -9.3125 11.375 -8.46875 C 11.738281 -7.632812 11.921875 -6.601562 11.921875 -5.375 C 11.921875 -4.144531 11.726562 -3.113281 11.34375 -2.28125 C 10.96875 -1.445312 10.441406 -0.820312 9.765625 -0.40625 C 9.085938 0 8.3125 0.203125 7.4375 0.203125 C 6.757812 0.203125 6.175781 0.09375 5.6875 -0.125 C 5.207031 -0.351562 4.796875 -0.707031 4.453125 -1.1875 L 4.25 -1.140625 L 4.25 4.359375 Z M 6.671875 -2.09375 C 7.484375 -2.09375 8.097656 -2.351562 8.515625 -2.875 C 8.929688 -3.40625 9.140625 -4.238281 9.140625 -5.375 C 9.140625 -6.507812 8.929688 -7.34375 8.515625 -7.875 C 8.097656 -8.40625 7.484375 -8.671875 6.671875 -8.671875 C 5.921875 -8.671875 5.320312 -8.394531 4.875 -7.84375 C 4.4375 -7.300781 4.21875 -6.476562 4.21875 -5.375 C 4.21875 -4.269531 4.4375 -3.445312 4.875 -2.90625 C 5.320312 -2.363281 5.921875 -2.09375 6.671875 -2.09375 Z M 6.671875 -2.09375 "></path></g></g></g><g fill="#ffffff" fill-opacity="1"><g transform="translate(141.971418, 44.614458)"><g><path d="M 4.46875 0.203125 C 3.5 0.203125 2.757812 -0.0546875 2.25 -0.578125 C 1.738281 -1.097656 1.484375 -1.894531 1.484375 -2.96875 L 1.484375 -15.078125 L 4.1875 -15.078125 L 4.1875 -3.078125 C 4.1875 -2.421875 4.457031 -2.09375 5 -2.09375 C 5.15625 -2.09375 5.320312 -2.117188 5.5 -2.171875 L 5.640625 -2.125 L 5.875 -0.046875 C 5.726562 0.0234375 5.53125 0.0820312 5.28125 0.125 C 5.039062 0.175781 4.769531 0.203125 4.46875 0.203125 Z M 4.46875 0.203125 "></path></g></g></g><g fill="#ffffff" fill-opacity="1"><g transform="translate(148.15125, 44.614458)"><g><path d="M 2.375 4.5625 C 1.914062 4.5625 1.5 4.523438 1.125 4.453125 C 0.75 4.378906 0.445312 4.285156 0.21875 4.171875 L 0.640625 1.984375 L 0.8125 1.9375 C 0.976562 2.019531 1.179688 2.085938 1.421875 2.140625 C 1.660156 2.191406 1.910156 2.21875 2.171875 2.21875 C 2.597656 2.21875 2.957031 2.160156 3.25 2.046875 C 3.539062 1.929688 3.785156 1.738281 3.984375 1.46875 C 4.191406 1.207031 4.375 0.84375 4.53125 0.375 L 0.234375 -10.75 L 3.0625 -10.75 L 5.734375 -3.28125 L 5.96875 -3.28125 L 8.578125 -10.75 L 11.3125 -10.75 L 7 0.671875 C 6.65625 1.597656 6.273438 2.34375 5.859375 2.90625 C 5.453125 3.46875 4.96875 3.882812 4.40625 4.15625 C 3.84375 4.425781 3.164062 4.5625 2.375 4.5625 Z M 2.375 4.5625 "></path></g></g></g><g fill="#ffffff" fill-opacity="1"><g transform="translate(159.692135, 44.614458)"><g></g></g></g><g fill="#ffffff" fill-opacity="1"><g transform="translate(164.400115, 44.614458)"><g><path d="M 1.875 0 L 1.875 -8.625 L 0.359375 -8.625 L 0.359375 -10.765625 L 1.875 -10.765625 C 1.769531 -11.222656 1.71875 -11.648438 1.71875 -12.046875 C 1.71875 -12.722656 1.875 -13.300781 2.1875 -13.78125 C 2.5 -14.269531 2.945312 -14.640625 3.53125 -14.890625 C 4.113281 -15.148438 4.804688 -15.28125 5.609375 -15.28125 C 6.804688 -15.28125 7.695312 -15.078125 8.28125 -14.671875 L 7.640625 -12.671875 L 7.4375 -12.640625 C 7.03125 -12.921875 6.515625 -13.0625 5.890625 -13.0625 C 5.398438 -13.0625 5.03125 -12.941406 4.78125 -12.703125 C 4.539062 -12.472656 4.421875 -12.148438 4.421875 -11.734375 C 4.421875 -11.554688 4.429688 -11.394531 4.453125 -11.25 C 4.484375 -11.101562 4.523438 -10.941406 4.578125 -10.765625 L 7.65625 -10.765625 L 7.65625 -8.625 L 4.578125 -8.625 L 4.578125 0 Z M 1.875 0 "></path></g></g></g><g fill="#ffffff" fill-opacity="1"><g transform="translate(172.159021, 44.614458)"><g><path d="M 6.25 0.203125 C 5.195312 0.203125 4.269531 -0.0078125 3.46875 -0.4375 C 2.675781 -0.875 2.0625 -1.507812 1.625 -2.34375 C 1.1875 -3.175781 0.96875 -4.1875 0.96875 -5.375 C 0.96875 -6.550781 1.1875 -7.554688 1.625 -8.390625 C 2.0625 -9.234375 2.675781 -9.867188 3.46875 -10.296875 C 4.269531 -10.734375 5.195312 -10.953125 6.25 -10.953125 C 7.300781 -10.953125 8.222656 -10.734375 9.015625 -10.296875 C 9.816406 -9.867188 10.4375 -9.234375 10.875 -8.390625 C 11.320312 -7.554688 11.546875 -6.550781 11.546875 -5.375 C 11.546875 -4.1875 11.320312 -3.175781 10.875 -2.34375 C 10.4375 -1.507812 9.816406 -0.875 9.015625 -0.4375 C 8.222656 -0.0078125 7.300781 0.203125 6.25 0.203125 Z M 6.25 -2.09375 C 7.914062 -2.09375 8.75 -3.1875 8.75 -5.375 C 8.75 -6.507812 8.535156 -7.34375 8.109375 -7.875 C 7.679688 -8.40625 7.0625 -8.671875 6.25 -8.671875 C 4.582031 -8.671875 3.75 -7.570312 3.75 -5.375 C 3.75 -3.1875 4.582031 -2.09375 6.25 -2.09375 Z M 6.25 -2.09375 "></path></g></g></g><g fill="#ffffff" fill-opacity="1"><g transform="translate(184.655148, 44.614458)"><g><path d="M 1.546875 0 L 1.546875 -10.75 L 4.171875 -10.75 L 4.171875 -9.15625 L 4.375 -9.109375 C 4.632812 -9.710938 4.972656 -10.15625 5.390625 -10.4375 C 5.816406 -10.71875 6.332031 -10.859375 6.9375 -10.859375 C 7.550781 -10.859375 8.019531 -10.753906 8.34375 -10.546875 L 7.875 -8.203125 L 7.671875 -8.171875 C 7.492188 -8.242188 7.320312 -8.296875 7.15625 -8.328125 C 7 -8.359375 6.804688 -8.375 6.578125 -8.375 C 5.816406 -8.375 5.238281 -8.109375 4.84375 -7.578125 C 4.445312 -7.046875 4.25 -6.195312 4.25 -5.03125 L 4.25 0 Z M 1.546875 0 "></path></g></g></g><g fill="#ffffff" fill-opacity="1"><g transform="translate(193.086623, 44.614458)"><g></g></g></g><g fill="#ffffff" fill-opacity="1"><g transform="translate(197.794602, 44.614458)"><g><path d="M 5 0.203125 C 3.78125 0.203125 2.769531 -0.0234375 1.96875 -0.484375 C 1.175781 -0.941406 0.597656 -1.554688 0.234375 -2.328125 L 1.828125 -4.265625 L 2.0625 -4.265625 C 2.320312 -3.640625 2.691406 -3.144531 3.171875 -2.78125 C 3.648438 -2.425781 4.207031 -2.25 4.84375 -2.25 C 5.550781 -2.25 6.078125 -2.453125 6.421875 -2.859375 C 6.765625 -3.273438 6.9375 -3.945312 6.9375 -4.875 L 6.9375 -14.25 L 9.734375 -14.25 L 9.734375 -4.828125 C 9.734375 -3.109375 9.34375 -1.835938 8.5625 -1.015625 C 7.78125 -0.203125 6.59375 0.203125 5 0.203125 Z M 5 0.203125 "></path></g></g></g><g fill="#ffffff" fill-opacity="1"><g transform="translate(209.296498, 44.614458)"><g><path d="M 6.25 0.203125 C 5.195312 0.203125 4.269531 -0.0078125 3.46875 -0.4375 C 2.675781 -0.875 2.0625 -1.507812 1.625 -2.34375 C 1.1875 -3.175781 0.96875 -4.1875 0.96875 -5.375 C 0.96875 -6.550781 1.1875 -7.554688 1.625 -8.390625 C 2.0625 -9.234375 2.675781 -9.867188 3.46875 -10.296875 C 4.269531 -10.734375 5.195312 -10.953125 6.25 -10.953125 C 7.300781 -10.953125 8.222656 -10.734375 9.015625 -10.296875 C 9.816406 -9.867188 10.4375 -9.234375 10.875 -8.390625 C 11.320312 -7.554688 11.546875 -6.550781 11.546875 -5.375 C 11.546875 -4.1875 11.320312 -3.175781 10.875 -2.34375 C 10.4375 -1.507812 9.816406 -0.875 9.015625 -0.4375 C 8.222656 -0.0078125 7.300781 0.203125 6.25 0.203125 Z M 6.25 -2.09375 C 7.914062 -2.09375 8.75 -3.1875 8.75 -5.375 C 8.75 -6.507812 8.535156 -7.34375 8.109375 -7.875 C 7.679688 -8.40625 7.0625 -8.671875 6.25 -8.671875 C 4.582031 -8.671875 3.75 -7.570312 3.75 -5.375 C 3.75 -3.1875 4.582031 -2.09375 6.25 -2.09375 Z M 6.25 -2.09375 "></path></g></g></g><g fill="#ffffff" fill-opacity="1"><g transform="translate(221.792625, 44.614458)"><g><path d="M 7.515625 0.203125 C 6.140625 0.203125 5.117188 -0.304688 4.453125 -1.328125 L 4.25 -1.296875 L 4.25 0 L 1.546875 0 L 1.546875 -15.078125 L 4.25 -15.078125 L 4.25 -9.484375 L 4.453125 -9.453125 C 4.828125 -9.960938 5.265625 -10.335938 5.765625 -10.578125 C 6.265625 -10.828125 6.867188 -10.953125 7.578125 -10.953125 C 8.441406 -10.953125 9.195312 -10.75 9.84375 -10.34375 C 10.5 -9.9375 11.007812 -9.3125 11.375 -8.46875 C 11.738281 -7.632812 11.921875 -6.601562 11.921875 -5.375 C 11.921875 -4.15625 11.734375 -3.125 11.359375 -2.28125 C 10.984375 -1.445312 10.460938 -0.820312 9.796875 -0.40625 C 9.128906 0 8.367188 0.203125 7.515625 0.203125 Z M 6.703125 -2.09375 C 7.492188 -2.09375 8.097656 -2.351562 8.515625 -2.875 C 8.929688 -3.40625 9.140625 -4.238281 9.140625 -5.375 C 9.140625 -6.507812 8.929688 -7.34375 8.515625 -7.875 C 8.097656 -8.40625 7.492188 -8.671875 6.703125 -8.671875 C 5.941406 -8.671875 5.335938 -8.394531 4.890625 -7.84375 C 4.441406 -7.300781 4.21875 -6.476562 4.21875 -5.375 C 4.21875 -4.269531 4.441406 -3.445312 4.890625 -2.90625 C 5.335938 -2.363281 5.941406 -2.09375 6.703125 -2.09375 Z M 6.703125 -2.09375 "></path></g></g></g></svg> 