<?xml version="1.0" encoding="UTF-8"?> <svg xmlns="http://www.w3.org/2000/svg" xmlns:xlink="http://www.w3.org/1999/xlink" width="450" zoomAndPan="magnify" viewBox="0 0 337.5 74.999997" height="100" preserveAspectRatio="xMidYMid meet" version="1.0"><defs><g></g><clipPath id="7348ab1ebc"><path d="M 7.488281 9.433594 L 329.605469 9.433594 L 329.605469 65.566406 L 7.488281 65.566406 Z M 7.488281 9.433594 " clip-rule="nonzero"></path></clipPath><clipPath id="ce95796d93"><path d="M 301.445312 9.433594 C 316.945312 9.433594 329.511719 22 329.511719 37.5 C 329.511719 53 316.945312 65.566406 301.445312 65.566406 L 35.554688 65.566406 C 20.054688 65.566406 7.488281 53 7.488281 37.5 C 7.488281 22 20.054688 9.433594 35.554688 9.433594 Z M 301.445312 9.433594 " clip-rule="nonzero"></path></clipPath></defs><g clip-path="url(#7348ab1ebc)"><g clip-path="url(#ce95796d93)"><path fill="#cb3433" d="M 7.488281 9.433594 L 329.605469 9.433594 L 329.605469 65.566406 L 7.488281 65.566406 Z M 7.488281 9.433594 " fill-opacity="1" fill-rule="nonzero"></path></g></g><g fill="#ffffff" fill-opacity="1"><g transform="translate(124.339226, 44.96838)"><g><path d="M 8.46875 0 L 5.0625 0 L 0.25 -14.25 L 3.25 -14.25 L 6.703125 -3.625 L 6.953125 -3.625 L 10.359375 -14.25 L 13.28125 -14.25 Z M 8.46875 0 "></path></g></g></g><g fill="#ffffff" fill-opacity="1"><g transform="translate(137.868575, 44.96838)"><g><path d="M 2.890625 -12.046875 C 2.410156 -12.046875 2.015625 -12.191406 1.703125 -12.484375 C 1.398438 -12.773438 1.25 -13.15625 1.25 -13.625 C 1.25 -14.09375 1.398438 -14.472656 1.703125 -14.765625 C 2.015625 -15.054688 2.410156 -15.203125 2.890625 -15.203125 C 3.222656 -15.203125 3.515625 -15.132812 3.765625 -15 C 4.015625 -14.863281 4.207031 -14.675781 4.34375 -14.4375 C 4.488281 -14.207031 4.5625 -13.9375 4.5625 -13.625 C 4.5625 -13.320312 4.488281 -13.050781 4.34375 -12.8125 C 4.207031 -12.570312 4.015625 -12.382812 3.765625 -12.25 C 3.515625 -12.113281 3.222656 -12.046875 2.890625 -12.046875 Z M 1.546875 0 L 1.546875 -10.75 L 4.25 -10.75 L 4.25 0 Z M 1.546875 0 "></path></g></g></g><g fill="#ffffff" fill-opacity="1"><g transform="translate(143.658512, 44.96838)"><g><path d="M 10.625 -4.765625 L 3.71875 -4.765625 C 3.789062 -3.828125 4.054688 -3.144531 4.515625 -2.71875 C 4.972656 -2.300781 5.59375 -2.09375 6.375 -2.09375 C 6.988281 -2.09375 7.488281 -2.207031 7.875 -2.4375 C 8.257812 -2.664062 8.566406 -3.015625 8.796875 -3.484375 L 9.015625 -3.484375 L 10.796875 -2.328125 C 10.453125 -1.578125 9.925781 -0.96875 9.21875 -0.5 C 8.507812 -0.03125 7.5625 0.203125 6.375 0.203125 C 5.257812 0.203125 4.296875 -0.00390625 3.484375 -0.421875 C 2.679688 -0.847656 2.0625 -1.476562 1.625 -2.3125 C 1.1875 -3.144531 0.96875 -4.164062 0.96875 -5.375 C 0.96875 -6.59375 1.195312 -7.617188 1.65625 -8.453125 C 2.113281 -9.296875 2.734375 -9.921875 3.515625 -10.328125 C 4.304688 -10.742188 5.195312 -10.953125 6.1875 -10.953125 C 7.707031 -10.953125 8.867188 -10.550781 9.671875 -9.75 C 10.484375 -8.945312 10.890625 -7.765625 10.890625 -6.203125 C 10.890625 -5.640625 10.867188 -5.203125 10.828125 -4.890625 Z M 8.3125 -6.515625 C 8.28125 -7.328125 8.085938 -7.921875 7.734375 -8.296875 C 7.378906 -8.671875 6.863281 -8.859375 6.1875 -8.859375 C 4.820312 -8.859375 4.015625 -8.078125 3.765625 -6.515625 Z M 8.3125 -6.515625 "></path></g></g></g><g fill="#ffffff" fill-opacity="1"><g transform="translate(155.345608, 44.96838)"><g><path d="M 5.765625 0 L 2.9375 0 L 0.390625 -10.75 L 2.890625 -10.75 L 4.46875 -3.484375 L 4.6875 -3.484375 L 6.734375 -10.75 L 9.0625 -10.75 L 11.1875 -3.484375 L 11.390625 -3.484375 L 12.90625 -10.75 L 15.34375 -10.75 L 12.828125 0 L 9.984375 0 L 7.953125 -7.328125 L 7.734375 -7.328125 Z M 5.765625 0 "></path></g></g></g><g fill="#ffffff" fill-opacity="1"><g transform="translate(171.068115, 44.96838)"><g></g></g></g><g fill="#ffffff" fill-opacity="1"><g transform="translate(175.776094, 44.96838)"><g><path d="M 5 0.203125 C 3.78125 0.203125 2.769531 -0.0234375 1.96875 -0.484375 C 1.175781 -0.941406 0.597656 -1.554688 0.234375 -2.328125 L 1.828125 -4.265625 L 2.0625 -4.265625 C 2.320312 -3.640625 2.691406 -3.144531 3.171875 -2.78125 C 3.648438 -2.425781 4.207031 -2.25 4.84375 -2.25 C 5.550781 -2.25 6.078125 -2.453125 6.421875 -2.859375 C 6.765625 -3.273438 6.9375 -3.945312 6.9375 -4.875 L 6.9375 -14.25 L 9.734375 -14.25 L 9.734375 -4.828125 C 9.734375 -3.109375 9.34375 -1.835938 8.5625 -1.015625 C 7.78125 -0.203125 6.59375 0.203125 5 0.203125 Z M 5 0.203125 "></path></g></g></g><g fill="#ffffff" fill-opacity="1"><g transform="translate(187.27799, 44.96838)"><g><path d="M 6.25 0.203125 C 5.195312 0.203125 4.269531 -0.0078125 3.46875 -0.4375 C 2.675781 -0.875 2.0625 -1.507812 1.625 -2.34375 C 1.1875 -3.175781 0.96875 -4.1875 0.96875 -5.375 C 0.96875 -6.550781 1.1875 -7.554688 1.625 -8.390625 C 2.0625 -9.234375 2.675781 -9.867188 3.46875 -10.296875 C 4.269531 -10.734375 5.195312 -10.953125 6.25 -10.953125 C 7.300781 -10.953125 8.222656 -10.734375 9.015625 -10.296875 C 9.816406 -9.867188 10.4375 -9.234375 10.875 -8.390625 C 11.320312 -7.554688 11.546875 -6.550781 11.546875 -5.375 C 11.546875 -4.1875 11.320312 -3.175781 10.875 -2.34375 C 10.4375 -1.507812 9.816406 -0.875 9.015625 -0.4375 C 8.222656 -0.0078125 7.300781 0.203125 6.25 0.203125 Z M 6.25 -2.09375 C 7.914062 -2.09375 8.75 -3.1875 8.75 -5.375 C 8.75 -6.507812 8.535156 -7.34375 8.109375 -7.875 C 7.679688 -8.40625 7.0625 -8.671875 6.25 -8.671875 C 4.582031 -8.671875 3.75 -7.570312 3.75 -5.375 C 3.75 -3.1875 4.582031 -2.09375 6.25 -2.09375 Z M 6.25 -2.09375 "></path></g></g></g><g fill="#ffffff" fill-opacity="1"><g transform="translate(199.774117, 44.96838)"><g><path d="M 7.515625 0.203125 C 6.140625 0.203125 5.117188 -0.304688 4.453125 -1.328125 L 4.25 -1.296875 L 4.25 0 L 1.546875 0 L 1.546875 -15.078125 L 4.25 -15.078125 L 4.25 -9.484375 L 4.453125 -9.453125 C 4.828125 -9.960938 5.265625 -10.335938 5.765625 -10.578125 C 6.265625 -10.828125 6.867188 -10.953125 7.578125 -10.953125 C 8.441406 -10.953125 9.195312 -10.75 9.84375 -10.34375 C 10.5 -9.9375 11.007812 -9.3125 11.375 -8.46875 C 11.738281 -7.632812 11.921875 -6.601562 11.921875 -5.375 C 11.921875 -4.15625 11.734375 -3.125 11.359375 -2.28125 C 10.984375 -1.445312 10.460938 -0.820312 9.796875 -0.40625 C 9.128906 0 8.367188 0.203125 7.515625 0.203125 Z M 6.703125 -2.09375 C 7.492188 -2.09375 8.097656 -2.351562 8.515625 -2.875 C 8.929688 -3.40625 9.140625 -4.238281 9.140625 -5.375 C 9.140625 -6.507812 8.929688 -7.34375 8.515625 -7.875 C 8.097656 -8.40625 7.492188 -8.671875 6.703125 -8.671875 C 5.941406 -8.671875 5.335938 -8.394531 4.890625 -7.84375 C 4.441406 -7.300781 4.21875 -6.476562 4.21875 -5.375 C 4.21875 -4.269531 4.441406 -3.445312 4.890625 -2.90625 C 5.335938 -2.363281 5.941406 -2.09375 6.703125 -2.09375 Z M 6.703125 -2.09375 "></path></g></g></g></svg> 