<?xml version="1.0" encoding="UTF-8"?> <svg xmlns="http://www.w3.org/2000/svg" xmlns:xlink="http://www.w3.org/1999/xlink" width="100" zoomAndPan="magnify" viewBox="0 0 75 74.999997" height="100" preserveAspectRatio="xMidYMid meet" version="1.0"><defs><clipPath id="efc09c0052"><path d="M 8.03125 8.03125 L 67 8.03125 L 67 67 L 8.03125 67 Z M 8.03125 8.03125 " clip-rule="nonzero"></path></clipPath></defs><g clip-path="url(#efc09c0052)"><path fill="#026da5" d="M 37.5 66.964844 C 21.253906 66.964844 8.03125 53.746094 8.03125 37.5 C 8.03125 21.25 21.253906 8.03125 37.5 8.03125 C 53.746094 8.03125 66.964844 21.25 66.964844 37.5 C 66.964844 53.746094 53.746094 66.964844 37.5 66.964844 Z M 37.5 12.304688 C 23.605469 12.304688 12.300781 23.605469 12.300781 37.5 C 12.300781 51.390625 23.605469 62.691406 37.5 62.691406 C 51.390625 62.691406 62.695312 51.390625 62.695312 37.5 C 62.695312 23.605469 51.390625 12.304688 37.5 12.304688 Z M 37.5 12.304688 " fill-opacity="1" fill-rule="nonzero"></path></g><path fill="#026da5" d="M 38.105469 52.789062 C 37.878906 52.703125 37.636719 52.5625 37.636719 51.972656 C 37.636719 51.726562 37.675781 51.441406 37.761719 51.097656 L 41.484375 33.054688 C 41.566406 32.628906 41.609375 32.1875 41.609375 31.742188 C 41.609375 30.578125 41.25 29.691406 40.539062 29.101562 C 38.949219 27.796875 36.167969 28.054688 31.542969 29.617188 L 31.09375 29.769531 L 30.910156 32.097656 L 31.6875 32.097656 C 34.042969 32.097656 34.613281 32.28125 34.730469 32.335938 C 34.886719 32.414062 34.972656 32.503906 34.972656 32.769531 C 34.972656 32.914062 34.957031 33.082031 34.917969 33.265625 C 34.871094 33.511719 34.816406 33.792969 34.761719 34.097656 L 31.351562 50.671875 C 31.191406 51.503906 31.109375 52.222656 31.109375 52.792969 C 31.109375 54.113281 31.492188 55.132812 32.234375 55.820312 C 32.964844 56.496094 33.964844 56.835938 35.207031 56.835938 C 36.660156 56.835938 38.609375 56.433594 41.164062 55.605469 L 41.621094 55.460938 L 41.808594 53.101562 L 41.035156 53.101562 C 39.289062 53.101562 38.480469 52.929688 38.105469 52.789062 Z M 38.105469 52.789062 " fill-opacity="1" fill-rule="nonzero"></path><path fill="#026da5" d="M 43.003906 19.171875 C 42.304688 18.503906 41.402344 18.160156 40.328125 18.160156 C 39.210938 18.160156 38.269531 18.527344 37.527344 19.25 C 36.777344 19.972656 36.398438 20.945312 36.398438 22.148438 C 36.398438 23.253906 36.761719 24.167969 37.472656 24.878906 C 38.1875 25.597656 39.101562 25.960938 40.183594 25.960938 C 41.289062 25.960938 42.222656 25.574219 42.96875 24.824219 C 43.707031 24.070312 44.082031 23.09375 44.082031 21.921875 C 44.082031 20.773438 43.722656 19.847656 43.003906 19.171875 Z M 43.003906 19.171875 " fill-opacity="1" fill-rule="nonzero"></path></svg> 