<?xml version="1.0" encoding="UTF-8"?> <svg xmlns="http://www.w3.org/2000/svg" xmlns:xlink="http://www.w3.org/1999/xlink" width="100" zoomAndPan="magnify" viewBox="0 0 75 74.999997" height="100" preserveAspectRatio="xMidYMid meet" version="1.0"><defs><clipPath id="aec462967e"><path d="M 5.660156 12.464844 L 69.410156 12.464844 L 69.410156 62.714844 L 5.660156 62.714844 Z M 5.660156 12.464844 " clip-rule="nonzero"></path></clipPath></defs><g clip-path="url(#aec462967e)"><path fill="#026da5" d="M 53.421875 46.589844 L 53.421875 57.148438 C 53.421875 57.910156 53.042969 58.621094 52.40625 59.042969 C 52.40625 59.042969 47.324219 62.515625 37.507812 62.515625 C 27.691406 62.515625 22.609375 59.042969 22.609375 59.042969 C 21.976562 58.621094 21.59375 57.910156 21.59375 57.148438 L 21.59375 46.589844 C 21.59375 40.316406 26.675781 35.230469 32.949219 35.230469 L 42.066406 35.230469 C 48.339844 35.230469 53.421875 40.316406 53.421875 46.589844 Z M 37.507812 12.496094 C 42.679688 12.496094 46.878906 16.089844 46.878906 21.886719 C 46.878906 25.144531 45.453125 28.402344 43.273438 30.492188 C 41.664062 32.039062 39.65625 32.957031 37.507812 32.957031 C 35.359375 32.957031 33.355469 32.039062 31.746094 30.492188 C 29.566406 28.402344 28.136719 25.144531 28.136719 21.886719 C 28.136719 16.089844 32.339844 12.496094 37.507812 12.496094 Z M 56.835938 17.894531 C 61.023438 17.894531 64.429688 20.808594 64.429688 25.507812 C 64.429688 28.105469 63.289062 30.707031 61.550781 32.371094 C 60.234375 33.636719 58.589844 34.378906 56.835938 34.378906 C 55.078125 34.378906 53.433594 33.636719 52.117188 32.371094 C 50.378906 30.707031 49.238281 28.105469 49.238281 25.507812 C 49.238281 20.808594 52.644531 17.894531 56.835938 17.894531 Z M 18.183594 17.894531 C 22.375 17.894531 25.777344 20.808594 25.777344 25.507812 C 25.777344 28.105469 24.636719 30.707031 22.898438 32.371094 C 21.582031 33.636719 19.9375 34.378906 18.183594 34.378906 C 16.425781 34.378906 14.78125 33.636719 13.464844 32.371094 C 11.726562 30.707031 10.585938 28.105469 10.585938 25.507812 C 10.585938 20.808594 13.992188 17.894531 18.183594 17.894531 Z M 17.09375 57.949219 C 10.234375 57.710938 6.695312 55.269531 6.695312 55.269531 C 6.058594 54.847656 5.675781 54.136719 5.675781 53.375 L 5.675781 47.726562 C 5.675781 41.453125 10.761719 36.367188 17.035156 36.367188 L 19.332031 36.367188 C 19.792969 36.367188 20.25 36.398438 20.695312 36.449219 C 18.417969 39.203125 17.046875 42.734375 17.046875 46.589844 L 17.046875 57.148438 C 17.046875 57.417969 17.0625 57.683594 17.09375 57.949219 Z M 54.320312 36.449219 C 54.769531 36.398438 55.222656 36.367188 55.683594 36.367188 L 57.984375 36.367188 C 64.253906 36.367188 69.339844 41.453125 69.339844 47.726562 L 69.339844 53.375 C 69.339844 54.136719 68.957031 54.847656 68.320312 55.269531 C 68.320312 55.269531 64.78125 57.710938 57.921875 57.949219 C 57.957031 57.683594 57.972656 57.417969 57.972656 57.148438 L 57.972656 46.589844 C 57.972656 42.734375 56.601562 39.203125 54.320312 36.449219 Z M 54.320312 36.449219 " fill-opacity="1" fill-rule="evenodd"></path></g></svg> 