<?xml version="1.0" encoding="UTF-8"?> <svg xmlns="http://www.w3.org/2000/svg" xmlns:xlink="http://www.w3.org/1999/xlink" width="175" zoomAndPan="magnify" viewBox="0 0 131.25 131.249998" height="175" preserveAspectRatio="xMidYMid meet" version="1.0"><defs><clipPath id="c14929d2ee"><path d="M 0 0 L 130.503906 0 L 130.503906 130.503906 L 0 130.503906 Z M 0 0 " clip-rule="nonzero"></path></clipPath><clipPath id="5b8175abff"><path d="M 14.21875 13.636719 L 117.132812 13.636719 L 117.132812 116.546875 L 14.21875 116.546875 Z M 14.21875 13.636719 " clip-rule="nonzero"></path></clipPath></defs><g clip-path="url(#c14929d2ee)"><path fill="#ffffff" d="M 0 0 L 130.503906 0 L 130.503906 130.503906 L 0 130.503906 Z M 0 0 " fill-opacity="1" fill-rule="nonzero"></path><path fill="#ffffff" d="M 0 0 L 130.503906 0 L 130.503906 130.503906 L 0 130.503906 Z M 0 0 " fill-opacity="1" fill-rule="nonzero"></path></g><g clip-path="url(#5b8175abff)"><path fill="#026da5" d="M 86.199219 17.570312 C 92.449219 20.148438 97.957031 23.863281 102.585938 28.496094 C 107.21875 33.125 110.933594 38.632812 113.511719 44.882812 C 116.046875 51.089844 117.445312 57.949219 117.445312 65.25 C 117.445312 72.546875 116.046875 79.410156 113.511719 85.613281 C 110.933594 91.863281 107.21875 97.371094 102.585938 102.003906 C 97.957031 106.636719 92.449219 110.351562 86.199219 112.929688 C 79.992188 115.464844 73.132812 116.863281 65.832031 116.863281 C 58.535156 116.863281 51.671875 115.464844 45.46875 112.929688 C 39.21875 110.351562 33.710938 106.636719 29.078125 102.003906 C 24.445312 97.371094 20.730469 91.863281 18.152344 85.613281 C 15.617188 79.410156 14.21875 72.546875 14.21875 65.25 C 14.21875 57.949219 15.617188 51.089844 18.152344 44.882812 C 20.730469 38.632812 24.445312 33.125 29.078125 28.496094 C 33.710938 23.863281 39.21875 20.148438 45.46875 17.570312 C 51.671875 15.035156 58.535156 13.636719 65.832031 13.636719 C 73.132812 13.636719 79.992188 15.035156 86.199219 17.570312 Z M 84.976562 109.824219 C 90.746094 107.464844 95.945312 103.96875 100.273438 99.6875 C 104.554688 95.359375 108.050781 90.160156 110.410156 84.390625 C 112.8125 78.535156 114.125 72.109375 114.125 65.25 C 114.125 58.386719 112.8125 51.964844 110.410156 46.105469 C 108.050781 40.339844 104.554688 35.136719 100.273438 30.8125 C 95.945312 26.527344 90.746094 23.03125 84.976562 20.671875 C 79.121094 18.269531 72.695312 16.957031 65.832031 16.957031 C 58.972656 16.957031 52.546875 18.269531 46.691406 20.671875 C 40.921875 23.03125 35.722656 26.527344 31.394531 30.8125 C 27.113281 35.136719 23.617188 40.339844 21.257812 46.105469 C 18.851562 51.964844 17.542969 58.386719 17.542969 65.25 C 17.542969 72.109375 18.851562 78.535156 21.257812 84.390625 C 23.617188 90.160156 27.113281 95.359375 31.394531 99.6875 C 35.722656 103.96875 40.921875 107.464844 46.691406 109.824219 C 52.546875 112.230469 58.972656 113.539062 65.832031 113.539062 C 72.695312 113.539062 79.121094 112.230469 84.976562 109.824219 Z M 84.976562 109.824219 " fill-opacity="1" fill-rule="evenodd"></path></g><path fill="#026da5" d="M 57.179688 44.359375 C 57.09375 44.359375 57.003906 44.402344 56.917969 44.445312 C 56.699219 44.535156 56.523438 44.664062 56.351562 44.796875 C 56.21875 44.96875 56.085938 45.144531 56 45.363281 C 55.957031 45.449219 55.914062 45.539062 55.914062 45.625 C 55.871094 45.714844 55.871094 45.757812 55.871094 45.84375 L 55.871094 47.550781 L 75.535156 47.550781 L 75.535156 45.84375 C 75.535156 45.757812 75.535156 45.714844 75.492188 45.625 C 75.492188 45.539062 75.449219 45.449219 75.40625 45.363281 C 75.316406 45.1875 75.1875 44.96875 75.011719 44.839844 C 74.835938 44.664062 74.660156 44.535156 74.441406 44.445312 C 74.355469 44.402344 74.269531 44.359375 74.179688 44.359375 C 74.09375 44.316406 74.050781 44.316406 73.960938 44.316406 L 57.398438 44.316406 C 57.3125 44.316406 57.269531 44.316406 57.179688 44.359375 Z M 52.546875 45.84375 C 52.546875 45.496094 52.589844 45.1875 52.679688 44.882812 C 52.722656 44.578125 52.855469 44.269531 52.984375 43.964844 C 53.203125 43.398438 53.597656 42.917969 54.035156 42.480469 C 54.472656 42.042969 54.953125 41.648438 55.519531 41.429688 C 55.824219 41.300781 56.132812 41.167969 56.4375 41.125 C 56.742188 41.039062 57.050781 40.992188 57.398438 40.992188 L 73.960938 40.992188 C 74.3125 40.992188 74.617188 41.039062 74.921875 41.125 C 75.230469 41.167969 75.535156 41.300781 75.839844 41.429688 C 76.410156 41.648438 76.890625 42.042969 77.328125 42.480469 C 77.808594 42.871094 78.15625 43.398438 78.421875 43.964844 C 78.550781 44.226562 78.683594 44.535156 78.726562 44.839844 C 78.8125 45.1875 78.855469 45.496094 78.855469 45.84375 L 78.855469 47.550781 L 90.917969 47.550781 C 93.453125 47.550781 96.03125 50.082031 96.03125 52.617188 L 96.03125 57.207031 L 69.503906 65.902344 C 69.328125 65.816406 69.15625 65.773438 69.023438 65.730469 C 68.847656 65.6875 68.628906 65.6875 68.457031 65.6875 L 62.949219 65.6875 C 62.773438 65.6875 62.554688 65.6875 62.382812 65.730469 C 62.25 65.773438 62.074219 65.816406 61.945312 65.859375 L 35.417969 57.207031 L 35.417969 52.617188 C 35.417969 50.082031 37.949219 47.550781 40.484375 47.550781 L 52.546875 47.550781 Z M 62.90625 67.914062 L 68.5 67.914062 C 68.542969 67.914062 68.585938 67.914062 68.628906 67.914062 C 68.675781 67.957031 68.761719 68 68.804688 68.089844 C 68.894531 68.132812 68.9375 68.21875 68.980469 68.265625 C 68.980469 68.308594 68.980469 68.308594 68.980469 68.351562 L 69.023438 68.394531 L 69.023438 70.273438 L 68.980469 70.316406 C 68.980469 70.363281 68.980469 70.40625 68.980469 70.40625 C 68.9375 70.492188 68.894531 70.582031 68.804688 70.625 C 68.761719 70.710938 68.675781 70.753906 68.585938 70.800781 C 68.585938 70.800781 68.542969 70.800781 68.5 70.800781 L 68.457031 70.84375 L 62.949219 70.84375 L 62.90625 70.800781 C 62.863281 70.800781 62.816406 70.800781 62.816406 70.800781 C 62.730469 70.753906 62.644531 70.710938 62.597656 70.625 C 62.511719 70.582031 62.46875 70.492188 62.425781 70.40625 C 62.425781 70.40625 62.425781 70.363281 62.425781 70.316406 L 62.425781 68.351562 C 62.425781 68.308594 62.425781 68.308594 62.425781 68.265625 C 62.46875 68.21875 62.511719 68.132812 62.597656 68.089844 C 62.644531 68 62.730469 67.957031 62.773438 67.914062 C 62.816406 67.914062 62.863281 67.914062 62.90625 67.914062 Z M 71.164062 67.828125 C 71.164062 67.785156 71.121094 67.738281 71.121094 67.695312 L 96.03125 59.523438 L 96.03125 82.511719 C 96.03125 85.046875 93.453125 87.625 90.917969 87.625 L 40.484375 87.625 C 37.949219 87.625 35.417969 85.046875 35.417969 82.511719 L 35.417969 59.523438 L 60.285156 67.695312 C 60.285156 67.738281 60.238281 67.785156 60.238281 67.828125 C 60.195312 68 60.195312 68.21875 60.195312 68.394531 L 60.195312 70.273438 C 60.195312 70.449219 60.195312 70.667969 60.238281 70.84375 C 60.285156 71.015625 60.328125 71.191406 60.414062 71.367188 C 60.546875 71.671875 60.765625 71.933594 61.027344 72.199219 C 61.289062 72.460938 61.550781 72.679688 61.855469 72.808594 C 62.03125 72.898438 62.207031 72.941406 62.382812 72.984375 C 62.554688 73.027344 62.773438 73.070312 62.949219 73.070312 L 68.457031 73.070312 C 68.628906 73.070312 68.847656 73.027344 69.023438 72.984375 C 69.199219 72.941406 69.375 72.898438 69.546875 72.808594 C 69.855469 72.679688 70.117188 72.460938 70.378906 72.199219 C 70.640625 71.933594 70.859375 71.671875 70.992188 71.367188 C 71.078125 71.191406 71.121094 71.015625 71.164062 70.84375 C 71.210938 70.667969 71.253906 70.449219 71.253906 70.273438 L 71.253906 68.394531 C 71.253906 68.21875 71.210938 68 71.164062 67.828125 Z M 71.164062 67.828125 " fill-opacity="1" fill-rule="evenodd"></path></svg> 