<?xml version="1.0" encoding="UTF-8"?> <svg xmlns="http://www.w3.org/2000/svg" xmlns:xlink="http://www.w3.org/1999/xlink" width="100" zoomAndPan="magnify" viewBox="0 0 75 74.999997" height="100" preserveAspectRatio="xMidYMid meet" version="1.0"><defs><clipPath id="22c71bc0d8"><path d="M 8.03125 8.03125 L 67 8.03125 L 67 67 L 8.03125 67 Z M 8.03125 8.03125 " clip-rule="nonzero"></path></clipPath></defs><g clip-path="url(#22c71bc0d8)"><path fill="#026da5" d="M 62.042969 8.03125 L 12.984375 8.03125 C 10.273438 8.03125 8.089844 10.242188 8.089844 12.925781 L 8.089844 62.070312 C 8.089844 64.785156 10.300781 66.964844 12.984375 66.964844 L 62.011719 66.964844 C 64.726562 66.964844 66.90625 64.753906 66.90625 62.070312 L 66.90625 12.925781 C 66.9375 10.242188 64.753906 8.03125 62.042969 8.03125 Z M 25.515625 56.648438 L 16.816406 56.648438 L 16.816406 30.527344 L 25.515625 30.527344 Z M 21.152344 27.371094 C 18.410156 27.371094 16.199219 25.160156 16.199219 22.417969 C 16.199219 19.675781 18.410156 17.464844 21.152344 17.464844 C 23.894531 17.464844 26.105469 19.675781 26.105469 22.417969 C 26.105469 25.160156 23.894531 27.371094 21.152344 27.371094 Z M 58.238281 56.648438 L 49.511719 56.648438 L 49.304688 41.140625 C 49.304688 41.140625 49.511719 37.011719 45.003906 37.042969 C 40.492188 37.070312 39.871094 41.140625 39.871094 41.140625 L 39.871094 56.648438 L 31.085938 56.648438 L 31.085938 30.527344 L 39.519531 30.527344 L 39.519531 34.125 C 39.519531 34.125 39.871094 32.945312 41.816406 31.558594 C 43.765625 30.171875 46.976562 29.878906 48.363281 29.9375 C 49.75 29.996094 51.636719 29.761719 54.789062 31.941406 C 58.179688 34.269531 58.269531 40.375 58.269531 40.375 Z M 58.238281 56.648438 " fill-opacity="1" fill-rule="nonzero"></path></g></svg> 