<?xml version="1.0" encoding="UTF-8"?> <svg xmlns="http://www.w3.org/2000/svg" xmlns:xlink="http://www.w3.org/1999/xlink" width="175" zoomAndPan="magnify" viewBox="0 0 131.25 131.249998" height="175" preserveAspectRatio="xMidYMid meet" version="1.0"><defs><clipPath id="b95929cada"><path d="M 0 0 L 130.503906 0 L 130.503906 130.503906 L 0 130.503906 Z M 0 0 " clip-rule="nonzero"></path></clipPath><clipPath id="e9eaea1329"><path d="M 8.90625 12.445312 L 121.511719 12.445312 L 121.511719 94 L 8.90625 94 Z M 8.90625 12.445312 " clip-rule="nonzero"></path></clipPath><clipPath id="7c5e414c61"><path d="M 44 98 L 87 98 L 87 115.359375 L 44 115.359375 Z M 44 98 " clip-rule="nonzero"></path></clipPath></defs><g clip-path="url(#b95929cada)"><path fill="#ffffff" d="M 0 0 L 130.503906 0 L 130.503906 130.503906 L 0 130.503906 Z M 0 0 " fill-opacity="1" fill-rule="nonzero"></path><path fill="#ffffff" d="M 0 0 L 130.503906 0 L 130.503906 130.503906 L 0 130.503906 Z M 0 0 " fill-opacity="1" fill-rule="nonzero"></path></g><g clip-path="url(#e9eaea1329)"><path fill="#026da5" d="M 121.058594 18.78125 C 120.539062 17.539062 119.769531 16.410156 118.84375 15.484375 C 117.917969 14.558594 116.789062 13.789062 115.570312 13.269531 C 114.324219 12.773438 112.949219 12.480469 111.523438 12.480469 C 88.457031 12.480469 88.457031 12.480469 88.457031 12.480469 C 65.386719 12.480469 65.386719 12.480469 65.386719 12.480469 C 42.320312 12.480469 42.320312 12.480469 42.320312 12.480469 C 19.253906 12.480469 19.253906 12.480469 19.253906 12.480469 C 17.828125 12.480469 16.449219 12.773438 15.207031 13.292969 C 13.988281 13.8125 12.859375 14.578125 11.933594 15.507812 C 10.984375 16.433594 10.238281 17.5625 9.71875 18.804688 C 9.199219 20.023438 8.90625 21.378906 8.90625 22.828125 C 8.90625 38.03125 8.90625 38.03125 8.90625 38.03125 C 8.90625 53.214844 8.90625 53.214844 8.90625 53.214844 C 8.90625 68.398438 8.90625 68.398438 8.90625 68.398438 C 8.90625 83.601562 8.90625 83.601562 8.90625 83.601562 C 8.90625 85.050781 9.199219 86.40625 9.71875 87.648438 C 10.238281 88.890625 11.003906 90.019531 11.933594 90.945312 C 12.882812 91.871094 13.988281 92.640625 15.207031 93.160156 C 16.449219 93.679688 17.828125 93.972656 19.253906 93.972656 C 42.320312 93.972656 42.320312 93.972656 42.320312 93.972656 C 65.386719 93.972656 65.386719 93.972656 65.386719 93.972656 C 88.457031 93.972656 88.457031 93.972656 88.457031 93.972656 C 111.523438 93.972656 111.523438 93.972656 111.523438 93.972656 C 112.949219 93.972656 114.324219 93.679688 115.570312 93.160156 C 116.789062 92.640625 117.917969 91.871094 118.84375 90.945312 C 119.792969 90.019531 120.539062 88.890625 121.058594 87.648438 C 121.578125 86.40625 121.871094 85.050781 121.871094 83.601562 C 121.871094 68.398438 121.871094 68.398438 121.871094 68.398438 C 121.871094 53.214844 121.871094 53.214844 121.871094 53.214844 C 121.871094 38.03125 121.871094 38.03125 121.871094 38.03125 C 121.871094 22.828125 121.871094 22.828125 121.871094 22.828125 C 121.871094 21.378906 121.578125 20.023438 121.058594 18.78125 Z M 14.035156 42.371094 L 47.132812 42.371094 L 47.132812 64.082031 L 14.035156 64.082031 C 14.035156 53.238281 14.035156 53.238281 14.035156 53.238281 C 14.035156 48.085938 14.035156 44.652344 14.035156 42.371094 Z M 49.390625 42.371094 L 81.363281 42.371094 L 81.363281 64.082031 L 49.390625 64.082031 Z M 83.644531 42.371094 L 116.742188 42.371094 C 116.742188 53.214844 116.742188 53.214844 116.742188 53.214844 C 116.742188 58.367188 116.742188 61.777344 116.742188 64.058594 L 83.644531 64.058594 Z M 88.523438 17.269531 C 111.660156 17.269531 111.660156 17.269531 111.660156 17.269531 C 112.382812 17.269531 113.039062 17.402344 113.648438 17.675781 C 114.257812 17.945312 114.800781 18.308594 115.253906 18.761719 C 115.703125 19.234375 116.089844 19.777344 116.335938 20.363281 C 116.585938 20.972656 116.742188 21.652344 116.742188 22.351562 C 116.742188 37.785156 116.742188 37.785156 116.742188 37.785156 C 116.742188 38.597656 116.742188 39.363281 116.742188 40.109375 L 83.644531 40.109375 L 83.644531 17.269531 C 88.523438 17.269531 88.523438 17.269531 88.523438 17.269531 Z M 65.386719 17.269531 C 72.890625 17.269531 77.949219 17.269531 81.382812 17.269531 L 81.382812 40.109375 L 49.390625 40.109375 L 49.390625 17.269531 C 65.386719 17.269531 65.386719 17.269531 65.386719 17.269531 Z M 14.035156 22.351562 C 14.035156 21.652344 14.167969 20.972656 14.441406 20.363281 C 14.6875 19.777344 15.074219 19.210938 15.523438 18.761719 C 16 18.308594 16.542969 17.925781 17.152344 17.675781 C 17.761719 17.425781 18.4375 17.269531 19.140625 17.269531 C 42.253906 17.269531 42.253906 17.269531 42.253906 17.269531 C 44.015625 17.269531 45.640625 17.269531 47.132812 17.269531 L 47.132812 40.109375 L 14.035156 40.109375 C 14.035156 37.785156 14.035156 37.785156 14.035156 37.785156 C 14.035156 22.351562 14.035156 22.351562 14.035156 22.351562 Z M 42.253906 89.160156 C 19.140625 89.160156 19.140625 89.160156 19.140625 89.160156 C 18.417969 89.160156 17.761719 89.027344 17.152344 88.753906 C 16.542969 88.507812 16 88.144531 15.523438 87.671875 C 15.074219 87.21875 14.6875 86.675781 14.441406 86.066406 C 14.167969 85.457031 14.035156 84.777344 14.035156 84.078125 C 14.035156 68.644531 14.035156 68.644531 14.035156 68.644531 C 14.035156 67.832031 14.035156 67.066406 14.035156 66.34375 L 47.132812 66.34375 L 47.132812 89.183594 C 42.253906 89.160156 42.253906 89.160156 42.253906 89.160156 Z M 49.390625 89.160156 L 49.390625 66.320312 L 81.363281 66.320312 L 81.363281 89.160156 C 65.367188 89.160156 65.367188 89.160156 65.367188 89.160156 C 57.886719 89.160156 52.828125 89.160156 49.390625 89.160156 Z M 116.742188 84.078125 C 116.742188 84.777344 116.585938 85.457031 116.335938 86.066406 C 116.089844 86.675781 115.703125 87.21875 115.253906 87.671875 C 114.777344 88.144531 114.234375 88.507812 113.648438 88.753906 C 113.039062 89.027344 112.359375 89.160156 111.660156 89.160156 C 88.523438 89.160156 88.523438 89.160156 88.523438 89.160156 C 86.761719 89.160156 85.136719 89.160156 83.644531 89.160156 L 83.644531 66.320312 L 116.742188 66.320312 C 116.742188 68.625 116.742188 68.625 116.742188 68.625 Z M 116.742188 84.078125 " fill-opacity="1" fill-rule="nonzero"></path></g><g clip-path="url(#7c5e414c61)"><path fill="#026da5" d="M 83.894531 109.472656 C 76.1875 109.472656 76.1875 109.472656 76.1875 109.472656 C 76.1875 100.300781 76.1875 100.300781 76.1875 100.300781 C 76.1875 99.148438 75.261719 98.199219 74.109375 98.199219 C 56.757812 98.199219 56.734375 98.199219 56.734375 98.199219 C 55.558594 98.199219 54.632812 99.148438 54.632812 100.300781 C 54.632812 109.472656 54.632812 109.472656 54.632812 109.472656 C 46.816406 109.472656 46.816406 109.472656 46.816406 109.472656 C 45.394531 109.472656 44.285156 110.625 44.285156 112.027344 C 44.285156 113.109375 44.285156 113.109375 44.285156 113.109375 C 44.285156 114.535156 45.394531 115.640625 46.816406 115.640625 C 83.914062 115.640625 83.914062 115.640625 83.914062 115.640625 C 85.339844 115.640625 86.46875 114.535156 86.46875 113.109375 C 86.46875 112.027344 86.46875 112.027344 86.46875 112.027344 C 86.421875 110.601562 85.292969 109.472656 83.894531 109.472656 Z M 83.894531 109.472656 " fill-opacity="1" fill-rule="nonzero"></path></g><path fill="#026da5" d="M 34.820312 25.265625 C 34.820312 25.753906 34.726562 26.21875 34.539062 26.667969 C 34.355469 27.117188 34.089844 27.511719 33.746094 27.855469 C 33.402344 28.199219 33.007812 28.460938 32.558594 28.648438 C 32.113281 28.835938 31.644531 28.925781 31.160156 28.925781 C 30.675781 28.925781 30.207031 28.835938 29.757812 28.648438 C 29.308594 28.460938 28.914062 28.199219 28.570312 27.855469 C 28.226562 27.511719 27.964844 27.117188 27.777344 26.667969 C 27.59375 26.21875 27.5 25.753906 27.5 25.265625 C 27.5 24.78125 27.59375 24.316406 27.777344 23.867188 C 27.964844 23.417969 28.226562 23.023438 28.570312 22.679688 C 28.914062 22.335938 29.308594 22.070312 29.757812 21.886719 C 30.207031 21.699219 30.675781 21.605469 31.160156 21.605469 C 31.644531 21.605469 32.113281 21.699219 32.558594 21.886719 C 33.007812 22.070312 33.402344 22.335938 33.746094 22.679688 C 34.089844 23.023438 34.355469 23.417969 34.539062 23.867188 C 34.726562 24.316406 34.820312 24.78125 34.820312 25.265625 Z M 34.820312 25.265625 " fill-opacity="1" fill-rule="nonzero"></path><path fill="#026da5" d="M 25.714844 36.902344 L 36.605469 36.902344 C 37.035156 36.902344 37.371094 36.519531 37.328125 36.089844 C 36.921875 33.039062 34.324219 30.6875 31.183594 30.6875 C 28.042969 30.6875 25.398438 33.039062 24.992188 36.066406 C 24.945312 36.496094 25.261719 36.902344 25.714844 36.902344 Z M 25.714844 36.902344 " fill-opacity="1" fill-rule="nonzero"></path><path fill="#026da5" d="M 69.046875 25.265625 C 69.046875 25.753906 68.957031 26.21875 68.769531 26.667969 C 68.585938 27.117188 68.320312 27.511719 67.976562 27.855469 C 67.632812 28.199219 67.238281 28.460938 66.789062 28.648438 C 66.339844 28.835938 65.875 28.925781 65.386719 28.925781 C 64.902344 28.925781 64.4375 28.835938 63.988281 28.648438 C 63.539062 28.460938 63.144531 28.199219 62.800781 27.855469 C 62.457031 27.511719 62.191406 27.117188 62.007812 26.667969 C 61.820312 26.21875 61.726562 25.753906 61.726562 25.265625 C 61.726562 24.78125 61.820312 24.316406 62.007812 23.867188 C 62.191406 23.417969 62.457031 23.023438 62.800781 22.679688 C 63.144531 22.335938 63.539062 22.070312 63.988281 21.886719 C 64.4375 21.699219 64.902344 21.605469 65.386719 21.605469 C 65.875 21.605469 66.339844 21.699219 66.789062 21.886719 C 67.238281 22.070312 67.632812 22.335938 67.976562 22.679688 C 68.320312 23.023438 68.585938 23.417969 68.769531 23.867188 C 68.957031 24.316406 69.046875 24.78125 69.046875 25.265625 Z M 69.046875 25.265625 " fill-opacity="1" fill-rule="nonzero"></path><path fill="#026da5" d="M 59.945312 36.902344 L 70.832031 36.902344 C 71.261719 36.902344 71.601562 36.519531 71.554688 36.089844 C 71.148438 33.039062 68.527344 30.6875 65.386719 30.6875 C 62.246094 30.6875 59.628906 33.039062 59.242188 36.089844 C 59.175781 36.496094 59.515625 36.902344 59.945312 36.902344 Z M 59.945312 36.902344 " fill-opacity="1" fill-rule="nonzero"></path><path fill="#026da5" d="M 103.277344 25.265625 C 103.277344 25.753906 103.183594 26.21875 103 26.667969 C 102.8125 27.117188 102.550781 27.511719 102.207031 27.855469 C 101.863281 28.199219 101.46875 28.460938 101.019531 28.648438 C 100.570312 28.835938 100.101562 28.925781 99.617188 28.925781 C 99.132812 28.925781 98.664062 28.835938 98.21875 28.648438 C 97.769531 28.460938 97.371094 28.199219 97.03125 27.855469 C 96.6875 27.511719 96.421875 27.117188 96.234375 26.667969 C 96.050781 26.21875 95.957031 25.753906 95.957031 25.265625 C 95.957031 24.78125 96.050781 24.316406 96.234375 23.867188 C 96.421875 23.417969 96.6875 23.023438 97.03125 22.679688 C 97.371094 22.335938 97.769531 22.070312 98.21875 21.886719 C 98.664062 21.699219 99.132812 21.605469 99.617188 21.605469 C 100.101562 21.605469 100.570312 21.699219 101.019531 21.886719 C 101.46875 22.070312 101.863281 22.335938 102.207031 22.679688 C 102.550781 23.023438 102.8125 23.417969 103 23.867188 C 103.183594 24.316406 103.277344 24.78125 103.277344 25.265625 Z M 103.277344 25.265625 " fill-opacity="1" fill-rule="nonzero"></path><path fill="#026da5" d="M 94.171875 36.902344 L 105.0625 36.902344 C 105.492188 36.902344 105.832031 36.519531 105.785156 36.089844 C 105.378906 33.039062 102.78125 30.6875 99.617188 30.6875 C 96.453125 30.6875 93.855469 33.039062 93.472656 36.089844 C 93.40625 36.496094 93.742188 36.902344 94.171875 36.902344 Z M 94.171875 36.902344 " fill-opacity="1" fill-rule="nonzero"></path><path fill="#026da5" d="M 34.820312 49.238281 C 34.820312 49.722656 34.726562 50.191406 34.539062 50.640625 C 34.355469 51.085938 34.089844 51.484375 33.746094 51.828125 C 33.402344 52.167969 33.007812 52.433594 32.558594 52.621094 C 32.113281 52.804688 31.644531 52.898438 31.160156 52.898438 C 30.675781 52.898438 30.207031 52.804688 29.757812 52.621094 C 29.308594 52.433594 28.914062 52.167969 28.570312 51.828125 C 28.226562 51.484375 27.964844 51.085938 27.777344 50.640625 C 27.59375 50.191406 27.5 49.722656 27.5 49.238281 C 27.5 48.753906 27.59375 48.285156 27.777344 47.835938 C 27.964844 47.390625 28.226562 46.992188 28.570312 46.652344 C 28.914062 46.308594 29.308594 46.042969 29.757812 45.855469 C 30.207031 45.671875 30.675781 45.578125 31.160156 45.578125 C 31.644531 45.578125 32.113281 45.671875 32.558594 45.855469 C 33.007812 46.042969 33.402344 46.308594 33.746094 46.652344 C 34.089844 46.992188 34.355469 47.390625 34.539062 47.835938 C 34.726562 48.285156 34.820312 48.753906 34.820312 49.238281 Z M 34.820312 49.238281 " fill-opacity="1" fill-rule="nonzero"></path><path fill="#026da5" d="M 25.714844 60.851562 L 36.605469 60.851562 C 37.035156 60.851562 37.371094 60.46875 37.328125 60.039062 C 36.921875 56.988281 34.324219 54.636719 31.183594 54.636719 C 28.042969 54.636719 25.398438 56.988281 24.992188 60.039062 C 24.945312 60.46875 25.261719 60.851562 25.714844 60.851562 Z M 25.714844 60.851562 " fill-opacity="1" fill-rule="nonzero"></path><path fill="#026da5" d="M 69.046875 49.238281 C 69.046875 49.722656 68.957031 50.191406 68.769531 50.640625 C 68.585938 51.085938 68.320312 51.484375 67.976562 51.828125 C 67.632812 52.167969 67.238281 52.433594 66.789062 52.621094 C 66.339844 52.804688 65.875 52.898438 65.386719 52.898438 C 64.902344 52.898438 64.4375 52.804688 63.988281 52.621094 C 63.539062 52.433594 63.144531 52.167969 62.800781 51.828125 C 62.457031 51.484375 62.191406 51.085938 62.007812 50.640625 C 61.820312 50.191406 61.726562 49.722656 61.726562 49.238281 C 61.726562 48.753906 61.820312 48.285156 62.007812 47.835938 C 62.191406 47.390625 62.457031 46.992188 62.800781 46.652344 C 63.144531 46.308594 63.539062 46.042969 63.988281 45.855469 C 64.4375 45.671875 64.902344 45.578125 65.386719 45.578125 C 65.875 45.578125 66.339844 45.671875 66.789062 45.855469 C 67.238281 46.042969 67.632812 46.308594 67.976562 46.652344 C 68.320312 46.992188 68.585938 47.390625 68.769531 47.835938 C 68.957031 48.285156 69.046875 48.753906 69.046875 49.238281 Z M 69.046875 49.238281 " fill-opacity="1" fill-rule="nonzero"></path><path fill="#026da5" d="M 71.535156 60.039062 C 71.128906 56.988281 68.527344 54.636719 65.386719 54.636719 C 62.246094 54.636719 59.628906 56.988281 59.242188 60.039062 C 59.175781 60.46875 59.515625 60.851562 59.964844 60.851562 L 70.855469 60.851562 C 71.261719 60.851562 71.601562 60.46875 71.535156 60.039062 Z M 71.535156 60.039062 " fill-opacity="1" fill-rule="nonzero"></path><path fill="#026da5" d="M 103.277344 49.238281 C 103.277344 49.722656 103.183594 50.191406 103 50.640625 C 102.8125 51.085938 102.550781 51.484375 102.207031 51.828125 C 101.863281 52.167969 101.46875 52.433594 101.019531 52.621094 C 100.570312 52.804688 100.101562 52.898438 99.617188 52.898438 C 99.132812 52.898438 98.664062 52.804688 98.21875 52.621094 C 97.769531 52.433594 97.371094 52.167969 97.03125 51.828125 C 96.6875 51.484375 96.421875 51.085938 96.234375 50.640625 C 96.050781 50.191406 95.957031 49.722656 95.957031 49.238281 C 95.957031 48.753906 96.050781 48.285156 96.234375 47.835938 C 96.421875 47.390625 96.6875 46.992188 97.03125 46.652344 C 97.371094 46.308594 97.769531 46.042969 98.21875 45.855469 C 98.664062 45.671875 99.132812 45.578125 99.617188 45.578125 C 100.101562 45.578125 100.570312 45.671875 101.019531 45.855469 C 101.46875 46.042969 101.863281 46.308594 102.207031 46.652344 C 102.550781 46.992188 102.8125 47.390625 103 47.835938 C 103.183594 48.285156 103.277344 48.753906 103.277344 49.238281 Z M 103.277344 49.238281 " fill-opacity="1" fill-rule="nonzero"></path><path fill="#026da5" d="M 105.785156 60.039062 C 105.378906 56.988281 102.78125 54.636719 99.640625 54.636719 C 96.5 54.636719 93.878906 56.988281 93.496094 60.039062 C 93.425781 60.46875 93.765625 60.851562 94.21875 60.851562 L 105.109375 60.851562 C 105.515625 60.851562 105.832031 60.46875 105.785156 60.039062 Z M 105.785156 60.039062 " fill-opacity="1" fill-rule="nonzero"></path><path fill="#026da5" d="M 34.820312 73.210938 C 34.820312 73.695312 34.726562 74.164062 34.539062 74.609375 C 34.355469 75.058594 34.089844 75.457031 33.746094 75.796875 C 33.402344 76.140625 33.007812 76.40625 32.558594 76.59375 C 32.113281 76.777344 31.644531 76.871094 31.160156 76.871094 C 30.675781 76.871094 30.207031 76.777344 29.757812 76.59375 C 29.308594 76.40625 28.914062 76.140625 28.570312 75.796875 C 28.226562 75.457031 27.964844 75.058594 27.777344 74.609375 C 27.59375 74.164062 27.5 73.695312 27.5 73.210938 C 27.5 72.726562 27.59375 72.257812 27.777344 71.808594 C 27.964844 71.359375 28.226562 70.964844 28.570312 70.621094 C 28.914062 70.277344 29.308594 70.015625 29.757812 69.828125 C 30.207031 69.644531 30.675781 69.550781 31.160156 69.550781 C 31.644531 69.550781 32.113281 69.644531 32.558594 69.828125 C 33.007812 70.015625 33.402344 70.277344 33.746094 70.621094 C 34.089844 70.964844 34.355469 71.359375 34.539062 71.808594 C 34.726562 72.257812 34.820312 72.726562 34.820312 73.210938 Z M 34.820312 73.210938 " fill-opacity="1" fill-rule="nonzero"></path><path fill="#026da5" d="M 31.160156 78.609375 C 28.019531 78.609375 25.398438 80.960938 25.015625 84.011719 C 24.945312 84.4375 25.285156 84.824219 25.738281 84.824219 L 36.625 84.824219 C 37.054688 84.824219 37.394531 84.4375 37.351562 84.011719 C 36.898438 80.960938 34.300781 78.609375 31.160156 78.609375 Z M 31.160156 78.609375 " fill-opacity="1" fill-rule="nonzero"></path><path fill="#026da5" d="M 69.046875 73.210938 C 69.046875 73.695312 68.957031 74.164062 68.769531 74.609375 C 68.585938 75.058594 68.320312 75.457031 67.976562 75.796875 C 67.632812 76.140625 67.238281 76.40625 66.789062 76.59375 C 66.339844 76.777344 65.875 76.871094 65.386719 76.871094 C 64.902344 76.871094 64.4375 76.777344 63.988281 76.59375 C 63.539062 76.40625 63.144531 76.140625 62.800781 75.796875 C 62.457031 75.457031 62.191406 75.058594 62.007812 74.609375 C 61.820312 74.164062 61.726562 73.695312 61.726562 73.210938 C 61.726562 72.726562 61.820312 72.257812 62.007812 71.808594 C 62.191406 71.359375 62.457031 70.964844 62.800781 70.621094 C 63.144531 70.277344 63.539062 70.015625 63.988281 69.828125 C 64.4375 69.644531 64.902344 69.550781 65.386719 69.550781 C 65.875 69.550781 66.339844 69.644531 66.789062 69.828125 C 67.238281 70.015625 67.632812 70.277344 67.976562 70.621094 C 68.320312 70.964844 68.585938 71.359375 68.769531 71.808594 C 68.957031 72.257812 69.046875 72.726562 69.046875 73.210938 Z M 69.046875 73.210938 " fill-opacity="1" fill-rule="nonzero"></path><path fill="#026da5" d="M 71.535156 84.011719 C 71.128906 80.960938 68.527344 78.609375 65.386719 78.609375 C 62.246094 78.609375 59.628906 80.960938 59.242188 84.011719 C 59.175781 84.4375 59.515625 84.824219 59.964844 84.824219 L 70.855469 84.824219 C 71.261719 84.824219 71.601562 84.4375 71.535156 84.011719 Z M 71.535156 84.011719 " fill-opacity="1" fill-rule="nonzero"></path><path fill="#026da5" d="M 103.277344 73.210938 C 103.277344 73.695312 103.183594 74.164062 103 74.609375 C 102.8125 75.058594 102.550781 75.457031 102.207031 75.796875 C 101.863281 76.140625 101.46875 76.40625 101.019531 76.59375 C 100.570312 76.777344 100.101562 76.871094 99.617188 76.871094 C 99.132812 76.871094 98.664062 76.777344 98.21875 76.59375 C 97.769531 76.40625 97.371094 76.140625 97.03125 75.796875 C 96.6875 75.457031 96.421875 75.058594 96.234375 74.609375 C 96.050781 74.164062 95.957031 73.695312 95.957031 73.210938 C 95.957031 72.726562 96.050781 72.257812 96.234375 71.808594 C 96.421875 71.359375 96.6875 70.964844 97.03125 70.621094 C 97.371094 70.277344 97.769531 70.015625 98.21875 69.828125 C 98.664062 69.644531 99.132812 69.550781 99.617188 69.550781 C 100.101562 69.550781 100.570312 69.644531 101.019531 69.828125 C 101.46875 70.015625 101.863281 70.277344 102.207031 70.621094 C 102.550781 70.964844 102.8125 71.359375 103 71.808594 C 103.183594 72.257812 103.277344 72.726562 103.277344 73.210938 Z M 103.277344 73.210938 " fill-opacity="1" fill-rule="nonzero"></path><path fill="#026da5" d="M 99.617188 78.609375 C 96.476562 78.609375 93.855469 80.960938 93.472656 84.011719 C 93.40625 84.4375 93.742188 84.824219 94.195312 84.824219 L 105.085938 84.824219 C 105.515625 84.824219 105.855469 84.4375 105.808594 84.011719 C 105.378906 80.960938 102.78125 78.609375 99.617188 78.609375 Z M 99.617188 78.609375 " fill-opacity="1" fill-rule="nonzero"></path></svg> 