<?xml version="1.0" encoding="UTF-8"?> <svg xmlns="http://www.w3.org/2000/svg" xmlns:xlink="http://www.w3.org/1999/xlink" width="175" zoomAndPan="magnify" viewBox="0 0 131.25 131.249998" height="175" preserveAspectRatio="xMidYMid meet" version="1.0"><defs><clipPath id="027cbec59b"><path d="M 0 0 L 130.503906 0 L 130.503906 130.503906 L 0 130.503906 Z M 0 0 " clip-rule="nonzero"></path></clipPath></defs><g clip-path="url(#027cbec59b)"><path fill="#ffffff" d="M 0 0 L 130.503906 0 L 130.503906 130.503906 L 0 130.503906 Z M 0 0 " fill-opacity="1" fill-rule="nonzero"></path><path fill="#ffffff" d="M 0 0 L 130.503906 0 L 130.503906 130.503906 L 0 130.503906 Z M 0 0 " fill-opacity="1" fill-rule="nonzero"></path></g><path fill="#026da5" d="M 96.609375 65.519531 C 96.820312 65.519531 97.027344 65.476562 97.222656 65.394531 C 97.421875 65.3125 97.59375 65.199219 97.746094 65.046875 C 97.894531 64.898438 98.011719 64.722656 98.09375 64.527344 C 98.175781 64.328125 98.214844 64.125 98.214844 63.910156 C 98.214844 63.699219 98.175781 63.492188 98.09375 63.296875 C 98.011719 63.101562 97.894531 62.925781 97.746094 62.773438 C 97.59375 62.625 97.421875 62.507812 97.222656 62.425781 C 97.027344 62.34375 96.820312 62.304688 96.609375 62.304688 L 89.386719 62.304688 C 89.175781 62.304688 88.96875 62.34375 88.773438 62.425781 C 88.574219 62.507812 88.402344 62.625 88.25 62.773438 C 88.101562 62.925781 87.984375 63.101562 87.902344 63.296875 C 87.820312 63.492188 87.78125 63.699219 87.78125 63.910156 C 87.78125 64.125 87.820312 64.328125 87.902344 64.527344 C 87.984375 64.722656 88.101562 64.898438 88.25 65.046875 C 88.402344 65.199219 88.574219 65.3125 88.773438 65.394531 C 88.96875 65.476562 89.175781 65.519531 89.386719 65.519531 Z M 96.609375 65.519531 " fill-opacity="1" fill-rule="nonzero"></path><path fill="#026da5" d="M 65.449219 14.789062 C 61.128906 14.789062 56.886719 15.347656 52.714844 16.472656 C 48.546875 17.59375 44.59375 19.242188 40.859375 21.414062 C 40.503906 20.75 40.003906 20.222656 39.355469 19.835938 C 38.707031 19.453125 38.003906 19.261719 37.25 19.265625 C 36.957031 19.269531 36.664062 19.300781 36.378906 19.363281 C 36.089844 19.425781 35.816406 19.519531 35.546875 19.640625 C 35.28125 19.761719 35.027344 19.910156 34.792969 20.085938 C 34.558594 20.261719 34.34375 20.460938 34.148438 20.683594 C 33.953125 20.902344 33.785156 21.140625 33.644531 21.398438 C 33.5 21.65625 33.386719 21.925781 33.300781 22.203125 C 33.214844 22.484375 33.160156 22.773438 33.132812 23.066406 C 33.109375 23.359375 33.113281 23.652344 33.152344 23.941406 L 34.125 31.742188 C 34.15625 32.023438 34.253906 32.277344 34.421875 32.503906 C 34.589844 32.730469 34.804688 32.898438 35.066406 33.003906 L 38.0625 34.359375 C 38.269531 34.445312 38.488281 34.488281 38.710938 34.484375 C 39.09375 34.496094 39.4375 34.386719 39.738281 34.148438 C 40.039062 33.914062 40.230469 33.609375 40.3125 33.238281 C 40.394531 32.863281 40.347656 32.507812 40.171875 32.167969 C 39.996094 31.828125 39.734375 31.582031 39.378906 31.433594 L 37.195312 30.460938 L 36.328125 23.546875 C 36.285156 23.195312 36.402344 22.90625 36.671875 22.679688 C 36.839844 22.542969 37.035156 22.476562 37.25 22.480469 C 37.382812 22.453125 37.515625 22.453125 37.648438 22.480469 C 37.992188 22.625 38.175781 22.882812 38.207031 23.257812 L 38.640625 27.824219 C 38.667969 28.121094 38.769531 28.390625 38.949219 28.632812 C 39.125 28.871094 39.355469 29.046875 39.632812 29.160156 L 45.050781 31.363281 C 45.199219 31.421875 45.328125 31.519531 45.429688 31.644531 C 45.535156 31.773438 45.601562 31.914062 45.628906 32.078125 C 45.660156 32.238281 45.648438 32.394531 45.59375 32.550781 C 45.542969 32.707031 45.457031 32.839844 45.335938 32.949219 L 45.011719 33.238281 C 44.828125 33.40625 44.613281 33.492188 44.363281 33.492188 L 44.039062 33.492188 C 43.84375 33.492188 43.65625 33.527344 43.476562 33.59375 C 43.292969 33.664062 43.128906 33.761719 42.984375 33.890625 C 42.835938 34.015625 42.71875 34.167969 42.625 34.335938 C 42.535156 34.507812 42.476562 34.691406 42.449219 34.882812 C 42.421875 35.09375 42.4375 35.300781 42.496094 35.507812 C 42.550781 35.714844 42.644531 35.902344 42.773438 36.070312 C 42.90625 36.238281 43.0625 36.375 43.246094 36.484375 C 43.429688 36.589844 43.628906 36.660156 43.839844 36.6875 L 44.363281 36.6875 C 45.445312 36.683594 46.382812 36.316406 47.179688 35.585938 L 47.503906 35.28125 C 47.894531 34.914062 48.203125 34.492188 48.433594 34.011719 C 48.660156 33.527344 48.789062 33.023438 48.824219 32.488281 C 48.859375 31.957031 48.792969 31.4375 48.625 30.929688 C 48.460938 30.425781 48.207031 29.964844 47.863281 29.554688 C 48.539062 29.210938 49.222656 28.882812 49.914062 28.578125 C 50.609375 28.273438 51.308594 27.988281 52.019531 27.722656 C 52.726562 27.460938 53.445312 27.21875 54.167969 26.996094 C 54.894531 26.773438 55.621094 26.574219 56.359375 26.394531 C 57.09375 26.214844 57.835938 26.058594 58.582031 25.925781 C 59.324219 25.789062 60.074219 25.675781 60.824219 25.585938 C 61.578125 25.496094 62.332031 25.425781 63.085938 25.378906 C 63.84375 25.335938 64.601562 25.3125 65.355469 25.308594 C 66.113281 25.308594 66.871094 25.328125 67.625 25.371094 C 68.382812 25.414062 69.136719 25.480469 69.890625 25.570312 C 70.640625 25.65625 71.390625 25.765625 72.136719 25.898438 C 72.882812 26.03125 73.621094 26.183594 74.359375 26.359375 C 75.09375 26.535156 75.824219 26.734375 76.550781 26.953125 C 77.277344 27.171875 77.992188 27.414062 78.703125 27.675781 C 79.414062 27.9375 80.117188 28.21875 80.8125 28.523438 C 81.503906 28.824219 82.1875 29.148438 82.863281 29.492188 C 83.539062 29.835938 84.203125 30.199219 84.855469 30.582031 C 85.511719 30.964844 86.152344 31.367188 86.78125 31.785156 C 87.410156 32.207031 88.027344 32.644531 88.632812 33.101562 C 89.234375 33.558594 89.824219 34.035156 90.398438 34.527344 C 90.976562 35.019531 91.535156 35.527344 92.082031 36.050781 C 92.628906 36.578125 93.15625 37.117188 93.671875 37.675781 C 94.183594 38.230469 94.679688 38.800781 95.160156 39.386719 C 95.640625 39.972656 96.101562 40.574219 96.546875 41.1875 C 96.992188 41.800781 97.417969 42.425781 97.824219 43.0625 C 98.234375 43.703125 98.621094 44.351562 98.988281 45.011719 C 99.359375 45.675781 99.707031 46.347656 100.039062 47.027344 C 100.367188 47.710938 100.675781 48.402344 100.964844 49.101562 C 101.253906 49.800781 101.519531 50.507812 101.765625 51.226562 C 102.011719 51.941406 102.238281 52.664062 102.441406 53.394531 C 102.648438 54.121094 102.828125 54.855469 102.988281 55.597656 C 103.148438 56.335938 103.289062 57.082031 103.40625 57.828125 C 103.523438 58.578125 103.617188 59.328125 103.6875 60.082031 C 103.761719 60.835938 103.808594 61.589844 103.835938 62.347656 C 103.863281 63.105469 103.871094 63.863281 103.851562 64.617188 C 103.835938 65.375 103.796875 66.132812 103.734375 66.886719 C 103.671875 67.640625 103.589844 68.394531 103.480469 69.144531 C 103.375 69.894531 103.246094 70.640625 103.097656 71.382812 C 102.945312 72.121094 102.773438 72.859375 102.578125 73.59375 C 102.386719 74.324219 102.171875 75.050781 101.933594 75.769531 C 101.695312 76.488281 101.4375 77.199219 101.160156 77.902344 C 100.878906 78.609375 100.582031 79.304688 100.261719 79.988281 C 99.941406 80.675781 99.601562 81.351562 99.242188 82.019531 C 98.878906 82.683594 98.5 83.339844 98.101562 83.984375 C 97.703125 84.625 97.285156 85.257812 96.851562 85.878906 C 96.414062 86.496094 95.960938 87.101562 95.488281 87.695312 C 95.015625 88.285156 94.527344 88.863281 94.023438 89.425781 C 93.515625 89.992188 92.992188 90.539062 92.457031 91.070312 C 91.917969 91.605469 91.363281 92.121094 90.792969 92.621094 C 90.226562 93.121094 89.640625 93.601562 89.042969 94.066406 C 88.445312 94.53125 87.835938 94.980469 87.210938 95.410156 C 86.589844 95.839844 85.953125 96.25 85.304688 96.640625 C 84.65625 97.03125 83.996094 97.402344 83.328125 97.757812 C 82.65625 98.109375 81.976562 98.441406 81.289062 98.753906 C 80.597656 99.066406 79.898438 99.359375 79.191406 99.628906 C 78.484375 99.902344 77.769531 100.152344 77.050781 100.378906 C 76.328125 100.609375 75.597656 100.816406 74.863281 101.003906 C 74.132812 101.1875 73.390625 101.351562 72.648438 101.496094 C 71.90625 101.636719 71.15625 101.757812 70.40625 101.855469 C 69.65625 101.953125 68.902344 102.027344 68.148438 102.082031 C 67.390625 102.136719 66.636719 102.167969 65.878906 102.175781 C 65.121094 102.183594 64.363281 102.171875 63.609375 102.136719 C 62.851562 102.101562 62.097656 102.042969 61.34375 101.960938 C 60.589844 101.878906 59.839844 101.777344 59.09375 101.652344 C 58.347656 101.527344 57.605469 101.382812 56.867188 101.214844 C 56.128906 101.042969 55.394531 100.855469 54.667969 100.640625 C 53.941406 100.429688 53.222656 100.195312 52.507812 99.941406 C 51.796875 99.6875 51.089844 99.414062 50.394531 99.117188 C 49.695312 98.820312 49.007812 98.503906 48.332031 98.167969 C 47.652344 97.828125 46.984375 97.472656 46.328125 97.097656 C 45.671875 96.71875 45.023438 96.324219 44.390625 95.910156 C 43.757812 95.496094 43.136719 95.0625 42.527344 94.613281 C 41.921875 94.160156 41.324219 93.691406 40.746094 93.207031 C 40.164062 92.71875 39.597656 92.214844 39.046875 91.695312 C 38.496094 91.175781 37.964844 90.640625 37.445312 90.089844 C 36.925781 89.539062 36.421875 88.972656 35.9375 88.390625 C 35.453125 87.808594 34.984375 87.214844 34.53125 86.605469 C 34.082031 86 33.648438 85.375 33.238281 84.742188 C 32.824219 84.109375 32.429688 83.460938 32.050781 82.804688 C 31.675781 82.148438 31.320312 81.480469 30.984375 80.800781 C 30.648438 80.121094 30.332031 79.433594 30.039062 78.738281 C 29.742188 78.039062 29.46875 77.335938 29.214844 76.621094 C 28.960938 75.90625 28.726562 75.1875 28.515625 74.460938 C 28.304688 73.730469 28.117188 73 27.949219 72.261719 C 27.78125 71.523438 27.636719 70.78125 27.511719 70.03125 C 27.386719 69.285156 27.285156 68.535156 27.207031 67.78125 C 27.125 67.03125 27.070312 66.273438 27.035156 65.519531 C 27 64.761719 26.988281 64.003906 26.996094 63.246094 C 27.007812 62.492188 27.039062 61.734375 27.09375 60.980469 C 27.148438 60.222656 27.222656 59.472656 27.324219 58.71875 C 27.421875 57.96875 27.542969 57.222656 27.6875 56.480469 C 27.828125 55.734375 27.996094 54.996094 28.179688 54.261719 C 28.367188 53.527344 28.578125 52.800781 28.804688 52.078125 C 29.035156 51.359375 29.285156 50.644531 29.558594 49.9375 C 29.832031 49.230469 30.125 48.53125 30.4375 47.84375 C 30.75 47.152344 31.082031 46.472656 31.4375 45.804688 C 31.53125 45.617188 31.589844 45.421875 31.605469 45.214844 C 31.625 45.003906 31.601562 44.800781 31.539062 44.601562 C 31.476562 44.402344 31.378906 44.222656 31.246094 44.0625 C 31.113281 43.902344 30.953125 43.773438 30.769531 43.675781 C 30.539062 43.550781 30.289062 43.492188 30.027344 43.492188 C 29.730469 43.492188 29.453125 43.566406 29.199219 43.71875 C 28.941406 43.871094 28.742188 44.078125 28.601562 44.34375 C 28.214844 45.074219 27.84375 45.820312 27.5 46.574219 C 27.15625 47.328125 26.832031 48.09375 26.53125 48.867188 C 26.234375 49.644531 25.957031 50.425781 25.703125 51.214844 C 25.449219 52.007812 25.222656 52.804688 25.015625 53.609375 C 24.8125 54.414062 24.628906 55.222656 24.472656 56.039062 C 24.316406 56.855469 24.183594 57.671875 24.074219 58.496094 C 23.964844 59.320312 23.882812 60.144531 23.824219 60.972656 C 23.765625 61.800781 23.730469 62.632812 23.71875 63.460938 C 23.710938 64.292969 23.726562 65.121094 23.765625 65.949219 C 23.804688 66.78125 23.871094 67.609375 23.960938 68.433594 C 24.050781 69.257812 24.164062 70.082031 24.300781 70.898438 C 24.441406 71.71875 24.601562 72.53125 24.789062 73.339844 C 24.976562 74.148438 25.1875 74.953125 25.421875 75.75 C 25.65625 76.546875 25.914062 77.335938 26.199219 78.113281 C 26.480469 78.894531 26.785156 79.667969 27.113281 80.429688 C 27.441406 81.195312 27.789062 81.945312 28.164062 82.6875 C 28.535156 83.429688 28.929688 84.160156 29.347656 84.878906 C 29.761719 85.597656 30.199219 86.300781 30.660156 86.996094 C 31.117188 87.6875 31.597656 88.363281 32.09375 89.027344 C 32.59375 89.691406 33.113281 90.339844 33.648438 90.972656 C 34.1875 91.605469 34.742188 92.222656 35.316406 92.820312 C 35.890625 93.421875 36.484375 94.003906 37.09375 94.566406 C 37.699219 95.132812 38.328125 95.679688 38.96875 96.203125 C 39.609375 96.730469 40.265625 97.238281 40.9375 97.726562 C 41.609375 98.214844 42.296875 98.683594 42.996094 99.128906 C 43.695312 99.578125 44.40625 100.003906 45.132812 100.40625 C 45.859375 100.8125 46.59375 101.195312 47.34375 101.554688 C 48.089844 101.914062 48.847656 102.253906 49.617188 102.566406 C 50.382812 102.882812 51.160156 103.175781 51.945312 103.445312 C 52.730469 103.714844 53.523438 103.960938 54.324219 104.179688 C 55.125 104.402344 55.929688 104.601562 56.742188 104.773438 C 57.554688 104.949219 58.371094 105.097656 59.191406 105.222656 C 60.011719 105.347656 60.835938 105.445312 61.664062 105.523438 C 62.492188 105.597656 63.320312 105.648438 64.148438 105.675781 C 64.980469 105.703125 65.808594 105.703125 66.640625 105.679688 C 67.46875 105.65625 68.296875 105.609375 69.125 105.535156 C 69.953125 105.464844 70.777344 105.367188 71.597656 105.246094 C 72.417969 105.125 73.234375 104.976562 74.046875 104.808594 C 74.859375 104.636719 75.667969 104.441406 76.46875 104.222656 C 77.269531 104.003906 78.0625 103.761719 78.851562 103.496094 C 79.636719 103.230469 80.414062 102.941406 81.183594 102.628906 C 81.953125 102.316406 82.710938 101.980469 83.460938 101.625 C 84.210938 101.265625 84.949219 100.886719 85.675781 100.484375 C 86.402344 100.082031 87.117188 99.660156 87.816406 99.214844 C 88.519531 98.773438 89.207031 98.308594 89.878906 97.820312 C 90.554688 97.335938 91.214844 96.832031 91.855469 96.304688 C 92.5 95.78125 93.128906 95.238281 93.738281 94.675781 C 94.351562 94.113281 94.945312 93.535156 95.519531 92.9375 C 96.097656 92.339844 96.65625 91.726562 97.195312 91.09375 C 97.734375 90.464844 98.253906 89.816406 98.757812 89.15625 C 99.257812 88.496094 99.738281 87.820312 100.199219 87.128906 C 100.660156 86.4375 101.101562 85.734375 101.519531 85.015625 C 101.941406 84.300781 102.335938 83.570312 102.714844 82.832031 C 103.089844 82.089844 103.441406 81.339844 103.773438 80.578125 C 104.105469 79.816406 104.410156 79.046875 104.695312 78.265625 C 104.980469 77.484375 105.242188 76.699219 105.480469 75.902344 C 105.71875 75.105469 105.933594 74.304688 106.121094 73.496094 C 106.3125 72.6875 106.476562 71.875 106.621094 71.058594 C 106.761719 70.238281 106.878906 69.417969 106.972656 68.59375 C 107.0625 67.765625 107.132812 66.941406 107.175781 66.109375 C 107.21875 65.28125 107.234375 64.453125 107.230469 63.621094 C 107.222656 62.792969 107.191406 61.960938 107.136719 61.132812 C 107.082031 60.304688 107 59.480469 106.894531 58.65625 C 106.789062 57.832031 106.660156 57.011719 106.507812 56.195312 C 106.351562 55.378906 106.175781 54.570312 105.972656 53.765625 C 105.769531 52.960938 105.542969 52.160156 105.292969 51.371094 C 105.042969 50.578125 104.769531 49.792969 104.472656 49.019531 C 104.175781 48.242188 103.859375 47.476562 103.515625 46.71875 C 103.171875 45.964844 102.808594 45.21875 102.421875 44.484375 C 102.035156 43.75 101.625 43.027344 101.195312 42.316406 C 100.765625 41.605469 100.316406 40.910156 99.84375 40.226562 C 99.371094 39.542969 98.878906 38.875 98.371094 38.21875 C 97.859375 37.566406 97.328125 36.925781 96.777344 36.304688 C 96.226562 35.683594 95.660156 35.078125 95.074219 34.488281 C 94.488281 33.898438 93.886719 33.328125 93.265625 32.777344 C 92.648438 32.222656 92.011719 31.691406 91.359375 31.175781 C 90.707031 30.660156 90.042969 30.164062 89.363281 29.691406 C 88.679688 29.214844 87.984375 28.761719 87.277344 28.328125 C 86.570312 27.894531 85.847656 27.484375 85.117188 27.09375 C 84.382812 26.703125 83.640625 26.332031 82.886719 25.988281 C 82.132812 25.640625 81.367188 25.316406 80.59375 25.015625 C 79.820312 24.714844 79.035156 24.4375 78.246094 24.183594 C 77.457031 23.929688 76.65625 23.699219 75.855469 23.492188 C 75.050781 23.289062 74.238281 23.105469 73.425781 22.949219 C 72.609375 22.789062 71.789062 22.65625 70.96875 22.546875 C 70.144531 22.4375 69.320312 22.351562 68.492188 22.292969 C 67.664062 22.234375 66.832031 22.199219 66.003906 22.1875 C 65.171875 22.175781 64.34375 22.191406 63.511719 22.230469 C 62.683594 22.269531 61.855469 22.332031 61.03125 22.421875 C 60.207031 22.507812 59.382812 22.621094 58.566406 22.757812 C 57.746094 22.898438 56.929688 23.058594 56.121094 23.246094 C 55.3125 23.429688 54.511719 23.640625 53.714844 23.875 C 52.917969 24.109375 52.128906 24.363281 51.347656 24.644531 C 50.566406 24.925781 49.792969 25.230469 49.03125 25.558594 C 48.265625 25.886719 47.515625 26.234375 46.769531 26.605469 C 46.027344 26.976562 45.296875 27.371094 44.578125 27.789062 L 41.746094 26.632812 L 41.601562 24.71875 C 42.386719 24.242188 43.183594 23.789062 44 23.359375 C 44.8125 22.929688 45.636719 22.527344 46.472656 22.148438 C 47.308594 21.769531 48.15625 21.414062 49.015625 21.085938 C 49.875 20.757812 50.742188 20.457031 51.617188 20.179688 C 52.496094 19.90625 53.378906 19.65625 54.269531 19.433594 C 55.164062 19.210938 56.058594 19.015625 56.964844 18.847656 C 57.867188 18.679688 58.773438 18.535156 59.6875 18.421875 C 60.597656 18.308594 61.511719 18.222656 62.429688 18.164062 C 63.347656 18.105469 64.265625 18.074219 65.183594 18.070312 C 66.101562 18.066406 67.019531 18.09375 67.9375 18.144531 C 68.855469 18.195312 69.769531 18.273438 70.683594 18.382812 C 71.597656 18.488281 72.503906 18.625 73.410156 18.785156 C 74.316406 18.945312 75.214844 19.136719 76.105469 19.351562 C 77 19.566406 77.886719 19.808594 78.765625 20.078125 C 79.644531 20.347656 80.511719 20.644531 81.375 20.964844 C 82.234375 21.289062 83.085938 21.636719 83.925781 22.007812 C 84.765625 22.378906 85.59375 22.777344 86.410156 23.203125 C 87.222656 23.625 88.027344 24.070312 88.816406 24.542969 C 89.605469 25.011719 90.378906 25.507812 91.136719 26.027344 C 91.898438 26.542969 92.640625 27.082031 93.367188 27.644531 C 94.09375 28.207031 94.804688 28.792969 95.496094 29.398438 C 96.1875 30.003906 96.859375 30.628906 97.511719 31.273438 C 98.167969 31.917969 98.800781 32.585938 99.414062 33.269531 C 100.027344 33.953125 100.621094 34.652344 101.191406 35.375 C 101.761719 36.09375 102.3125 36.828125 102.839844 37.582031 C 103.367188 38.335938 103.871094 39.101562 104.351562 39.886719 C 104.832031 40.667969 105.289062 41.464844 105.722656 42.277344 C 106.15625 43.085938 106.5625 43.910156 106.949219 44.746094 C 107.332031 45.582031 107.6875 46.425781 108.019531 47.28125 C 108.351562 48.140625 108.660156 49.003906 108.941406 49.882812 C 109.21875 50.757812 109.472656 51.640625 109.699219 52.53125 C 109.925781 53.421875 110.128906 54.316406 110.300781 55.21875 C 110.472656 56.121094 110.621094 57.027344 110.738281 57.941406 C 110.855469 58.851562 110.945312 59.765625 111.011719 60.683594 C 111.074219 61.597656 111.109375 62.515625 111.117188 63.433594 C 111.125 64.355469 111.105469 65.273438 111.058594 66.191406 C 111.011719 67.109375 110.9375 68.023438 110.832031 68.9375 C 110.730469 69.851562 110.601562 70.757812 110.445312 71.664062 C 110.285156 72.570312 110.101562 73.46875 109.890625 74.363281 C 109.679688 75.257812 109.441406 76.144531 109.175781 77.027344 C 108.910156 77.90625 108.621094 78.777344 108.304688 79.640625 C 107.984375 80.5 107.644531 81.355469 107.273438 82.195312 C 106.90625 83.039062 106.511719 83.867188 106.09375 84.683594 C 105.675781 85.503906 105.230469 86.308594 104.765625 87.097656 C 104.296875 87.890625 103.808594 88.667969 103.292969 89.429688 C 102.777344 90.191406 102.242188 90.9375 101.683594 91.667969 C 101.125 92.394531 100.542969 93.109375 99.941406 93.800781 C 99.339844 94.496094 98.71875 95.171875 98.078125 95.828125 C 97.433594 96.488281 96.773438 97.125 96.089844 97.742188 C 95.410156 98.359375 94.710938 98.953125 93.996094 99.53125 C 93.277344 100.105469 92.546875 100.65625 91.796875 101.1875 C 91.042969 101.71875 90.28125 102.226562 89.5 102.710938 C 88.71875 103.195312 87.921875 103.65625 87.113281 104.09375 C 86.308594 104.53125 85.484375 104.945312 84.652344 105.332031 C 83.820312 105.71875 82.976562 106.082031 82.121094 106.417969 C 81.265625 106.753906 80.402344 107.066406 79.527344 107.351562 C 78.652344 107.632812 77.769531 107.890625 76.882812 108.125 C 75.992188 108.355469 75.097656 108.558594 74.195312 108.738281 C 73.292969 108.914062 72.386719 109.066406 71.476562 109.1875 C 70.566406 109.3125 69.652344 109.40625 68.738281 109.472656 C 67.820312 109.542969 66.902344 109.582031 65.984375 109.59375 C 65.066406 109.609375 64.144531 109.59375 63.226562 109.550781 C 62.308594 109.507812 61.394531 109.4375 60.480469 109.339844 C 59.566406 109.242188 58.65625 109.117188 57.75 108.964844 C 56.84375 108.8125 55.945312 108.628906 55.046875 108.425781 C 54.152344 108.21875 53.265625 107.984375 52.382812 107.722656 C 51.503906 107.460938 50.628906 107.175781 49.765625 106.863281 C 48.902344 106.550781 48.046875 106.210938 47.203125 105.847656 C 46.359375 105.480469 45.527344 105.09375 44.707031 104.675781 C 43.886719 104.261719 43.082031 103.824219 42.289062 103.359375 C 41.492188 102.898438 40.714844 102.410156 39.949219 101.902344 C 39.1875 101.390625 38.4375 100.859375 37.707031 100.304688 C 36.972656 99.746094 36.257812 99.171875 35.5625 98.574219 C 34.863281 97.972656 34.183594 97.355469 33.523438 96.714844 C 32.863281 96.078125 32.222656 95.417969 31.601562 94.742188 C 30.980469 94.0625 30.382812 93.367188 29.804688 92.652344 C 29.226562 91.941406 28.667969 91.210938 28.132812 90.460938 C 27.597656 89.714844 27.085938 88.953125 26.597656 88.171875 C 26.109375 87.394531 25.644531 86.601562 25.203125 85.796875 C 24.761719 84.992188 24.347656 84.171875 23.957031 83.339844 C 23.5625 82.507812 23.195312 81.667969 22.855469 80.8125 C 22.515625 79.960938 22.199219 79.097656 21.910156 78.226562 C 21.621094 77.351562 21.359375 76.472656 21.125 75.582031 C 20.886719 74.695312 20.679688 73.800781 20.496094 72.902344 C 20.316406 72 20.160156 71.09375 20.03125 70.183594 C 19.90625 69.273438 19.804688 68.359375 19.734375 67.445312 C 19.660156 66.527344 19.617188 65.613281 19.597656 64.691406 C 19.582031 63.773438 19.589844 62.855469 19.628906 61.9375 C 19.667969 61.019531 19.734375 60.101562 19.828125 59.1875 C 19.921875 58.273438 20.039062 57.363281 20.1875 56.457031 C 20.335938 55.550781 20.511719 54.648438 20.714844 53.75 C 20.917969 52.855469 21.148438 51.964844 21.402344 51.082031 C 21.660156 50.199219 21.941406 49.328125 22.25 48.460938 C 22.558594 47.59375 22.894531 46.738281 23.253906 45.894531 C 23.613281 45.050781 24 44.214844 24.410156 43.394531 C 24.820312 42.570312 25.253906 41.761719 25.714844 40.964844 C 25.820312 40.785156 25.890625 40.585938 25.917969 40.375 C 25.949219 40.167969 25.9375 39.957031 25.882812 39.753906 C 25.828125 39.546875 25.734375 39.359375 25.605469 39.191406 C 25.476562 39.023438 25.320312 38.886719 25.136719 38.78125 C 24.882812 38.636719 24.613281 38.566406 24.324219 38.566406 C 24.039062 38.566406 23.773438 38.640625 23.527344 38.78125 C 23.277344 38.921875 23.082031 39.117188 22.933594 39.359375 C 22.488281 40.132812 22.0625 40.917969 21.65625 41.714844 C 21.253906 42.511719 20.871094 43.320312 20.511719 44.140625 C 20.152344 44.957031 19.8125 45.785156 19.5 46.621094 C 19.183594 47.457031 18.894531 48.300781 18.625 49.15625 C 18.355469 50.007812 18.109375 50.867188 17.886719 51.730469 C 17.667969 52.597656 17.46875 53.46875 17.292969 54.34375 C 17.121094 55.222656 16.96875 56.101562 16.84375 56.988281 C 16.71875 57.871094 16.613281 58.757812 16.539062 59.648438 C 16.460938 60.539062 16.40625 61.433594 16.375 62.324219 C 16.347656 63.21875 16.34375 64.113281 16.363281 65.003906 C 16.382812 65.898438 16.425781 66.792969 16.492188 67.683594 C 16.5625 68.574219 16.65625 69.460938 16.773438 70.347656 C 16.886719 71.234375 17.027344 72.117188 17.195312 72.996094 C 17.359375 73.875 17.546875 74.746094 17.761719 75.617188 C 17.972656 76.484375 18.207031 77.34375 18.46875 78.199219 C 18.726562 79.054688 19.011719 79.902344 19.316406 80.742188 C 19.621094 81.582031 19.949219 82.414062 20.300781 83.234375 C 20.652344 84.058594 21.027344 84.871094 21.421875 85.671875 C 21.816406 86.472656 22.234375 87.261719 22.671875 88.042969 C 23.109375 88.820312 23.570312 89.585938 24.050781 90.339844 C 24.53125 91.09375 25.03125 91.832031 25.550781 92.558594 C 26.074219 93.285156 26.613281 94 27.171875 94.695312 C 27.734375 95.390625 28.3125 96.074219 28.90625 96.738281 C 29.503906 97.402344 30.117188 98.050781 30.75 98.683594 C 31.382812 99.316406 32.03125 99.929688 32.699219 100.527344 C 33.363281 101.125 34.042969 101.699219 34.742188 102.261719 C 35.4375 102.820312 36.152344 103.359375 36.878906 103.878906 C 37.605469 104.398438 38.34375 104.902344 39.097656 105.378906 C 39.851562 105.859375 40.617188 106.320312 41.398438 106.757812 C 42.175781 107.195312 42.964844 107.613281 43.769531 108.007812 C 44.570312 108.402344 45.382812 108.777344 46.203125 109.125 C 47.027344 109.476562 47.855469 109.804688 48.695312 110.109375 C 49.535156 110.417969 50.382812 110.699219 51.238281 110.957031 C 52.09375 111.21875 52.957031 111.453125 53.824219 111.664062 C 54.695312 111.878906 55.566406 112.066406 56.445312 112.230469 C 57.324219 112.394531 58.207031 112.535156 59.09375 112.652344 C 59.976562 112.769531 60.867188 112.859375 61.757812 112.925781 C 62.648438 112.996094 63.542969 113.039062 64.433594 113.058594 C 65.328125 113.078125 66.222656 113.074219 67.117188 113.042969 C 68.007812 113.011719 68.902344 112.960938 69.789062 112.882812 C 70.679688 112.804688 71.570312 112.699219 72.453125 112.574219 C 73.339844 112.445312 74.21875 112.296875 75.09375 112.121094 C 75.972656 111.945312 76.84375 111.75 77.707031 111.527344 C 78.574219 111.304688 79.433594 111.058594 80.285156 110.789062 C 81.136719 110.519531 81.980469 110.226562 82.820312 109.914062 C 83.65625 109.597656 84.480469 109.261719 85.300781 108.898438 C 86.117188 108.539062 86.925781 108.15625 87.722656 107.753906 C 88.519531 107.347656 89.304688 106.921875 90.078125 106.476562 C 90.851562 106.027344 91.613281 105.558594 92.363281 105.070312 C 93.109375 104.582031 93.84375 104.074219 94.566406 103.546875 C 95.285156 103.015625 95.992188 102.46875 96.683594 101.902344 C 97.371094 101.332031 98.046875 100.75 98.707031 100.144531 C 99.363281 99.539062 100.007812 98.917969 100.632812 98.277344 C 101.257812 97.640625 101.863281 96.984375 102.453125 96.3125 C 103.039062 95.640625 103.609375 94.953125 104.164062 94.25 C 104.714844 93.546875 105.246094 92.828125 105.757812 92.09375 C 106.269531 91.363281 106.761719 90.617188 107.234375 89.859375 C 107.707031 89.097656 108.15625 88.328125 108.585938 87.542969 C 109.015625 86.757812 109.421875 85.964844 109.808594 85.160156 C 110.195312 84.351562 110.558594 83.535156 110.898438 82.710938 C 111.242188 81.882812 111.5625 81.050781 111.855469 80.207031 C 112.152344 79.363281 112.425781 78.511719 112.675781 77.65625 C 112.925781 76.796875 113.152344 75.933594 113.351562 75.0625 C 113.554688 74.191406 113.734375 73.316406 113.890625 72.433594 C 114.042969 71.554688 114.175781 70.671875 114.28125 69.785156 C 114.386719 68.894531 114.46875 68.007812 114.527344 67.113281 C 114.585938 66.222656 114.617188 65.328125 114.628906 64.4375 C 114.636719 63.542969 114.621094 62.648438 114.582031 61.757812 C 114.542969 60.863281 114.480469 59.972656 114.390625 59.082031 C 114.304688 58.195312 114.191406 57.308594 114.054688 56.425781 C 113.917969 55.539062 113.757812 54.660156 113.574219 53.789062 C 113.386719 52.914062 113.179688 52.042969 112.949219 51.179688 C 112.714844 50.316406 112.460938 49.460938 112.183594 48.613281 C 111.902344 47.761719 111.601562 46.921875 111.277344 46.089844 C 110.953125 45.257812 110.605469 44.433594 110.238281 43.617188 C 109.867188 42.804688 109.476562 42.003906 109.0625 41.210938 C 108.648438 40.417969 108.214844 39.636719 107.757812 38.867188 C 107.304688 38.097656 106.828125 37.34375 106.332031 36.601562 C 105.832031 35.859375 105.316406 35.128906 104.78125 34.414062 C 104.242188 33.699219 103.6875 33 103.113281 32.316406 C 102.535156 31.632812 101.945312 30.964844 101.332031 30.3125 C 100.722656 29.660156 100.09375 29.023438 99.445312 28.40625 C 98.800781 27.789062 98.136719 27.191406 97.457031 26.609375 C 96.78125 26.027344 96.085938 25.464844 95.375 24.921875 C 94.667969 24.378906 93.941406 23.855469 93.203125 23.351562 C 92.46875 22.847656 91.714844 22.363281 90.953125 21.898438 C 90.1875 21.4375 89.410156 20.996094 88.621094 20.574219 C 87.832031 20.152344 87.035156 19.753906 86.222656 19.378906 C 85.414062 19 84.59375 18.644531 83.761719 18.3125 C 82.933594 17.980469 82.09375 17.671875 81.25 17.382812 C 80.402344 17.097656 79.546875 16.835938 78.6875 16.59375 C 77.828125 16.355469 76.960938 16.136719 76.085938 15.945312 C 75.214844 15.753906 74.335938 15.582031 73.457031 15.4375 C 72.574219 15.292969 71.6875 15.171875 70.800781 15.078125 C 69.910156 14.980469 69.019531 14.90625 68.128906 14.859375 C 67.234375 14.8125 66.34375 14.789062 65.449219 14.789062 Z M 65.449219 14.789062 " fill-opacity="1" fill-rule="nonzero"></path><path fill="#026da5" d="M 63.84375 63.242188 L 57.054688 70.03125 C 56.882812 70.175781 56.75 70.347656 56.652344 70.550781 C 56.554688 70.75 56.5 70.964844 56.492188 71.1875 C 56.480469 71.410156 56.515625 71.625 56.597656 71.835938 C 56.679688 72.042969 56.796875 72.226562 56.957031 72.386719 C 57.113281 72.546875 57.296875 72.664062 57.503906 72.75 C 57.710938 72.832031 57.925781 72.867188 58.152344 72.859375 C 58.375 72.851562 58.585938 72.800781 58.789062 72.703125 C 58.992188 72.609375 59.164062 72.476562 59.3125 72.304688 L 66.53125 65.085938 C 66.835938 64.765625 66.992188 64.386719 67 63.949219 L 67 51.761719 C 67 51.546875 66.960938 51.34375 66.878906 51.148438 C 66.796875 50.949219 66.679688 50.777344 66.53125 50.625 C 66.378906 50.476562 66.207031 50.359375 66.007812 50.277344 C 65.8125 50.195312 65.609375 50.15625 65.394531 50.15625 C 65.179688 50.15625 64.976562 50.195312 64.78125 50.277344 C 64.582031 50.359375 64.410156 50.476562 64.257812 50.625 C 64.109375 50.777344 63.992188 50.949219 63.910156 51.148438 C 63.828125 51.34375 63.789062 51.546875 63.789062 51.761719 Z M 63.84375 63.242188 " fill-opacity="1" fill-rule="nonzero"></path><path fill="#026da5" d="M 65.449219 41.5625 C 65.660156 41.5625 65.867188 41.519531 66.0625 41.441406 C 66.261719 41.359375 66.433594 41.242188 66.585938 41.089844 C 66.734375 40.941406 66.851562 40.765625 66.933594 40.570312 C 67.015625 40.375 67.054688 40.167969 67.054688 39.957031 L 67.054688 32.84375 C 67.054688 32.628906 67.015625 32.425781 66.933594 32.226562 C 66.851562 32.03125 66.734375 31.855469 66.585938 31.707031 C 66.433594 31.554688 66.261719 31.4375 66.0625 31.359375 C 65.867188 31.277344 65.660156 31.234375 65.449219 31.234375 C 65.234375 31.234375 65.03125 31.277344 64.832031 31.359375 C 64.636719 31.4375 64.464844 31.554688 64.3125 31.707031 C 64.160156 31.855469 64.046875 32.03125 63.964844 32.226562 C 63.882812 32.425781 63.84375 32.628906 63.84375 32.84375 L 63.84375 40.0625 C 63.855469 40.265625 63.90625 40.460938 63.992188 40.644531 C 64.082031 40.828125 64.199219 40.992188 64.347656 41.128906 C 64.5 41.269531 64.667969 41.375 64.859375 41.449219 C 65.046875 41.523438 65.246094 41.5625 65.449219 41.5625 Z M 65.449219 41.5625 " fill-opacity="1" fill-rule="nonzero"></path><path fill="#026da5" d="M 63.84375 87.867188 L 63.84375 95.089844 C 63.84375 95.300781 63.882812 95.507812 63.964844 95.703125 C 64.046875 95.902344 64.160156 96.074219 64.3125 96.226562 C 64.464844 96.375 64.636719 96.492188 64.832031 96.574219 C 65.03125 96.65625 65.234375 96.695312 65.449219 96.695312 C 65.660156 96.695312 65.867188 96.65625 66.0625 96.574219 C 66.261719 96.492188 66.433594 96.375 66.585938 96.226562 C 66.734375 96.074219 66.851562 95.902344 66.933594 95.703125 C 67.015625 95.507812 67.054688 95.300781 67.054688 95.089844 L 67.054688 87.867188 C 67.054688 87.65625 67.015625 87.449219 66.933594 87.253906 C 66.851562 87.054688 66.734375 86.882812 66.585938 86.730469 C 66.433594 86.582031 66.261719 86.464844 66.0625 86.382812 C 65.867188 86.300781 65.660156 86.261719 65.449219 86.261719 C 65.234375 86.261719 65.03125 86.300781 64.832031 86.382812 C 64.636719 86.464844 64.464844 86.582031 64.3125 86.730469 C 64.160156 86.882812 64.046875 87.054688 63.964844 87.253906 C 63.882812 87.449219 63.84375 87.65625 63.84375 87.867188 Z M 63.84375 87.867188 " fill-opacity="1" fill-rule="nonzero"></path><path fill="#026da5" d="M 41.492188 65.519531 C 41.707031 65.519531 41.910156 65.476562 42.105469 65.394531 C 42.304688 65.3125 42.476562 65.199219 42.628906 65.046875 C 42.777344 64.898438 42.894531 64.722656 42.976562 64.527344 C 43.058594 64.328125 43.097656 64.125 43.097656 63.910156 C 43.097656 63.699219 43.058594 63.492188 42.976562 63.296875 C 42.894531 63.101562 42.777344 62.925781 42.628906 62.773438 C 42.476562 62.625 42.304688 62.507812 42.105469 62.425781 C 41.910156 62.34375 41.707031 62.304688 41.492188 62.304688 L 34.378906 62.304688 C 34.167969 62.304688 33.960938 62.34375 33.765625 62.425781 C 33.566406 62.507812 33.394531 62.625 33.242188 62.773438 C 33.09375 62.925781 32.976562 63.101562 32.894531 63.296875 C 32.8125 63.492188 32.773438 63.699219 32.773438 63.910156 C 32.773438 64.125 32.8125 64.328125 32.894531 64.527344 C 32.976562 64.722656 33.09375 64.898438 33.242188 65.046875 C 33.394531 65.199219 33.566406 65.3125 33.765625 65.394531 C 33.960938 65.476562 34.167969 65.519531 34.378906 65.519531 Z M 41.492188 65.519531 " fill-opacity="1" fill-rule="nonzero"></path></svg> 