<?xml version="1.0" encoding="UTF-8"?> <svg xmlns="http://www.w3.org/2000/svg" xmlns:xlink="http://www.w3.org/1999/xlink" width="175" zoomAndPan="magnify" viewBox="0 0 131.25 131.249998" height="175" preserveAspectRatio="xMidYMid meet" version="1.0"><defs><clipPath id="0364e497d3"><path d="M 0 0 L 130.503906 0 L 130.503906 130.503906 L 0 130.503906 Z M 0 0 " clip-rule="nonzero"></path></clipPath></defs><g clip-path="url(#0364e497d3)"><path fill="#ffffff" d="M 0 0 L 130.503906 0 L 130.503906 130.503906 L 0 130.503906 Z M 0 0 " fill-opacity="1" fill-rule="nonzero"></path><path fill="#ffffff" d="M 0 0 L 130.503906 0 L 130.503906 130.503906 L 0 130.503906 Z M 0 0 " fill-opacity="1" fill-rule="nonzero"></path></g><path fill="#cb3433" d="M 120.191406 57.601562 L 100.320312 41.113281 L 100.320312 19.894531 L 86.480469 19.894531 L 86.480469 29.648438 L 69.488281 15.558594 C 67.054688 13.550781 63.097656 13.550781 60.675781 15.558594 L 9.96875 57.601562 C 7.546875 59.609375 8.140625 61.242188 11.289062 61.242188 L 25.542969 61.242188 L 25.542969 111.050781 C 25.542969 114.207031 28.121094 116.777344 31.269531 116.777344 L 98.894531 116.777344 C 102.042969 116.777344 104.609375 114.203125 104.609375 111.050781 L 104.609375 61.242188 L 118.871094 61.242188 C 122.019531 61.242188 122.609375 59.605469 120.191406 57.601562 Z M 79.917969 86.574219 C 70.996094 97.996094 65.082031 99.730469 65.082031 99.730469 C 65.082031 99.730469 59.164062 97.996094 50.242188 86.570312 C 39.179688 72.394531 44.003906 58.230469 54.605469 58.824219 C 63.296875 59.3125 65.082031 69.449219 65.082031 69.449219 C 65.082031 69.449219 66.859375 59.3125 75.554688 58.824219 C 86.152344 58.230469 90.980469 72.394531 79.917969 86.574219 Z M 79.917969 86.574219 " fill-opacity="1" fill-rule="nonzero"></path></svg> 