<?xml version="1.0" encoding="UTF-8"?> <svg xmlns="http://www.w3.org/2000/svg" xmlns:xlink="http://www.w3.org/1999/xlink" width="175" zoomAndPan="magnify" viewBox="0 0 131.25 131.249998" height="175" preserveAspectRatio="xMidYMid meet" version="1.0"><defs><clipPath id="1a3520044d"><path d="M 0 0 L 130.503906 0 L 130.503906 130.503906 L 0 130.503906 Z M 0 0 " clip-rule="nonzero"></path></clipPath><clipPath id="134eb7be71"><path d="M 17.578125 13.636719 L 113 13.636719 L 113 116.546875 L 17.578125 116.546875 Z M 17.578125 13.636719 " clip-rule="nonzero"></path></clipPath></defs><g clip-path="url(#1a3520044d)"><path fill="#ffffff" d="M 0 0 L 130.503906 0 L 130.503906 130.503906 L 0 130.503906 Z M 0 0 " fill-opacity="1" fill-rule="nonzero"></path><path fill="#ffffff" d="M 0 0 L 130.503906 0 L 130.503906 130.503906 L 0 130.503906 Z M 0 0 " fill-opacity="1" fill-rule="nonzero"></path></g><g clip-path="url(#134eb7be71)"><path fill="#026da5" d="M 28.628906 35.15625 L 70.488281 35.15625 C 71.125 35.152344 71.621094 34.882812 71.96875 34.351562 C 72.15625 34.054688 72.246094 33.734375 72.246094 33.386719 L 72.246094 24.207031 C 72.246094 23.972656 72.203125 23.75 72.113281 23.53125 C 72.023438 23.316406 71.898438 23.125 71.734375 22.957031 C 71.570312 22.792969 71.378906 22.664062 71.164062 22.574219 C 70.949219 22.484375 70.722656 22.4375 70.488281 22.4375 L 28.628906 22.4375 C 28.394531 22.4375 28.171875 22.484375 27.953125 22.574219 C 27.738281 22.664062 27.550781 22.792969 27.382812 22.957031 C 27.21875 23.125 27.09375 23.316406 27.003906 23.53125 C 26.917969 23.75 26.871094 23.972656 26.871094 24.207031 L 26.871094 33.386719 C 26.871094 33.621094 26.917969 33.847656 27.003906 34.0625 C 27.09375 34.277344 27.21875 34.46875 27.386719 34.636719 C 27.550781 34.800781 27.738281 34.929688 27.953125 35.019531 C 28.171875 35.109375 28.394531 35.15625 28.628906 35.15625 Z M 30.398438 25.960938 L 68.71875 25.960938 L 68.71875 31.632812 L 30.398438 31.632812 Z M 34.613281 74.136719 L 28.628906 74.136719 C 28.394531 74.140625 28.171875 74.183594 27.953125 74.277344 C 27.738281 74.367188 27.550781 74.496094 27.382812 74.660156 C 27.21875 74.828125 27.09375 75.015625 27.003906 75.234375 C 26.917969 75.449219 26.871094 75.675781 26.871094 75.910156 L 26.871094 81.742188 C 26.871094 81.972656 26.917969 82.199219 27.003906 82.414062 C 27.09375 82.632812 27.21875 82.820312 27.386719 82.988281 C 27.550781 83.152344 27.738281 83.28125 27.957031 83.371094 C 28.171875 83.460938 28.394531 83.507812 28.628906 83.507812 L 34.613281 83.507812 C 34.851562 83.507812 35.074219 83.464844 35.292969 83.375 C 35.507812 83.285156 35.699219 83.15625 35.867188 82.988281 C 36.03125 82.824219 36.160156 82.632812 36.25 82.417969 C 36.339844 82.199219 36.382812 81.972656 36.382812 81.738281 L 36.382812 75.910156 C 36.382812 75.675781 36.339844 75.449219 36.25 75.230469 C 36.160156 75.015625 36.03125 74.824219 35.867188 74.65625 C 35.699219 74.492188 35.507812 74.363281 35.292969 74.273438 C 35.074219 74.183594 34.851562 74.136719 34.613281 74.136719 Z M 32.84375 79.980469 L 30.398438 79.980469 L 30.398438 77.664062 L 32.847656 77.664062 Z M 76.730469 67.785156 C 77.496094 67.019531 78.410156 66.550781 79.472656 66.378906 L 79.472656 65.34375 C 79.46875 65.105469 79.507812 64.875 79.59375 64.65625 C 79.679688 64.433594 79.804688 64.238281 79.972656 64.070312 C 80.136719 63.898438 80.328125 63.769531 80.546875 63.675781 C 80.765625 63.582031 80.992188 63.539062 81.230469 63.539062 C 81.46875 63.539062 81.695312 63.582031 81.914062 63.675781 C 82.132812 63.769531 82.324219 63.898438 82.488281 64.070312 C 82.65625 64.238281 82.78125 64.433594 82.867188 64.65625 C 82.953125 64.875 82.992188 65.105469 82.988281 65.34375 L 82.988281 66.378906 C 83.976562 66.542969 84.839844 66.96875 85.574219 67.65625 C 85.621094 67.691406 85.667969 67.734375 85.707031 67.78125 C 86.492188 68.558594 86.964844 69.492188 87.132812 70.582031 C 87.175781 70.828125 87.191406 71.074219 87.191406 71.324219 C 87.191406 71.558594 87.144531 71.785156 87.054688 72.003906 C 86.964844 72.21875 86.839844 72.410156 86.671875 72.578125 C 86.507812 72.742188 86.316406 72.871094 86.097656 72.960938 C 85.882812 73.050781 85.65625 73.09375 85.421875 73.09375 C 85.1875 73.09375 84.960938 73.050781 84.746094 72.960938 C 84.527344 72.871094 84.335938 72.742188 84.171875 72.578125 C 84.003906 72.410156 83.875 72.21875 83.785156 72.003906 C 83.699219 71.785156 83.652344 71.558594 83.652344 71.324219 C 83.65625 71.15625 83.625 70.992188 83.5625 70.835938 C 83.488281 70.617188 83.371094 70.429688 83.207031 70.269531 C 82.917969 69.980469 82.570312 69.835938 82.164062 69.835938 L 80.28125 69.835938 C 79.871094 69.835938 79.523438 69.980469 79.234375 70.265625 C 79.148438 70.34375 79.078125 70.433594 79.019531 70.53125 C 78.839844 70.820312 78.765625 71.132812 78.796875 71.46875 C 78.828125 71.808594 78.957031 72.101562 79.1875 72.347656 C 79.488281 72.65625 79.851562 72.8125 80.28125 72.824219 L 82.167969 72.824219 C 83.242188 72.824219 84.21875 73.136719 85.089844 73.765625 C 85.316406 73.921875 85.527344 74.097656 85.722656 74.292969 L 85.820312 74.410156 C 86.445312 75.0625 86.855469 75.828125 87.054688 76.710938 C 87.148438 77.078125 87.191406 77.457031 87.1875 77.839844 C 87.183594 78.828125 86.914062 79.738281 86.375 80.566406 C 86.179688 80.867188 85.960938 81.140625 85.710938 81.394531 C 84.945312 82.15625 84.035156 82.625 82.972656 82.800781 L 82.972656 83.835938 C 82.976562 84.074219 82.9375 84.300781 82.851562 84.523438 C 82.765625 84.746094 82.640625 84.941406 82.472656 85.109375 C 82.308594 85.28125 82.117188 85.410156 81.898438 85.503906 C 81.679688 85.59375 81.453125 85.640625 81.214844 85.640625 C 80.976562 85.640625 80.75 85.59375 80.53125 85.503906 C 80.3125 85.410156 80.121094 85.28125 79.957031 85.109375 C 79.789062 84.941406 79.664062 84.746094 79.578125 84.523438 C 79.492188 84.300781 79.453125 84.074219 79.457031 83.835938 L 79.457031 82.796875 C 78.914062 82.707031 78.394531 82.527344 77.910156 82.265625 C 77.472656 82.039062 77.078125 81.746094 76.730469 81.398438 C 76.257812 80.925781 75.890625 80.382812 75.632812 79.765625 C 75.375 79.148438 75.246094 78.507812 75.246094 77.839844 C 75.246094 77.605469 75.292969 77.378906 75.382812 77.164062 C 75.472656 76.945312 75.601562 76.753906 75.765625 76.589844 C 75.929688 76.421875 76.121094 76.292969 76.339844 76.203125 C 76.554688 76.117188 76.78125 76.070312 77.015625 76.070312 C 77.25 76.070312 77.476562 76.117188 77.695312 76.203125 C 77.910156 76.292969 78.101562 76.421875 78.265625 76.589844 C 78.433594 76.753906 78.5625 76.945312 78.652344 77.164062 C 78.742188 77.378906 78.785156 77.605469 78.785156 77.839844 C 78.78125 78.253906 78.925781 78.609375 79.21875 78.902344 C 79.511719 79.195312 79.863281 79.34375 80.28125 79.347656 L 82.15625 79.347656 C 82.355469 79.34375 82.546875 79.304688 82.730469 79.226562 C 82.910156 79.152344 83.074219 79.042969 83.214844 78.902344 C 83.355469 78.761719 83.464844 78.597656 83.539062 78.417969 C 83.617188 78.234375 83.65625 78.042969 83.660156 77.84375 C 83.65625 77.5625 83.582031 77.304688 83.4375 77.0625 C 83.386719 76.988281 83.328125 76.914062 83.265625 76.851562 C 82.96875 76.519531 82.597656 76.355469 82.15625 76.355469 L 80.292969 76.355469 C 79.449219 76.351562 78.65625 76.148438 77.914062 75.753906 C 77.480469 75.515625 77.085938 75.226562 76.734375 74.875 L 76.648438 74.789062 C 76.425781 74.554688 76.226562 74.300781 76.050781 74.027344 C 75.875 73.757812 75.730469 73.46875 75.613281 73.167969 C 75.492188 72.867188 75.402344 72.554688 75.34375 72.238281 C 75.289062 71.917969 75.261719 71.597656 75.265625 71.273438 C 75.269531 70.949219 75.300781 70.628906 75.367188 70.3125 C 75.433594 69.996094 75.53125 69.6875 75.65625 69.386719 C 75.78125 69.089844 75.9375 68.804688 76.117188 68.535156 C 76.296875 68.269531 76.503906 68.019531 76.730469 67.789062 Z M 70.492188 39.097656 L 64.503906 39.097656 C 64.269531 39.101562 64.046875 39.144531 63.832031 39.238281 C 63.613281 39.328125 63.425781 39.453125 63.261719 39.621094 C 63.09375 39.785156 62.96875 39.976562 62.878906 40.195312 C 62.792969 40.410156 62.746094 40.632812 62.746094 40.867188 L 62.746094 46.703125 C 62.746094 46.9375 62.792969 47.160156 62.878906 47.375 C 62.96875 47.59375 63.09375 47.785156 63.261719 47.949219 C 63.425781 48.113281 63.613281 48.242188 63.832031 48.332031 C 64.046875 48.421875 64.269531 48.46875 64.503906 48.472656 L 70.488281 48.472656 C 70.722656 48.46875 70.949219 48.421875 71.164062 48.332031 C 71.378906 48.242188 71.570312 48.113281 71.734375 47.949219 C 71.898438 47.785156 72.023438 47.59375 72.113281 47.375 C 72.203125 47.160156 72.246094 46.9375 72.246094 46.703125 L 72.246094 40.871094 C 72.246094 40.636719 72.203125 40.410156 72.113281 40.195312 C 72.023438 39.980469 71.898438 39.789062 71.734375 39.621094 C 71.570312 39.457031 71.378906 39.328125 71.164062 39.238281 C 70.949219 39.148438 70.722656 39.101562 70.488281 39.101562 Z M 68.722656 44.941406 L 66.273438 44.941406 L 66.273438 42.636719 L 68.71875 42.636719 Z M 70.492188 50.777344 L 64.503906 50.777344 C 64.269531 50.777344 64.046875 50.824219 63.832031 50.914062 C 63.613281 51.003906 63.425781 51.132812 63.261719 51.296875 C 63.09375 51.464844 62.96875 51.65625 62.878906 51.871094 C 62.792969 52.085938 62.746094 52.3125 62.746094 52.546875 L 62.746094 58.382812 C 62.746094 58.617188 62.792969 58.839844 62.878906 59.058594 C 62.96875 59.273438 63.097656 59.464844 63.261719 59.628906 C 63.425781 59.796875 63.613281 59.921875 63.832031 60.011719 C 64.046875 60.105469 64.269531 60.148438 64.503906 60.152344 L 70.488281 60.152344 C 70.699219 60.152344 70.902344 60.117188 71.097656 60.042969 C 71.296875 59.96875 71.472656 59.867188 71.632812 59.730469 C 71.789062 59.59375 71.917969 59.429688 72.019531 59.246094 C 72.121094 59.0625 72.1875 58.867188 72.214844 58.660156 C 72.238281 58.570312 72.246094 58.476562 72.242188 58.382812 L 72.242188 52.550781 C 72.242188 52.316406 72.199219 52.089844 72.109375 51.875 C 72.019531 51.660156 71.894531 51.46875 71.730469 51.304688 C 71.566406 51.136719 71.375 51.007812 71.160156 50.917969 C 70.945312 50.828125 70.722656 50.78125 70.488281 50.78125 Z M 68.722656 56.621094 L 66.273438 56.621094 L 66.273438 54.316406 L 68.71875 54.316406 Z M 112.722656 105.488281 C 112.734375 105.421875 112.738281 105.351562 112.742188 105.28125 L 112.742188 103.828125 L 112.777344 103.828125 L 112.777344 32.765625 C 112.777344 32.527344 112.730469 32.300781 112.640625 32.078125 C 112.546875 31.859375 112.417969 31.664062 112.25 31.496094 C 112.082031 31.328125 111.886719 31.199219 111.667969 31.109375 C 111.449219 31.019531 111.21875 30.972656 110.980469 30.972656 L 81.554688 30.972656 L 81.554688 20.480469 C 81.550781 20.042969 81.507812 19.605469 81.421875 19.175781 C 81.335938 18.746094 81.207031 18.328125 81.039062 17.921875 C 80.871094 17.519531 80.664062 17.132812 80.421875 16.769531 C 80.175781 16.402344 79.898438 16.066406 79.589844 15.753906 C 79.277344 15.445312 78.941406 15.167969 78.574219 14.921875 C 78.210938 14.679688 77.828125 14.472656 77.421875 14.304688 C 77.015625 14.136719 76.597656 14.007812 76.167969 13.921875 C 75.738281 13.835938 75.304688 13.789062 74.863281 13.789062 L 24.253906 13.789062 C 23.8125 13.789062 23.378906 13.832031 22.949219 13.917969 C 22.519531 14.007812 22.101562 14.132812 21.695312 14.300781 C 21.292969 14.46875 20.90625 14.675781 20.542969 14.921875 C 20.179688 15.164062 19.839844 15.441406 19.53125 15.753906 C 19.222656 16.0625 18.945312 16.402344 18.699219 16.765625 C 18.457031 17.128906 18.253906 17.515625 18.085938 17.921875 C 17.917969 18.328125 17.789062 18.746094 17.703125 19.175781 C 17.621094 19.605469 17.578125 20.039062 17.578125 20.476562 L 17.578125 85.46875 C 17.578125 85.910156 17.621094 86.34375 17.707031 86.773438 C 17.789062 87.203125 17.917969 87.621094 18.085938 88.027344 C 18.253906 88.433594 18.457031 88.816406 18.703125 89.183594 C 18.945312 89.546875 19.222656 89.882812 19.53125 90.195312 C 19.839844 90.503906 20.179688 90.78125 20.542969 91.027344 C 20.90625 91.269531 21.292969 91.476562 21.699219 91.644531 C 22.101562 91.8125 22.519531 91.941406 22.949219 92.027344 C 23.378906 92.113281 23.8125 92.15625 24.253906 92.160156 L 30.761719 92.160156 L 30.761719 114.867188 C 30.761719 115.011719 30.78125 115.15625 30.816406 115.296875 C 30.855469 115.4375 30.90625 115.570312 30.976562 115.699219 C 31.046875 115.828125 31.132812 115.941406 31.230469 116.050781 C 31.328125 116.15625 31.441406 116.25 31.5625 116.328125 C 31.683594 116.40625 31.816406 116.46875 31.953125 116.515625 C 32.089844 116.5625 32.230469 116.59375 32.375 116.605469 C 32.519531 116.617188 32.664062 116.609375 32.808594 116.585938 C 32.953125 116.5625 33.089844 116.519531 33.222656 116.460938 L 78.558594 116.460938 C 78.761719 116.46875 78.960938 116.4375 79.152344 116.371094 C 79.347656 116.304688 79.519531 116.207031 79.675781 116.074219 C 79.832031 115.945312 79.957031 115.789062 80.054688 115.609375 C 80.152344 115.433594 80.214844 115.242188 80.242188 115.039062 C 80.300781 114.867188 80.332031 114.691406 80.335938 114.507812 L 80.335938 107.894531 L 111.101562 107.894531 C 111.246094 107.894531 111.386719 107.875 111.523438 107.839844 C 111.660156 107.808594 111.792969 107.753906 111.917969 107.6875 C 112.042969 107.621094 112.160156 107.539062 112.265625 107.445312 C 112.371094 107.347656 112.464844 107.242188 112.542969 107.125 C 112.625 107.007812 112.6875 106.878906 112.734375 106.746094 C 112.785156 106.613281 112.816406 106.476562 112.832031 106.332031 C 112.847656 106.191406 112.847656 106.050781 112.828125 105.910156 C 112.808594 105.769531 112.773438 105.632812 112.71875 105.5 Z M 86.027344 61.417969 C 87.050781 61.808594 88.019531 62.304688 88.9375 62.902344 C 89.425781 63.234375 89.890625 63.59375 90.332031 63.984375 C 90.589844 64.199219 90.835938 64.425781 91.066406 64.664062 C 92.105469 65.714844 92.953125 66.898438 93.617188 68.214844 C 94.039062 69.035156 94.371094 69.886719 94.613281 70.777344 C 94.933594 71.894531 95.105469 73.035156 95.132812 74.199219 C 95.144531 74.332031 95.140625 74.464844 95.140625 74.597656 C 95.144531 76.519531 94.773438 78.363281 94.023438 80.132812 C 93.644531 81.039062 93.171875 81.894531 92.601562 82.695312 C 92.148438 83.339844 91.640625 83.945312 91.082031 84.507812 C 90.585938 85.007812 90.054688 85.46875 89.488281 85.890625 C 88.921875 86.308594 88.324219 86.683594 87.699219 87.015625 C 87.078125 87.34375 86.429688 87.621094 85.765625 87.855469 C 85.097656 88.085938 84.417969 88.261719 83.722656 88.390625 C 83.027344 88.515625 82.328125 88.589844 81.625 88.613281 C 80.917969 88.632812 80.214844 88.597656 79.515625 88.511719 C 78.816406 88.425781 78.125 88.285156 77.445312 88.09375 C 76.769531 87.902344 76.105469 87.660156 75.464844 87.367188 L 75.464844 87.183594 L 75.09375 87.183594 L 74.570312 86.917969 C 73.785156 86.488281 73.046875 85.984375 72.359375 85.410156 L 72.261719 85.324219 C 72.175781 85.246094 72.082031 85.175781 71.988281 85.113281 C 71.9375 85.042969 71.878906 84.984375 71.816406 84.929688 C 71.691406 84.816406 71.5625 84.699219 71.449219 84.578125 L 71.359375 84.496094 C 70.929688 84.066406 70.53125 83.609375 70.164062 83.125 L 70.0625 82.964844 C 69.933594 82.800781 69.8125 82.636719 69.707031 82.472656 L 69.53125 82.207031 C 69.484375 82.132812 69.4375 82.0625 69.390625 81.992188 L 69.316406 81.851562 C 69.097656 81.496094 68.898438 81.128906 68.71875 80.753906 L 68.605469 80.507812 C 68.546875 80.390625 68.488281 80.265625 68.441406 80.148438 L 68.273438 79.742188 C 68.242188 79.667969 68.210938 79.59375 68.175781 79.492188 L 67.957031 78.84375 C 67.894531 78.636719 67.832031 78.425781 67.769531 78.21875 C 67.761719 78.148438 67.742188 78.078125 67.714844 78.011719 L 67.605469 77.53125 C 67.585938 77.289062 67.546875 77.046875 67.480469 76.8125 L 67.464844 76.75 L 67.398438 76.175781 C 67.382812 76.085938 67.375 75.996094 67.371094 75.910156 C 67.355469 75.816406 67.351562 75.726562 67.347656 75.644531 L 67.332031 75.4375 C 67.324219 75.378906 67.324219 75.324219 67.324219 75.269531 C 67.3125 75.050781 67.300781 74.832031 67.300781 74.605469 C 67.300781 74.378906 67.3125 74.140625 67.324219 73.90625 L 67.375 73.148438 C 67.378906 73.089844 67.386719 73.03125 67.394531 72.976562 L 67.777344 70.929688 C 67.8125 70.796875 67.847656 70.671875 67.902344 70.515625 L 68.113281 69.859375 C 68.136719 69.789062 68.164062 69.71875 68.199219 69.648438 C 68.242188 69.515625 68.289062 69.390625 68.367188 69.214844 C 68.390625 69.148438 68.417969 69.078125 68.449219 69.011719 C 68.496094 68.886719 68.550781 68.765625 68.613281 68.648438 L 68.714844 68.429688 C 68.773438 68.296875 68.847656 68.164062 68.914062 68.039062 L 68.972656 67.824219 L 69.027344 67.832031 C 69.070312 67.746094 69.125 67.644531 69.234375 67.457031 C 69.277344 67.386719 69.320312 67.3125 69.367188 67.246094 C 69.421875 67.164062 69.472656 67.082031 69.515625 66.992188 C 69.5625 66.933594 69.601562 66.871094 69.648438 66.808594 L 69.945312 66.390625 C 70.011719 66.289062 70.089844 66.1875 70.195312 66.046875 C 70.238281 65.984375 70.292969 65.921875 70.402344 65.78125 C 70.480469 65.683594 70.546875 65.597656 70.640625 65.492188 C 70.925781 65.167969 71.339844 64.71875 71.40625 64.652344 C 73.054688 63.082031 74.960938 61.925781 77.117188 61.191406 C 80.109375 60.371094 83.078125 60.453125 86.023438 61.429688 Z M 24.730469 88.632812 L 24.253906 88.621094 C 23.835938 88.621094 23.433594 88.539062 23.046875 88.378906 C 22.664062 88.21875 22.324219 87.992188 22.027344 87.695312 C 21.734375 87.398438 21.503906 87.058594 21.34375 86.675781 C 21.183594 86.289062 21.105469 85.886719 21.101562 85.46875 L 21.101562 20.476562 C 21.101562 19.605469 21.414062 18.863281 22.03125 18.253906 C 22.644531 17.636719 23.386719 17.328125 24.257812 17.324219 L 74.863281 17.324219 C 75.28125 17.324219 75.683594 17.40625 76.070312 17.566406 C 76.453125 17.726562 76.792969 17.953125 77.089844 18.25 C 77.386719 18.542969 77.613281 18.882812 77.773438 19.269531 C 77.933594 19.65625 78.015625 20.054688 78.015625 20.472656 L 78.015625 57.347656 L 78 57.347656 C 76.929688 57.546875 75.886719 57.84375 74.875 58.25 L 74.761719 58.289062 C 74.566406 58.367188 74.355469 58.457031 74.164062 58.554688 C 73.109375 59.019531 72.113281 59.589844 71.175781 60.269531 C 71.109375 60.296875 71.050781 60.335938 71 60.386719 C 70.882812 60.464844 70.773438 60.550781 70.660156 60.636719 L 70.261719 60.957031 C 70.171875 61.019531 70.089844 61.09375 70.015625 61.175781 C 69.933594 61.226562 69.863281 61.285156 69.796875 61.351562 C 69.664062 61.460938 69.539062 61.574219 69.417969 61.695312 C 69.355469 61.746094 69.296875 61.796875 69.242188 61.855469 C 69.132812 61.960938 69.027344 62.070312 68.890625 62.191406 C 68.796875 62.285156 68.703125 62.378906 68.613281 62.476562 L 64.503906 62.476562 C 64.269531 62.476562 64.046875 62.519531 63.832031 62.609375 C 63.617188 62.699219 63.425781 62.828125 63.261719 62.992188 C 63.097656 63.15625 62.972656 63.34375 62.882812 63.5625 C 62.792969 63.777344 62.746094 64 62.746094 64.234375 L 62.746094 70.074219 C 62.75 70.464844 62.867188 70.816406 63.101562 71.128906 C 63.335938 71.4375 63.644531 71.648438 64.019531 71.753906 C 64.003906 71.835938 63.988281 71.921875 63.96875 72.039062 L 63.945312 72.234375 C 63.933594 72.324219 63.921875 72.414062 63.917969 72.5 L 63.824219 73.4375 C 63.824219 73.515625 63.816406 73.59375 63.800781 73.734375 C 63.792969 73.910156 63.789062 74.089844 63.789062 74.3125 C 63.472656 74.453125 63.21875 74.667969 63.03125 74.957031 C 62.84375 75.246094 62.746094 75.566406 62.746094 75.914062 L 62.746094 81.753906 C 62.746094 81.988281 62.792969 82.210938 62.882812 82.425781 C 62.972656 82.640625 63.097656 82.832031 63.261719 82.996094 C 63.429688 83.160156 63.617188 83.285156 63.832031 83.375 C 64.046875 83.464844 64.273438 83.507812 64.503906 83.507812 L 66.207031 83.507812 L 66.886719 84.582031 C 66.914062 84.628906 66.949219 84.675781 67.035156 84.796875 L 67.320312 85.175781 L 67.410156 85.300781 C 67.867188 85.902344 68.363281 86.472656 68.894531 87.007812 C 69.476562 87.59375 70.097656 88.136719 70.753906 88.632812 Z M 76.785156 112.914062 L 34.316406 112.914062 L 34.316406 92.160156 L 52.8125 92.160156 L 52.8125 94.210938 L 40.976562 94.210938 C 40.738281 94.210938 40.511719 94.257812 40.296875 94.347656 C 40.078125 94.4375 39.886719 94.566406 39.71875 94.730469 C 39.554688 94.898438 39.425781 95.089844 39.335938 95.308594 C 39.246094 95.527344 39.199219 95.753906 39.199219 95.988281 C 39.199219 96.222656 39.246094 96.449219 39.335938 96.667969 C 39.425781 96.882812 39.554688 97.078125 39.71875 97.242188 C 39.886719 97.410156 40.078125 97.539062 40.296875 97.628906 C 40.511719 97.71875 40.738281 97.761719 40.976562 97.761719 L 52.8125 97.761719 L 52.8125 102.464844 L 40.792969 102.464844 C 40.554688 102.464844 40.328125 102.507812 40.113281 102.597656 C 39.894531 102.6875 39.703125 102.816406 39.535156 102.984375 C 39.371094 103.148438 39.242188 103.339844 39.152344 103.558594 C 39.0625 103.777344 39.015625 104.003906 39.015625 104.238281 C 39.015625 104.472656 39.0625 104.699219 39.152344 104.917969 C 39.242188 105.136719 39.371094 105.328125 39.535156 105.492188 C 39.703125 105.660156 39.894531 105.789062 40.113281 105.878906 C 40.328125 105.96875 40.554688 106.015625 40.792969 106.015625 L 52.8125 106.015625 L 52.8125 106.117188 C 52.800781 106.585938 52.957031 106.988281 53.289062 107.320312 C 53.304688 107.339844 53.324219 107.359375 53.34375 107.378906 C 53.359375 107.398438 53.367188 107.402344 53.378906 107.414062 C 53.714844 107.746094 54.117188 107.90625 54.589844 107.894531 L 76.785156 107.894531 Z M 109.191406 104.34375 L 56.363281 104.34375 L 56.363281 92.160156 L 74.863281 92.160156 C 75.394531 92.160156 75.917969 92.09375 76.433594 91.957031 C 76.722656 91.886719 77 91.800781 77.277344 91.691406 C 78.71875 92.03125 80.183594 92.179688 81.667969 92.144531 C 83.152344 92.109375 84.605469 91.882812 86.03125 91.472656 C 87.457031 91.0625 88.808594 90.480469 90.085938 89.722656 C 91.359375 88.964844 92.519531 88.058594 93.5625 87 C 94.628906 85.9375 95.535156 84.753906 96.28125 83.449219 L 102.75 83.449219 C 102.992188 83.457031 103.226562 83.414062 103.453125 83.324219 C 103.679688 83.238281 103.882812 83.109375 104.054688 82.9375 C 104.230469 82.769531 104.363281 82.574219 104.457031 82.347656 C 104.554688 82.125 104.601562 81.890625 104.601562 81.648438 C 104.601562 81.40625 104.554688 81.171875 104.457031 80.949219 C 104.363281 80.722656 104.230469 80.527344 104.054688 80.359375 C 103.882812 80.1875 103.679688 80.058594 103.453125 79.972656 C 103.226562 79.882812 102.992188 79.84375 102.75 79.847656 L 97.878906 79.847656 C 98.414062 78.136719 98.679688 76.382812 98.675781 74.589844 C 98.683594 72.886719 98.441406 71.214844 97.949219 69.582031 C 97.804688 69.070312 97.632812 68.566406 97.4375 68.070312 C 96.867188 66.65625 96.125 65.335938 95.214844 64.109375 L 102.753906 64.109375 C 102.992188 64.109375 103.222656 64.066406 103.445312 63.972656 C 103.664062 63.882812 103.859375 63.753906 104.027344 63.582031 C 104.195312 63.414062 104.328125 63.21875 104.417969 63 C 104.507812 62.777344 104.554688 62.546875 104.554688 62.308594 C 104.554688 62.070312 104.507812 61.839844 104.417969 61.621094 C 104.328125 61.398438 104.195312 61.207031 104.027344 61.035156 C 103.859375 60.867188 103.664062 60.738281 103.445312 60.644531 C 103.222656 60.554688 102.992188 60.507812 102.753906 60.507812 L 91.648438 60.507812 C 90.171875 59.398438 88.558594 58.542969 86.808594 57.949219 L 96.21875 57.949219 C 96.457031 57.949219 96.6875 57.902344 96.910156 57.808594 C 97.128906 57.71875 97.324219 57.589844 97.492188 57.417969 C 97.660156 57.25 97.792969 57.054688 97.882812 56.835938 C 97.972656 56.613281 98.019531 56.386719 98.019531 56.148438 C 98.019531 55.90625 97.972656 55.679688 97.882812 55.457031 C 97.792969 55.238281 97.660156 55.042969 97.492188 54.875 C 97.324219 54.703125 97.128906 54.574219 96.910156 54.484375 C 96.6875 54.390625 96.457031 54.347656 96.21875 54.347656 L 81.554688 54.347656 L 81.554688 51.78125 L 96.21875 51.78125 C 96.457031 51.78125 96.6875 51.734375 96.910156 51.644531 C 97.128906 51.554688 97.324219 51.421875 97.492188 51.253906 C 97.660156 51.085938 97.792969 50.890625 97.882812 50.667969 C 97.972656 50.449219 98.019531 50.21875 98.019531 49.980469 C 98.019531 49.742188 97.972656 49.511719 97.882812 49.292969 C 97.792969 49.070312 97.660156 48.875 97.492188 48.707031 C 97.324219 48.539062 97.128906 48.410156 96.910156 48.316406 C 96.6875 48.226562 96.457031 48.179688 96.21875 48.179688 L 81.554688 48.179688 L 81.554688 34.574219 L 109.175781 34.574219 L 109.175781 103.085938 L 109.195312 103.085938 Z M 34.613281 39.101562 L 28.628906 39.101562 C 28.394531 39.101562 28.171875 39.148438 27.953125 39.238281 C 27.738281 39.328125 27.550781 39.457031 27.386719 39.621094 C 27.21875 39.789062 27.09375 39.980469 27.003906 40.195312 C 26.917969 40.410156 26.871094 40.636719 26.871094 40.871094 L 26.871094 46.703125 C 26.871094 46.9375 26.917969 47.160156 27.003906 47.378906 C 27.09375 47.59375 27.21875 47.785156 27.386719 47.949219 C 27.550781 48.117188 27.738281 48.246094 27.953125 48.335938 C 28.171875 48.425781 28.394531 48.472656 28.628906 48.472656 L 34.613281 48.472656 C 34.847656 48.472656 35.074219 48.425781 35.292969 48.335938 C 35.507812 48.246094 35.699219 48.117188 35.863281 47.953125 C 36.03125 47.789062 36.160156 47.597656 36.25 47.378906 C 36.339844 47.164062 36.382812 46.9375 36.382812 46.703125 L 36.382812 40.871094 C 36.382812 40.636719 36.339844 40.410156 36.25 40.191406 C 36.160156 39.976562 36.03125 39.785156 35.863281 39.621094 C 35.699219 39.453125 35.507812 39.324219 35.292969 39.234375 C 35.074219 39.144531 34.847656 39.101562 34.613281 39.101562 Z M 32.84375 44.945312 L 30.398438 44.945312 L 30.398438 42.636719 L 32.847656 42.636719 Z M 58.53125 62.460938 L 52.546875 62.460938 C 52.3125 62.460938 52.085938 62.507812 51.871094 62.597656 C 51.65625 62.6875 51.464844 62.816406 51.300781 62.980469 C 51.136719 63.148438 51.011719 63.335938 50.921875 63.554688 C 50.832031 63.769531 50.789062 63.996094 50.789062 64.230469 L 50.789062 70.0625 C 50.789062 70.296875 50.832031 70.519531 50.921875 70.738281 C 51.011719 70.953125 51.136719 71.144531 51.300781 71.308594 C 51.464844 71.476562 51.65625 71.601562 51.871094 71.691406 C 52.085938 71.785156 52.3125 71.828125 52.546875 71.832031 L 58.53125 71.832031 C 58.765625 71.828125 58.988281 71.78125 59.203125 71.691406 C 59.417969 71.601562 59.609375 71.472656 59.773438 71.308594 C 59.9375 71.140625 60.0625 70.953125 60.152344 70.734375 C 60.242188 70.519531 60.289062 70.296875 60.289062 70.0625 L 60.289062 64.230469 C 60.289062 63.996094 60.242188 63.769531 60.152344 63.554688 C 60.066406 63.339844 59.9375 63.148438 59.773438 62.984375 C 59.609375 62.816406 59.417969 62.6875 59.203125 62.597656 C 58.988281 62.507812 58.765625 62.460938 58.53125 62.460938 Z M 56.761719 68.304688 L 54.316406 68.304688 L 54.316406 65.980469 L 56.761719 65.980469 Z M 46.574219 62.460938 L 40.585938 62.460938 C 40.351562 62.460938 40.128906 62.503906 39.910156 62.59375 C 39.695312 62.683594 39.503906 62.8125 39.339844 62.980469 C 39.175781 63.144531 39.046875 63.335938 38.957031 63.550781 C 38.867188 63.769531 38.824219 63.996094 38.824219 64.230469 L 38.824219 70.0625 C 38.824219 70.296875 38.867188 70.519531 38.957031 70.738281 C 39.046875 70.953125 39.171875 71.144531 39.339844 71.308594 C 39.503906 71.476562 39.691406 71.601562 39.90625 71.691406 C 40.125 71.785156 40.347656 71.828125 40.582031 71.832031 L 46.566406 71.832031 C 46.800781 71.828125 47.023438 71.785156 47.242188 71.691406 C 47.457031 71.601562 47.644531 71.476562 47.8125 71.308594 C 47.976562 71.144531 48.101562 70.953125 48.191406 70.738281 C 48.28125 70.519531 48.324219 70.296875 48.324219 70.0625 L 48.324219 64.230469 C 48.324219 63.996094 48.28125 63.769531 48.191406 63.554688 C 48.105469 63.339844 47.976562 63.148438 47.8125 62.984375 C 47.648438 62.816406 47.460938 62.6875 47.246094 62.597656 C 47.03125 62.507812 46.804688 62.460938 46.574219 62.460938 Z M 44.804688 68.304688 L 42.355469 68.304688 L 42.355469 65.980469 L 44.800781 65.980469 Z M 34.613281 62.460938 L 28.628906 62.460938 C 28.394531 62.460938 28.171875 62.507812 27.953125 62.597656 C 27.738281 62.6875 27.550781 62.816406 27.382812 62.980469 C 27.21875 63.148438 27.09375 63.339844 27.003906 63.554688 C 26.917969 63.769531 26.871094 63.996094 26.871094 64.230469 L 26.871094 70.0625 C 26.871094 70.296875 26.917969 70.519531 27.003906 70.738281 C 27.09375 70.953125 27.21875 71.144531 27.386719 71.308594 C 27.550781 71.476562 27.738281 71.601562 27.957031 71.691406 C 28.171875 71.785156 28.394531 71.828125 28.628906 71.832031 L 34.613281 71.832031 C 34.847656 71.828125 35.074219 71.785156 35.292969 71.695312 C 35.507812 71.605469 35.699219 71.476562 35.863281 71.3125 C 36.03125 71.144531 36.160156 70.957031 36.25 70.738281 C 36.339844 70.523438 36.382812 70.296875 36.382812 70.0625 L 36.382812 64.230469 C 36.382812 63.996094 36.339844 63.769531 36.25 63.550781 C 36.160156 63.335938 36.03125 63.144531 35.867188 62.976562 C 35.699219 62.8125 35.507812 62.683594 35.292969 62.59375 C 35.074219 62.503906 34.851562 62.460938 34.613281 62.460938 Z M 32.84375 68.304688 L 30.398438 68.304688 L 30.398438 65.980469 L 32.847656 65.980469 Z M 46.574219 50.773438 L 40.585938 50.773438 C 40.351562 50.773438 40.125 50.820312 39.910156 50.910156 C 39.695312 51 39.503906 51.128906 39.335938 51.296875 C 39.171875 51.460938 39.046875 51.652344 38.957031 51.871094 C 38.867188 52.089844 38.824219 52.3125 38.824219 52.550781 L 38.824219 58.382812 C 38.824219 58.617188 38.867188 58.839844 38.957031 59.058594 C 39.046875 59.273438 39.171875 59.464844 39.339844 59.628906 C 39.503906 59.796875 39.691406 59.921875 39.90625 60.011719 C 40.125 60.105469 40.347656 60.148438 40.582031 60.152344 L 46.566406 60.152344 C 46.800781 60.148438 47.023438 60.105469 47.242188 60.011719 C 47.457031 59.921875 47.644531 59.796875 47.8125 59.628906 C 47.976562 59.464844 48.101562 59.273438 48.191406 59.058594 C 48.28125 58.839844 48.324219 58.617188 48.324219 58.382812 L 48.324219 52.550781 C 48.324219 52.316406 48.28125 52.089844 48.191406 51.875 C 48.101562 51.660156 47.976562 51.46875 47.8125 51.304688 C 47.648438 51.136719 47.460938 51.007812 47.246094 50.917969 C 47.03125 50.828125 46.804688 50.78125 46.574219 50.78125 Z M 44.804688 56.617188 L 42.355469 56.617188 L 42.355469 54.316406 L 44.800781 54.316406 Z M 58.53125 74.136719 L 52.546875 74.136719 C 52.3125 74.140625 52.085938 74.183594 51.871094 74.277344 C 51.65625 74.367188 51.464844 74.496094 51.300781 74.660156 C 51.136719 74.824219 51.011719 75.015625 50.921875 75.234375 C 50.832031 75.449219 50.789062 75.675781 50.789062 75.910156 L 50.789062 81.742188 C 50.789062 81.972656 50.832031 82.199219 50.921875 82.414062 C 51.011719 82.632812 51.136719 82.820312 51.300781 82.988281 C 51.464844 83.152344 51.65625 83.28125 51.871094 83.371094 C 52.085938 83.460938 52.3125 83.507812 52.546875 83.507812 L 58.53125 83.507812 C 58.765625 83.507812 58.988281 83.460938 59.203125 83.371094 C 59.417969 83.28125 59.609375 83.152344 59.773438 82.984375 C 59.9375 82.820312 60.066406 82.628906 60.152344 82.414062 C 60.242188 82.199219 60.289062 81.972656 60.289062 81.738281 L 60.289062 75.910156 C 60.289062 75.675781 60.242188 75.449219 60.152344 75.234375 C 60.066406 75.019531 59.9375 74.828125 59.773438 74.664062 C 59.609375 74.496094 59.417969 74.367188 59.203125 74.277344 C 58.988281 74.1875 58.765625 74.140625 58.53125 74.136719 Z M 56.761719 79.980469 L 54.316406 79.980469 L 54.316406 77.664062 L 56.761719 77.664062 Z M 46.574219 74.136719 L 40.585938 74.136719 C 40.351562 74.140625 40.128906 74.183594 39.910156 74.273438 C 39.695312 74.363281 39.503906 74.492188 39.339844 74.660156 C 39.175781 74.824219 39.046875 75.015625 38.957031 75.230469 C 38.867188 75.449219 38.824219 75.675781 38.824219 75.910156 L 38.824219 81.742188 C 38.824219 81.976562 38.867188 82.199219 38.957031 82.417969 C 39.046875 82.632812 39.175781 82.824219 39.339844 82.988281 C 39.503906 83.15625 39.695312 83.285156 39.910156 83.375 C 40.128906 83.464844 40.351562 83.507812 40.585938 83.507812 L 46.574219 83.507812 C 46.804688 83.507812 47.03125 83.460938 47.246094 83.371094 C 47.460938 83.28125 47.652344 83.152344 47.816406 82.988281 C 47.980469 82.820312 48.109375 82.628906 48.195312 82.414062 C 48.285156 82.199219 48.328125 81.972656 48.328125 81.738281 L 48.328125 75.910156 C 48.328125 75.675781 48.285156 75.449219 48.195312 75.234375 C 48.109375 75.015625 47.980469 74.824219 47.816406 74.660156 C 47.652344 74.496094 47.460938 74.367188 47.246094 74.277344 C 47.03125 74.183594 46.804688 74.140625 46.574219 74.136719 Z M 44.804688 79.980469 L 42.355469 79.980469 L 42.355469 77.664062 L 44.800781 77.664062 Z M 58.53125 50.78125 L 52.546875 50.78125 C 52.3125 50.78125 52.085938 50.828125 51.871094 50.917969 C 51.65625 51.007812 51.464844 51.136719 51.300781 51.300781 C 51.136719 51.46875 51.011719 51.660156 50.921875 51.875 C 50.832031 52.089844 50.789062 52.316406 50.789062 52.550781 L 50.789062 58.382812 C 50.789062 58.617188 50.832031 58.839844 50.921875 59.058594 C 51.011719 59.273438 51.136719 59.464844 51.300781 59.628906 C 51.464844 59.796875 51.65625 59.921875 51.871094 60.011719 C 52.085938 60.105469 52.3125 60.148438 52.546875 60.152344 L 58.53125 60.152344 C 58.765625 60.148438 58.988281 60.101562 59.203125 60.011719 C 59.417969 59.921875 59.609375 59.792969 59.773438 59.628906 C 59.9375 59.460938 60.0625 59.273438 60.152344 59.054688 C 60.242188 58.839844 60.289062 58.617188 60.289062 58.382812 L 60.289062 52.550781 C 60.289062 52.316406 60.242188 52.089844 60.15625 51.875 C 60.066406 51.660156 59.9375 51.46875 59.773438 51.300781 C 59.609375 51.136719 59.421875 51.007812 59.203125 50.917969 C 58.988281 50.828125 58.765625 50.78125 58.53125 50.78125 Z M 56.761719 56.625 L 54.316406 56.625 L 54.316406 54.316406 L 56.761719 54.316406 Z M 34.613281 50.78125 L 28.628906 50.78125 C 28.394531 50.78125 28.171875 50.828125 27.953125 50.917969 C 27.738281 51.007812 27.550781 51.136719 27.386719 51.300781 C 27.21875 51.46875 27.09375 51.660156 27.003906 51.875 C 26.917969 52.089844 26.871094 52.316406 26.871094 52.550781 L 26.871094 58.382812 C 26.871094 58.617188 26.917969 58.839844 27.003906 59.058594 C 27.09375 59.273438 27.21875 59.464844 27.386719 59.628906 C 27.550781 59.796875 27.738281 59.921875 27.957031 60.011719 C 28.171875 60.105469 28.394531 60.148438 28.628906 60.152344 L 34.613281 60.152344 C 34.847656 60.148438 35.074219 60.105469 35.292969 60.015625 C 35.507812 59.925781 35.699219 59.796875 35.863281 59.632812 C 36.03125 59.464844 36.160156 59.277344 36.25 59.058594 C 36.339844 58.84375 36.382812 58.617188 36.382812 58.382812 L 36.382812 52.550781 C 36.382812 52.316406 36.339844 52.089844 36.25 51.871094 C 36.160156 51.65625 36.03125 51.464844 35.863281 51.300781 C 35.699219 51.132812 35.507812 51.003906 35.292969 50.914062 C 35.074219 50.824219 34.847656 50.78125 34.613281 50.78125 Z M 32.84375 56.625 L 30.398438 56.625 L 30.398438 54.316406 L 32.847656 54.316406 Z M 58.53125 39.09375 L 52.546875 39.09375 C 52.3125 39.09375 52.085938 39.140625 51.871094 39.230469 C 51.65625 39.320312 51.464844 39.449219 51.300781 39.617188 C 51.136719 39.78125 51.011719 39.972656 50.921875 40.1875 C 50.832031 40.402344 50.789062 40.628906 50.789062 40.863281 L 50.789062 46.738281 C 50.789062 46.96875 50.835938 47.191406 50.925781 47.402344 C 51.015625 47.617188 51.144531 47.804688 51.308594 47.96875 C 51.472656 48.128906 51.664062 48.253906 51.875 48.34375 C 52.089844 48.429688 52.3125 48.472656 52.546875 48.472656 L 58.53125 48.472656 C 58.765625 48.472656 58.988281 48.425781 59.203125 48.335938 C 59.421875 48.246094 59.609375 48.117188 59.773438 47.949219 C 59.9375 47.785156 60.066406 47.59375 60.15625 47.378906 C 60.242188 47.160156 60.289062 46.9375 60.289062 46.703125 L 60.289062 40.871094 C 60.296875 40.425781 60.148438 40.042969 59.847656 39.71875 C 59.507812 39.304688 59.070312 39.097656 58.53125 39.101562 Z M 56.761719 44.9375 L 54.316406 44.9375 L 54.316406 42.636719 L 56.761719 42.636719 Z M 46.574219 39.09375 L 40.585938 39.09375 C 40.351562 39.09375 40.125 39.140625 39.910156 39.230469 C 39.695312 39.320312 39.503906 39.449219 39.335938 39.617188 C 39.171875 39.78125 39.046875 39.972656 38.957031 40.191406 C 38.867188 40.410156 38.824219 40.632812 38.824219 40.871094 L 38.824219 46.703125 C 38.824219 46.9375 38.867188 47.160156 38.957031 47.378906 C 39.046875 47.59375 39.171875 47.785156 39.339844 47.949219 C 39.503906 48.117188 39.691406 48.246094 39.90625 48.335938 C 40.125 48.425781 40.347656 48.472656 40.582031 48.472656 L 46.566406 48.472656 C 46.800781 48.472656 47.027344 48.429688 47.242188 48.339844 C 47.460938 48.25 47.652344 48.125 47.816406 47.957031 C 47.984375 47.789062 48.109375 47.597656 48.195312 47.382812 C 48.285156 47.164062 48.328125 46.9375 48.324219 46.703125 L 48.324219 40.871094 C 48.324219 40.636719 48.28125 40.410156 48.191406 40.195312 C 48.101562 39.980469 47.976562 39.789062 47.8125 39.625 C 47.648438 39.457031 47.460938 39.328125 47.246094 39.238281 C 47.03125 39.148438 46.804688 39.101562 46.574219 39.101562 Z M 44.804688 44.9375 L 42.355469 44.9375 L 42.355469 42.636719 L 44.800781 42.636719 Z M 103.539062 98.398438 L 63.25 98.398438 C 63.019531 98.386719 62.800781 98.335938 62.59375 98.242188 C 62.382812 98.148438 62.199219 98.019531 62.039062 97.851562 C 61.878906 97.6875 61.757812 97.5 61.671875 97.285156 C 61.585938 97.070312 61.542969 96.851562 61.542969 96.621094 C 61.542969 96.390625 61.585938 96.171875 61.671875 95.957031 C 61.757812 95.742188 61.878906 95.554688 62.039062 95.390625 C 62.199219 95.222656 62.382812 95.09375 62.59375 95 C 62.800781 94.90625 63.019531 94.855469 63.25 94.84375 L 103.539062 94.84375 C 103.777344 94.84375 104.003906 94.890625 104.222656 94.980469 C 104.441406 95.070312 104.632812 95.199219 104.800781 95.367188 C 104.964844 95.535156 105.09375 95.726562 105.183594 95.945312 C 105.277344 96.164062 105.320312 96.390625 105.320312 96.625 C 105.320312 96.863281 105.277344 97.089844 105.183594 97.308594 C 105.09375 97.523438 104.964844 97.71875 104.800781 97.882812 C 104.632812 98.050781 104.441406 98.179688 104.222656 98.269531 C 104.003906 98.359375 103.777344 98.40625 103.539062 98.40625 Z M 103.539062 98.398438 " fill-opacity="1" fill-rule="nonzero"></path></g></svg> 