<?xml version="1.0" encoding="UTF-8"?> <svg xmlns="http://www.w3.org/2000/svg" xmlns:xlink="http://www.w3.org/1999/xlink" width="175" zoomAndPan="magnify" viewBox="0 0 131.25 131.249998" height="175" preserveAspectRatio="xMidYMid meet" version="1.0"><defs><clipPath id="5f973c2155"><path d="M 0 0 L 130.503906 0 L 130.503906 130.503906 L 0 130.503906 Z M 0 0 " clip-rule="nonzero"></path></clipPath><clipPath id="ea21bebdfc"><path d="M 31 13.636719 L 99 13.636719 L 99 81 L 31 81 Z M 31 13.636719 " clip-rule="nonzero"></path></clipPath><clipPath id="f78234599c"><path d="M 7.09375 33 L 51 33 L 51 104 L 7.09375 104 Z M 7.09375 33 " clip-rule="nonzero"></path></clipPath><clipPath id="ed2f6855d3"><path d="M 69 90 L 99 90 L 99 116.546875 L 69 116.546875 Z M 69 90 " clip-rule="nonzero"></path></clipPath></defs><g clip-path="url(#5f973c2155)"><path fill="#ffffff" d="M 0 0 L 130.503906 0 L 130.503906 130.503906 L 0 130.503906 Z M 0 0 " fill-opacity="1" fill-rule="nonzero"></path><path fill="#ffffff" d="M 0 0 L 130.503906 0 L 130.503906 130.503906 L 0 130.503906 Z M 0 0 " fill-opacity="1" fill-rule="nonzero"></path></g><g clip-path="url(#ea21bebdfc)"><path fill="#026da5" d="M 64.683594 80.878906 C 64.097656 80.878906 63.539062 80.648438 63.125 80.234375 C 47.421875 64.53125 31.179688 48.289062 31.179688 31.726562 C 31.179688 21.878906 39.183594 13.871094 49.023438 13.871094 C 55.90625 13.871094 61.699219 16.824219 64.703125 21.417969 C 67.65625 16.554688 73.082031 13.871094 80.324219 13.871094 C 90.171875 13.871094 98.179688 21.878906 98.179688 31.726562 C 98.179688 48.273438 81.960938 64.5 66.28125 80.191406 L 66.234375 80.234375 C 65.824219 80.648438 65.265625 80.878906 64.683594 80.878906 Z M 49.023438 18.269531 C 41.613281 18.269531 35.578125 24.304688 35.578125 31.722656 C 35.578125 45.960938 50.109375 60.980469 64.679688 75.570312 C 79.242188 60.980469 93.78125 45.960938 93.78125 31.722656 C 93.78125 24.304688 87.742188 18.269531 80.324219 18.269531 C 74.953125 18.269531 68.25 19.992188 66.84375 28.21875 C 66.660156 29.308594 65.691406 30.09375 64.589844 30.042969 C 63.484375 30 62.585938 29.140625 62.492188 28.039062 C 61.925781 21.625 55.292969 18.269531 49.023438 18.269531 Z M 49.023438 18.269531 " fill-opacity="1" fill-rule="nonzero"></path></g><path fill="#026da5" d="M 72.230469 49.066406 L 56.929688 49.066406 C 55.410156 49.066406 54.183594 47.839844 54.183594 46.320312 C 54.183594 44.800781 55.410156 43.574219 56.929688 43.574219 L 72.230469 43.574219 C 73.75 43.574219 74.976562 44.804688 74.976562 46.320312 C 74.976562 47.839844 73.75 49.066406 72.230469 49.066406 Z M 72.230469 49.066406 " fill-opacity="1" fill-rule="nonzero"></path><path fill="#026da5" d="M 64.578125 56.722656 C 63.058594 56.722656 61.832031 55.488281 61.832031 53.972656 L 61.832031 38.667969 C 61.832031 37.148438 63.058594 35.917969 64.578125 35.917969 C 66.097656 35.917969 67.328125 37.148438 67.328125 38.667969 L 67.328125 53.972656 C 67.328125 55.488281 66.097656 56.722656 64.578125 56.722656 Z M 64.578125 56.722656 " fill-opacity="1" fill-rule="nonzero"></path><g clip-path="url(#f78234599c)"><path fill="#026da5" d="M 34.238281 103.507812 C 33.59375 103.507812 32.964844 103.230469 32.535156 102.707031 C 31.78125 101.785156 30.804688 100.617188 29.667969 99.265625 C 26.054688 94.949219 21.101562 89.039062 17.195312 83.8125 C 16.207031 82.496094 13.511719 77.5 11.21875 71.910156 C 8.21875 64.585938 7.089844 59.191406 7.871094 55.875 L 12.378906 36.75 C 12.824219 34.871094 14.300781 33.660156 16.136719 33.660156 C 19.855469 33.660156 23.820312 38.472656 24.019531 46.523438 C 24.023438 46.6875 24.007812 46.851562 23.976562 47.011719 L 23.917969 47.3125 C 22.726562 53.226562 22.125 56.195312 22.542969 58.585938 C 22.648438 59.195312 22.828125 59.804688 23.085938 60.453125 C 23.988281 59.097656 25.445312 58.324219 27.132812 58.324219 C 29.839844 58.324219 32.96875 60.234375 36.421875 64 C 37.933594 65.464844 39.804688 67.328125 42.824219 70.808594 C 43.550781 71.648438 44.085938 72.234375 44.511719 72.703125 C 46.066406 74.410156 46.285156 74.753906 46.6875 76.960938 C 46.800781 77.578125 46.953125 78.421875 47.226562 79.644531 L 50.285156 93.351562 C 50.503906 94.316406 50.050781 95.300781 49.183594 95.765625 L 35.28125 103.25 C 34.949219 103.421875 34.589844 103.507812 34.238281 103.507812 Z M 16.542969 38.238281 L 12.152344 56.882812 C 10.859375 62.386719 19.027344 78.925781 20.714844 81.171875 C 24.554688 86.304688 29.457031 92.164062 33.042969 96.441406 C 33.671875 97.195312 34.253906 97.890625 34.78125 98.519531 L 45.628906 92.679688 L 42.933594 80.597656 C 42.640625 79.289062 42.476562 78.394531 42.363281 77.742188 C 42.273438 77.269531 42.183594 76.78125 42.132812 76.679688 C 42.058594 76.539062 41.6875 76.132812 41.261719 75.660156 C 40.839844 75.199219 40.261719 74.570312 39.5 73.6875 C 36.5625 70.304688 34.765625 68.519531 33.3125 67.109375 C 33.28125 67.082031 33.25 67.046875 33.222656 67.015625 C 29.480469 62.929688 27.492188 62.722656 27.128906 62.722656 C 26.855469 62.722656 26.804688 62.789062 26.722656 62.925781 C 26.308594 63.652344 26.28125 65.855469 27.933594 68.71875 C 28.042969 68.855469 28.164062 69.003906 28.300781 69.171875 L 28.550781 69.46875 C 29.289062 70.34375 30.832031 72.160156 33.851562 75.796875 C 33.867188 75.820312 33.882812 75.84375 33.902344 75.867188 C 34.554688 76.722656 34.683594 77.570312 34.28125 78.390625 C 33.910156 79.140625 33.148438 79.617188 32.308594 79.617188 C 31.265625 79.617188 30.832031 79.101562 29.964844 78.078125 C 29.5625 77.605469 29.011719 76.949219 28.410156 76.226562 C 27.191406 74.757812 25.785156 73.054688 24.914062 71.984375 C 24.535156 71.535156 24.382812 71.347656 24.246094 71.132812 L 23.796875 70.429688 C 17.125 60.003906 17.003906 59.332031 19.601562 46.441406 L 19.613281 46.390625 C 19.433594 41.28125 17.53125 38.882812 16.542969 38.238281 Z M 16.542969 38.238281 " fill-opacity="1" fill-rule="nonzero"></path></g><path fill="#026da5" d="M 39.339844 115.628906 C 39.128906 115.628906 38.917969 115.597656 38.710938 115.535156 C 38.152344 115.367188 37.683594 114.984375 37.40625 114.472656 L 31.203125 102.933594 C 30.925781 102.421875 30.863281 101.820312 31.03125 101.257812 C 31.203125 100.703125 31.582031 100.230469 32.097656 99.957031 L 50.210938 90.21875 C 51.277344 89.644531 52.613281 90.042969 53.1875 91.113281 L 59.390625 102.640625 C 59.667969 103.15625 59.730469 103.757812 59.5625 104.316406 C 59.394531 104.875 59.011719 105.34375 58.5 105.621094 L 40.386719 115.367188 C 40.0625 115.539062 39.703125 115.628906 39.339844 115.628906 Z M 36.117188 102.789062 L 40.238281 110.453125 L 54.480469 102.789062 L 50.359375 95.132812 Z M 36.117188 102.789062 " fill-opacity="1" fill-rule="nonzero"></path><path fill="#026da5" d="M 95.226562 104.511719 C 94.871094 104.511719 94.511719 104.429688 94.1875 104.25 L 80.273438 96.769531 C 79.40625 96.300781 78.953125 95.316406 79.167969 94.351562 L 82.234375 80.644531 C 82.511719 79.414062 82.664062 78.566406 82.773438 77.949219 C 83.171875 75.746094 83.394531 75.398438 84.957031 73.691406 C 85.386719 73.226562 85.914062 72.644531 86.636719 71.8125 C 89.660156 68.332031 91.53125 66.46875 93.042969 65.003906 C 96.496094 61.238281 99.625 59.328125 102.332031 59.328125 C 104.015625 59.328125 105.472656 60.097656 106.371094 61.457031 C 106.632812 60.804688 106.8125 60.195312 106.921875 59.585938 C 107.335938 57.199219 106.738281 54.230469 105.546875 48.3125 L 105.488281 48.015625 C 105.453125 47.855469 105.441406 47.691406 105.441406 47.527344 C 105.644531 39.472656 109.609375 34.660156 113.324219 34.660156 C 115.164062 34.660156 116.636719 35.871094 117.074219 37.746094 L 121.585938 56.878906 C 123.464844 64.835938 113.671875 82.929688 112.269531 84.8125 C 108.359375 90.042969 103.40625 95.953125 99.789062 100.269531 C 98.65625 101.621094 97.679688 102.789062 96.925781 103.707031 C 96.496094 104.234375 95.867188 104.511719 95.226562 104.511719 Z M 83.824219 93.6875 L 94.679688 99.527344 C 95.203125 98.898438 95.785156 98.199219 96.417969 97.449219 C 100 93.171875 104.90625 87.3125 108.746094 82.183594 C 110.484375 79.84375 118.617188 63.460938 117.300781 57.886719 L 112.910156 39.238281 C 111.929688 39.886719 110.03125 42.285156 109.84375 47.394531 L 109.859375 47.445312 C 112.453125 60.335938 112.332031 61.003906 105.652344 71.425781 L 105.203125 72.128906 C 105.066406 72.351562 104.898438 72.554688 104.535156 72.984375 C 103.679688 74.042969 102.308594 75.707031 101.039062 77.234375 C 100.4375 77.957031 99.894531 78.613281 99.492188 79.082031 C 98.632812 80.097656 98.199219 80.609375 97.175781 80.617188 C 97.164062 80.617188 97.15625 80.617188 97.152344 80.617188 C 96.316406 80.617188 95.554688 80.148438 95.183594 79.402344 C 94.769531 78.582031 94.898438 77.730469 95.554688 76.867188 C 95.574219 76.847656 95.589844 76.824219 95.609375 76.800781 C 98.46875 73.347656 99.972656 71.570312 100.777344 70.613281 L 101.136719 70.183594 C 101.277344 70.011719 101.40625 69.855469 101.515625 69.71875 C 103.167969 66.855469 103.144531 64.652344 102.734375 63.929688 C 102.652344 63.792969 102.601562 63.726562 102.328125 63.726562 C 101.96875 63.726562 99.976562 63.933594 96.238281 68.019531 C 96.207031 68.050781 96.179688 68.085938 96.144531 68.113281 C 94.691406 69.523438 92.894531 71.308594 89.957031 74.695312 C 89.195312 75.566406 88.621094 76.199219 88.199219 76.65625 C 87.785156 77.109375 87.394531 77.535156 87.324219 77.675781 C 87.269531 77.773438 87.1875 78.257812 87.097656 78.726562 C 86.984375 79.382812 86.816406 80.28125 86.523438 81.605469 Z M 83.824219 93.6875 " fill-opacity="1" fill-rule="nonzero"></path><g clip-path="url(#ed2f6855d3)"><path fill="#026da5" d="M 90.121094 116.625 C 89.761719 116.625 89.402344 116.535156 89.078125 116.363281 L 70.964844 106.625 C 70.449219 106.347656 70.066406 105.878906 69.902344 105.320312 C 69.730469 104.761719 69.792969 104.160156 70.066406 103.644531 L 76.273438 92.117188 C 76.847656 91.046875 78.183594 90.648438 79.25 91.21875 L 97.359375 100.960938 C 98.425781 101.535156 98.828125 102.867188 98.253906 103.9375 L 92.058594 115.464844 C 91.78125 115.980469 91.3125 116.363281 90.753906 116.53125 C 90.542969 116.59375 90.332031 116.625 90.121094 116.625 Z M 74.984375 103.792969 L 89.222656 111.449219 L 93.335938 103.792969 L 79.101562 96.136719 Z M 74.984375 103.792969 " fill-opacity="1" fill-rule="nonzero"></path></g></svg> 