<?xml version="1.0" encoding="UTF-8"?> <svg xmlns="http://www.w3.org/2000/svg" xmlns:xlink="http://www.w3.org/1999/xlink" width="175" zoomAndPan="magnify" viewBox="0 0 131.25 131.249998" height="175" preserveAspectRatio="xMidYMid meet" version="1.0"><defs><clipPath id="5c2b4f13a5"><path d="M 0 0 L 130.503906 0 L 130.503906 130.503906 L 0 130.503906 Z M 0 0 " clip-rule="nonzero"></path></clipPath><clipPath id="7425c79a17"><path d="M 64 59 L 118.917969 59 L 118.917969 116.546875 L 64 116.546875 Z M 64 59 " clip-rule="nonzero"></path></clipPath><clipPath id="9a0844bf6a"><path d="M 21 13.636719 L 28 13.636719 L 28 36 L 21 36 Z M 21 13.636719 " clip-rule="nonzero"></path></clipPath><clipPath id="d74d340f8b"><path d="M 40 13.636719 L 47 13.636719 L 47 36 L 40 36 Z M 40 13.636719 " clip-rule="nonzero"></path></clipPath><clipPath id="9132d7e548"><path d="M 11.53125 37 L 57 37 L 57 44 L 11.53125 44 Z M 11.53125 37 " clip-rule="nonzero"></path></clipPath><clipPath id="6f8e251b48"><path d="M 29 88 L 38 88 L 38 116.546875 L 29 116.546875 Z M 29 88 " clip-rule="nonzero"></path></clipPath></defs><g clip-path="url(#5c2b4f13a5)"><path fill="#ffffff" d="M 0 0 L 130.503906 0 L 130.503906 130.503906 L 0 130.503906 Z M 0 0 " fill-opacity="1" fill-rule="nonzero"></path><path fill="#ffffff" d="M 0 0 L 130.503906 0 L 130.503906 130.503906 L 0 130.503906 Z M 0 0 " fill-opacity="1" fill-rule="nonzero"></path></g><path fill="#cb3433" d="M 100.996094 74.554688 L 100.996094 102.058594 C 100.996094 102.441406 101.320312 102.761719 101.699219 102.761719 L 107.136719 102.761719 C 107.519531 102.761719 107.839844 102.4375 107.839844 102.058594 L 107.839844 74.554688 C 107.839844 74.171875 107.515625 73.851562 107.136719 73.851562 L 101.699219 73.851562 C 101.316406 73.851562 100.996094 74.175781 100.996094 74.554688 Z M 100.996094 74.554688 " fill-opacity="1" fill-rule="evenodd"></path><g clip-path="url(#7425c79a17)"><path fill="#cb3433" d="M 114.628906 59.769531 L 68.847656 59.769531 C 66.460938 59.769531 64.523438 61.710938 64.523438 64.09375 L 64.523438 112.515625 C 64.523438 114.898438 66.460938 116.839844 68.847656 116.839844 L 114.628906 116.839844 C 117.015625 116.839844 118.953125 114.898438 118.953125 112.515625 L 118.953125 64.09375 C 118.953125 61.710938 117.015625 59.769531 114.628906 59.769531 Z M 98.449219 74.554688 C 98.449219 72.761719 99.910156 71.308594 101.699219 71.308594 L 107.132812 71.308594 C 108.925781 71.308594 110.382812 72.765625 110.382812 74.554688 L 110.382812 102.058594 C 110.382812 103.851562 108.925781 105.308594 107.132812 105.308594 L 101.699219 105.308594 C 99.90625 105.308594 98.449219 103.847656 98.449219 102.058594 Z M 85.019531 74.554688 L 85.019531 102.058594 C 85.019531 103.851562 83.5625 105.308594 81.773438 105.308594 L 76.335938 105.308594 C 74.542969 105.308594 73.089844 103.847656 73.089844 102.058594 L 73.089844 74.554688 C 73.089844 72.761719 74.546875 71.308594 76.335938 71.308594 L 81.773438 71.308594 C 83.566406 71.304688 85.019531 72.765625 85.019531 74.554688 Z M 85.019531 74.554688 " fill-opacity="1" fill-rule="evenodd"></path></g><path fill="#cb3433" d="M 75.636719 74.554688 L 75.636719 102.058594 C 75.636719 102.441406 75.957031 102.761719 76.339844 102.761719 L 81.777344 102.761719 C 82.160156 102.761719 82.480469 102.4375 82.480469 102.058594 L 82.480469 74.554688 C 82.480469 74.171875 82.15625 73.851562 81.777344 73.851562 L 76.339844 73.851562 C 75.957031 73.851562 75.636719 74.175781 75.636719 74.554688 Z M 75.636719 74.554688 " fill-opacity="1" fill-rule="evenodd"></path><g clip-path="url(#9a0844bf6a)"><path fill="#cb3433" d="M 21.300781 16.515625 L 21.300781 35.257812 L 27.035156 35.257812 L 27.035156 16.515625 C 27.035156 14.933594 25.75 13.648438 24.167969 13.648438 C 22.589844 13.652344 21.300781 14.9375 21.300781 16.515625 Z M 21.300781 16.515625 " fill-opacity="1" fill-rule="evenodd"></path></g><g clip-path="url(#d74d340f8b)"><path fill="#cb3433" d="M 40.71875 16.515625 L 40.71875 35.257812 L 46.453125 35.257812 L 46.453125 16.515625 C 46.453125 14.933594 45.167969 13.648438 43.585938 13.648438 C 42.003906 13.652344 40.71875 14.9375 40.71875 16.515625 Z M 40.71875 16.515625 " fill-opacity="1" fill-rule="evenodd"></path></g><g clip-path="url(#9132d7e548)"><path fill="#cb3433" d="M 54.046875 37.808594 L 13.710938 37.808594 C 12.507812 37.808594 11.523438 38.789062 11.523438 39.996094 L 11.523438 41.199219 C 11.523438 42.386719 12.472656 43.355469 13.652344 43.390625 L 13.714844 43.386719 C 13.742188 43.386719 13.765625 43.386719 13.792969 43.390625 L 53.96875 43.390625 C 53.996094 43.386719 54.023438 43.386719 54.050781 43.386719 L 54.113281 43.390625 C 55.289062 43.355469 56.238281 42.386719 56.238281 41.199219 L 56.238281 39.996094 C 56.234375 38.789062 55.253906 37.808594 54.046875 37.808594 Z M 54.046875 37.808594 " fill-opacity="1" fill-rule="evenodd"></path></g><path fill="#cb3433" d="M 52.773438 45.933594 L 14.984375 45.933594 L 14.984375 58.507812 C 14.984375 65.375 18.667969 71.398438 24.164062 74.707031 C 24.25 74.746094 24.332031 74.796875 24.410156 74.851562 C 27.195312 76.472656 30.429688 77.398438 33.878906 77.398438 C 37.324219 77.398438 40.554688 76.472656 43.339844 74.855469 C 43.421875 74.796875 43.507812 74.742188 43.597656 74.703125 C 49.09375 71.394531 52.773438 65.371094 52.773438 58.507812 Z M 52.773438 45.933594 " fill-opacity="1" fill-rule="evenodd"></path><g clip-path="url(#6f8e251b48)"><path fill="#cb3433" d="M 29.988281 88.601562 L 37.769531 88.601562 L 37.769531 116.839844 L 29.988281 116.839844 Z M 29.988281 88.601562 " fill-opacity="1" fill-rule="evenodd"></path></g><path fill="#cb3433" d="M 39.042969 86.058594 Z M 33.878906 79.949219 C 30.679688 79.949219 27.644531 79.246094 24.917969 77.984375 L 24.917969 82.894531 C 24.917969 84.640625 26.339844 86.058594 28.082031 86.058594 L 39.671875 86.058594 C 41.417969 86.058594 42.839844 84.640625 42.839844 82.894531 L 42.839844 77.984375 C 40.109375 79.242188 37.078125 79.949219 33.878906 79.949219 Z M 33.878906 79.949219 " fill-opacity="1" fill-rule="evenodd"></path></svg> 