<?xml version="1.0" encoding="UTF-8"?> <svg xmlns="http://www.w3.org/2000/svg" xmlns:xlink="http://www.w3.org/1999/xlink" width="200" zoomAndPan="magnify" viewBox="0 0 150 225" height="300" preserveAspectRatio="xMidYMid meet" version="1.0"><defs><clipPath id="a45ef4e493"><path d="M 22.402344 15 L 127.402344 15 L 127.402344 107.25 L 22.402344 107.25 Z M 22.402344 15 " clip-rule="nonzero"></path></clipPath></defs><rect x="-15" width="180" fill="#ffffff" y="-22.5" height="270" fill-opacity="1"></rect><rect x="-15" width="180" fill="#ffffff" y="-22.5" height="270" fill-opacity="1"></rect><path fill="#026da5" d="M 110.839844 24.890625 C 112.671875 24.890625 114.324219 25.628906 115.527344 26.832031 C 116.730469 28.035156 117.46875 29.683594 117.46875 31.519531 C 117.46875 33.355469 116.730469 35.003906 115.527344 36.207031 C 114.324219 37.410156 112.671875 38.148438 110.839844 38.148438 C 109.003906 38.148438 107.355469 37.410156 106.152344 36.207031 C 104.949219 35.003906 104.210938 33.355469 104.207031 31.519531 C 104.210938 29.683594 104.949219 28.035156 106.152344 26.832031 C 107.355469 25.628906 109.003906 24.890625 110.839844 24.890625 Z M 101.792969 31.519531 C 101.792969 34.011719 102.808594 36.28125 104.441406 37.914062 C 106.074219 39.550781 108.34375 40.566406 110.839844 40.566406 C 113.332031 40.566406 115.601562 39.550781 117.234375 37.914062 C 118.871094 36.28125 119.886719 34.011719 119.882812 31.519531 C 119.886719 29.023438 118.871094 26.753906 117.234375 25.121094 C 115.601562 23.488281 113.332031 22.472656 110.839844 22.472656 C 108.34375 22.472656 106.074219 23.488281 104.441406 25.121094 C 102.808594 26.753906 101.792969 29.023438 101.792969 31.519531 " fill-opacity="1" fill-rule="nonzero"></path><g clip-path="url(#a45ef4e493)"><path fill="#026da5" d="M 83.332031 42.621094 C 82.097656 42.621094 80.972656 43.125 80.164062 43.933594 C 79.355469 44.738281 78.851562 45.867188 78.855469 47.097656 C 78.851562 48.332031 79.355469 49.457031 80.164062 50.265625 C 80.972656 51.074219 82.097656 51.578125 83.332031 51.578125 L 90.480469 51.578125 L 90.480469 59.203125 L 31.457031 59.203125 C 31.085938 58.839844 30.671875 58.535156 30.226562 58.300781 C 29.675781 58.007812 29.082031 57.820312 28.46875 57.734375 L 28.46875 17.417969 L 90.480469 17.417969 L 90.480469 42.621094 Z M 92.371094 65.417969 C 93.515625 66.566406 94.222656 68.144531 94.222656 69.894531 C 94.222656 71.648438 93.515625 73.222656 92.371094 74.371094 C 91.222656 75.519531 89.644531 76.222656 87.894531 76.222656 C 86.140625 76.222656 84.566406 75.519531 83.417969 74.371094 C 82.269531 73.222656 81.5625 71.648438 81.5625 69.894531 C 81.5625 68.144531 82.269531 66.570312 83.417969 65.417969 C 84.566406 64.273438 86.140625 63.566406 87.894531 63.566406 C 89.644531 63.566406 91.222656 64.273438 92.371094 65.417969 Z M 58.851562 65.425781 C 58.496094 64.847656 58.078125 64.320312 57.601562 63.84375 C 56.558594 62.800781 55.242188 62.019531 53.769531 61.621094 L 85.0625 61.621094 C 83.785156 62.058594 82.640625 62.777344 81.710938 63.710938 C 81.199219 64.222656 80.75 64.796875 80.378906 65.425781 Z M 55.894531 74.347656 C 54.765625 75.476562 53.21875 76.167969 51.496094 76.167969 C 49.777344 76.167969 48.230469 75.476562 47.097656 74.347656 C 45.972656 73.21875 45.277344 71.671875 45.277344 69.949219 C 45.277344 68.230469 45.972656 66.683594 47.097656 65.554688 C 48.230469 64.425781 49.777344 63.730469 51.496094 63.730469 C 53.21875 63.730469 54.765625 64.425781 55.894531 65.554688 C 57.019531 66.683594 57.714844 68.230469 57.714844 69.949219 C 57.714844 71.671875 57.019531 73.21875 55.894531 74.347656 Z M 35.671875 65.425781 C 34.839844 64.160156 34.011719 62.890625 33.183594 61.621094 L 49.226562 61.621094 C 47.753906 62.019531 46.433594 62.800781 45.390625 63.84375 C 44.917969 64.320312 44.496094 64.847656 44.144531 65.425781 Z M 38.578125 74.347656 C 39.199219 75.296875 39.785156 76.324219 40.460938 77.347656 C 41.140625 78.371094 41.914062 79.394531 42.917969 80.292969 C 43.773438 81.0625 44.730469 81.632812 45.738281 82.035156 C 46.746094 82.4375 47.800781 82.675781 48.875 82.796875 C 49.855469 82.902344 50.796875 82.914062 51.699219 82.9375 C 52.601562 82.957031 53.457031 82.988281 54.269531 83.105469 C 55.734375 83.320312 57.128906 83.765625 58.414062 84.460938 C 59.617188 85.113281 60.769531 85.953125 61.742188 86.9375 C 62.71875 87.921875 63.507812 89.046875 64.015625 90.261719 C 64.289062 90.925781 64.539062 91.691406 64.714844 92.460938 C 64.886719 93.230469 64.988281 94.007812 64.988281 94.6875 L 64.988281 104.789062 L 58.546875 104.796875 L 58.546875 98.566406 C 58.546875 97.902344 58.007812 97.359375 57.339844 97.359375 C 56.671875 97.359375 56.132812 97.902344 56.132812 98.566406 L 56.132812 104.800781 L 38.003906 104.820312 L 38.003906 86.113281 C 38.003906 86.042969 38 85.976562 37.988281 85.90625 L 37.585938 83.582031 C 37.558594 83.425781 37.496094 83.265625 37.40625 83.128906 L 25.3125 64.570312 C 24.992188 64.078125 24.84375 63.539062 24.84375 62.996094 C 24.84375 62.523438 24.957031 62.050781 25.179688 61.632812 C 25.402344 61.214844 25.726562 60.847656 26.15625 60.566406 C 26.648438 60.246094 27.191406 60.097656 27.734375 60.097656 C 28.207031 60.097656 28.675781 60.210938 29.097656 60.433594 C 29.515625 60.65625 29.882812 60.980469 30.164062 61.410156 C 31.503906 63.472656 32.847656 65.539062 34.210938 67.597656 C 35.679688 69.820312 37.105469 72.089844 38.578125 74.347656 Z M 74.183594 95 C 74.183594 93.351562 74.554688 91.789062 75.238281 90.355469 C 76.257812 88.207031 77.980469 86.351562 80.175781 85.035156 C 82.367188 83.71875 85.023438 82.941406 87.894531 82.941406 C 91.722656 82.941406 95.167969 84.324219 97.640625 86.523438 C 98.878906 87.621094 99.871094 88.921875 100.550781 90.355469 C 101.230469 91.789062 101.605469 93.351562 101.605469 95 L 101.605469 104.742188 L 95.03125 104.75 L 95.03125 98.941406 C 95.03125 98.273438 94.492188 97.734375 93.824219 97.734375 C 93.15625 97.734375 92.617188 98.273438 92.617188 98.941406 L 92.617188 104.753906 L 83.171875 104.765625 L 83.171875 98.941406 C 83.171875 98.273438 82.628906 97.734375 81.964844 97.734375 C 81.296875 97.734375 80.757812 98.273438 80.757812 98.941406 L 80.757812 104.769531 L 74.183594 104.777344 Z M 120.136719 45.148438 C 117.46875 43.546875 114.269531 42.621094 110.839844 42.621094 L 92.894531 42.621094 L 92.894531 16.207031 C 92.894531 15.890625 92.765625 15.578125 92.539062 15.355469 C 92.316406 15.128906 92.003906 15 91.6875 15 L 27.261719 15 C 26.945312 15 26.632812 15.128906 26.410156 15.355469 C 26.183594 15.578125 26.054688 15.890625 26.054688 16.207031 L 26.054688 57.957031 C 25.632812 58.097656 25.222656 58.289062 24.835938 58.542969 C 24.058594 59.046875 23.453125 59.730469 23.046875 60.5 C 22.636719 61.269531 22.425781 62.128906 22.425781 62.996094 C 22.425781 63.988281 22.707031 65 23.289062 65.890625 L 35.246094 84.238281 L 35.589844 86.214844 L 35.589844 104.90625 C 35.589844 105.109375 35.644531 105.300781 35.734375 105.46875 C 35.644531 105.636719 35.589844 105.828125 35.589844 106.03125 C 35.589844 106.699219 36.132812 107.238281 36.800781 107.238281 L 105.222656 107.152344 C 105.890625 107.152344 106.429688 106.613281 106.429688 105.945312 C 106.425781 105.277344 105.886719 104.738281 105.21875 104.738281 L 104.023438 104.738281 L 104.023438 95 C 104.023438 92.984375 103.5625 91.058594 102.730469 89.316406 C 101.488281 86.703125 99.425781 84.507812 96.859375 82.964844 C 94.289062 81.421875 91.203125 80.527344 87.894531 80.527344 C 83.480469 80.527344 79.46875 82.113281 76.542969 84.71875 C 75.078125 86.019531 73.882812 87.574219 73.054688 89.316406 C 72.226562 91.058594 71.765625 92.984375 71.765625 95 L 71.765625 104.777344 L 67.40625 104.785156 L 67.40625 94.6875 C 67.402344 93.777344 67.273438 92.839844 67.070312 91.925781 C 66.863281 91.015625 66.574219 90.128906 66.246094 89.332031 C 65.597656 87.78125 64.617188 86.410156 63.460938 85.242188 C 62.300781 84.070312 60.960938 83.09375 59.5625 82.335938 C 58.015625 81.5 56.339844 80.964844 54.617188 80.714844 C 53.628906 80.574219 52.671875 80.542969 51.757812 80.523438 C 50.839844 80.5 49.96875 80.484375 49.140625 80.394531 C 48.246094 80.296875 47.40625 80.101562 46.636719 79.792969 C 45.867188 79.484375 45.164062 79.0625 44.527344 78.496094 C 43.746094 77.792969 43.097656 76.949219 42.476562 76.015625 C 41.855469 75.082031 41.273438 74.054688 40.601562 73.027344 C 39.480469 71.3125 38.378906 69.574219 37.253906 67.839844 L 43.125 67.839844 C 42.953125 68.515625 42.863281 69.222656 42.863281 69.949219 C 42.863281 72.332031 43.832031 74.496094 45.390625 76.054688 C 46.949219 77.617188 49.117188 78.585938 51.496094 78.585938 C 53.878906 78.585938 56.042969 77.617188 57.601562 76.054688 C 59.164062 74.496094 60.132812 72.332031 60.132812 69.949219 C 60.132812 69.222656 60.039062 68.515625 59.871094 67.839844 L 79.394531 67.839844 C 79.234375 68.5 79.148438 69.1875 79.148438 69.894531 C 79.148438 72.304688 80.128906 74.5 81.710938 76.078125 C 83.289062 77.660156 85.484375 78.640625 87.894531 78.640625 C 90.304688 78.640625 92.5 77.660156 94.078125 76.078125 C 95.660156 74.5 96.640625 72.304688 96.640625 69.894531 C 96.640625 67.484375 95.660156 65.289062 94.078125 63.710938 C 93.148438 62.777344 92 62.058594 90.722656 61.621094 L 91.6875 61.621094 C 92.003906 61.621094 92.316406 61.492188 92.539062 61.265625 C 92.765625 61.042969 92.894531 60.730469 92.894531 60.414062 L 92.894531 51.578125 L 99.753906 51.578125 L 99.753906 68.304688 C 99.753906 68.972656 100.296875 69.511719 100.964844 69.511719 C 101.628906 69.511719 102.171875 68.972656 102.171875 68.304688 L 102.171875 50.59375 C 102.183594 50.519531 102.191406 50.445312 102.191406 50.367188 C 102.191406 49.699219 101.652344 49.160156 100.984375 49.160156 L 83.332031 49.160156 C 82.757812 49.160156 82.25 48.929688 81.875 48.554688 C 81.5 48.179688 81.269531 47.671875 81.269531 47.097656 C 81.269531 46.527344 81.5 46.019531 81.875 45.640625 C 82.25 45.265625 82.757812 45.039062 83.332031 45.039062 L 110.839844 45.039062 C 114.832031 45.035156 118.425781 46.476562 121.007812 48.773438 C 122.296875 49.917969 123.332031 51.277344 124.042969 52.773438 C 124.753906 54.269531 125.144531 55.902344 125.144531 57.625 L 125.144531 72.746094 C 125.144531 73.320312 124.917969 73.828125 124.542969 74.203125 C 124.164062 74.578125 123.65625 74.808594 123.082031 74.808594 C 122.511719 74.808594 122.003906 74.578125 121.625 74.203125 C 121.25 73.828125 121.023438 73.320312 121.023438 72.746094 L 121.023438 61.722656 C 121.023438 61.054688 120.480469 60.511719 119.8125 60.511719 C 119.148438 60.511719 118.605469 61.054688 118.605469 61.722656 L 118.605469 72.746094 C 118.605469 73.980469 119.109375 75.105469 119.917969 75.914062 C 120.722656 76.722656 121.851562 77.222656 123.082031 77.222656 C 124.316406 77.222656 125.441406 76.722656 126.25 75.914062 C 127.058594 75.105469 127.5625 73.980469 127.5625 72.746094 L 127.5625 57.625 C 127.5625 55.535156 127.082031 53.539062 126.222656 51.734375 C 124.9375 49.027344 122.800781 46.75 120.136719 45.148438 " fill-opacity="1" fill-rule="nonzero"></path></g><path fill="#026da5" d="M 66.882812 37.542969 C 66.808594 38.082031 66.675781 38.609375 66.484375 39.117188 C 66.410156 39.3125 66.335938 39.496094 66.261719 39.664062 L 66.257812 39.664062 C 66.128906 39.949219 65.988281 40.195312 65.824219 40.402344 L 65.808594 40.421875 C 65.613281 40.671875 65.339844 40.957031 65.046875 41.324219 L 65.042969 41.324219 C 64.707031 41.746094 64.390625 42.1875 64.097656 42.640625 L 64.09375 42.640625 C 63.726562 43.210938 63.386719 43.804688 63.085938 44.421875 C 62.738281 45.136719 62.445312 45.875 62.210938 46.632812 C 62.0625 47.101562 61.945312 47.582031 61.847656 48.066406 L 61.207031 48.066406 L 61.207031 39.902344 C 61.207031 39.238281 60.664062 38.695312 59.996094 38.695312 C 59.328125 38.695312 58.789062 39.238281 58.789062 39.902344 L 58.789062 48.066406 L 57.726562 48.066406 C 57.394531 46.410156 56.773438 45.011719 56.121094 43.878906 C 55.695312 43.140625 55.257812 42.511719 54.878906 41.992188 C 54.503906 41.472656 54.183594 41.058594 54.019531 40.804688 L 53.992188 40.757812 C 53.914062 40.652344 53.839844 40.539062 53.761719 40.417969 C 53.0625 39.3125 52.660156 38.015625 52.660156 36.617188 C 52.660156 34.640625 53.457031 32.863281 54.75 31.566406 C 56.046875 30.273438 57.824219 29.476562 59.800781 29.476562 C 61.777344 29.476562 63.554688 30.273438 64.847656 31.566406 C 66.144531 32.863281 66.941406 34.640625 66.941406 36.617188 C 66.941406 36.929688 66.921875 37.242188 66.882812 37.542969 Z M 60.628906 55.410156 C 60.410156 55.625 60.125 55.753906 59.800781 55.753906 C 59.472656 55.753906 59.1875 55.625 58.972656 55.410156 C 58.757812 55.195312 58.628906 54.910156 58.628906 54.585938 C 58.628906 54.539062 58.636719 54.492188 58.644531 54.449219 L 60.957031 54.449219 C 60.960938 54.492188 60.96875 54.539062 60.96875 54.585938 C 60.96875 54.910156 60.839844 55.195312 60.628906 55.410156 Z M 59.996094 50.480469 L 61.738281 50.480469 L 61.738281 52.03125 L 57.902344 52.03125 L 57.902344 50.480469 Z M 59.800781 27.058594 C 57.164062 27.058594 54.769531 28.132812 53.042969 29.859375 C 51.316406 31.585938 50.242188 33.980469 50.242188 36.617188 C 50.242188 38.488281 50.789062 40.238281 51.722656 41.710938 C 51.804688 41.84375 51.898438 41.980469 51.996094 42.117188 C 52.003906 42.132812 52.015625 42.144531 52.023438 42.160156 C 52.023438 42.160156 52.023438 42.160156 52.023438 42.164062 C 52.277344 42.546875 52.585938 42.941406 52.925781 43.410156 C 53.453125 44.136719 54.054688 45.023438 54.546875 46.085938 C 54.988281 47.035156 55.34375 48.121094 55.488281 49.363281 L 55.488281 53.242188 C 55.488281 53.558594 55.617188 53.871094 55.839844 54.09375 C 55.953125 54.207031 56.082031 54.292969 56.226562 54.351562 C 56.222656 54.429688 56.214844 54.507812 56.214844 54.585938 C 56.214844 55.570312 56.617188 56.476562 57.265625 57.121094 C 57.910156 57.765625 58.8125 58.171875 59.800781 58.171875 C 60.785156 58.171875 61.691406 57.765625 62.335938 57.121094 C 62.980469 56.476562 63.386719 55.570312 63.386719 54.585938 C 63.386719 54.511719 63.378906 54.4375 63.375 54.367188 C 63.53125 54.304688 63.679688 54.214844 63.800781 54.09375 C 64.023438 53.871094 64.152344 53.558594 64.152344 53.242188 L 64.152344 49.273438 C 64.152344 49.195312 64.144531 49.113281 64.128906 49.035156 C 64.214844 48.464844 64.34375 47.898438 64.515625 47.351562 L 64.515625 47.347656 C 64.714844 46.710938 64.964844 46.085938 65.257812 45.480469 C 65.511719 44.957031 65.800781 44.449219 66.121094 43.957031 C 66.375 43.570312 66.644531 43.191406 66.933594 42.832031 C 67.132812 42.578125 67.410156 42.292969 67.703125 41.921875 L 67.707031 41.917969 L 67.726562 41.894531 L 67.726562 41.890625 C 68.039062 41.496094 68.269531 41.078125 68.457031 40.664062 C 68.566406 40.429688 68.660156 40.195312 68.742188 39.976562 L 68.742188 39.972656 C 69 39.292969 69.179688 38.585938 69.277344 37.859375 C 69.332031 37.445312 69.355469 37.027344 69.355469 36.617188 C 69.359375 33.980469 68.285156 31.585938 66.558594 29.859375 C 64.832031 28.132812 62.433594 27.058594 59.800781 27.058594 " fill-opacity="1" fill-rule="nonzero"></path><path fill="#026da5" d="M 59.996094 24.859375 C 60.664062 24.859375 61.207031 24.320312 61.207031 23.652344 L 61.207031 19.660156 C 61.207031 18.992188 60.664062 18.449219 59.996094 18.449219 C 59.332031 18.449219 58.789062 18.992188 58.789062 19.660156 L 58.789062 23.652344 C 58.789062 24.320312 59.332031 24.859375 59.996094 24.859375 " fill-opacity="1" fill-rule="nonzero"></path><path fill="#026da5" d="M 71.796875 23.726562 L 68.972656 26.554688 C 68.5 27.023438 68.5 27.789062 68.972656 28.261719 C 69.445312 28.734375 70.207031 28.734375 70.679688 28.261719 L 73.503906 25.4375 C 73.976562 24.964844 73.976562 24.199219 73.503906 23.726562 C 73.035156 23.257812 72.269531 23.257812 71.796875 23.726562 " fill-opacity="1" fill-rule="nonzero"></path><path fill="#026da5" d="M 50.628906 26.855469 L 47.804688 24.03125 C 47.332031 23.558594 46.566406 23.558594 46.09375 24.03125 C 45.625 24.5 45.625 25.265625 46.09375 25.738281 L 48.917969 28.5625 C 49.390625 29.035156 50.15625 29.035156 50.628906 28.5625 C 51.097656 28.089844 51.097656 27.328125 50.628906 26.855469 " fill-opacity="1" fill-rule="nonzero"></path></svg> 