<?xml version="1.0" encoding="UTF-8"?> <svg xmlns="http://www.w3.org/2000/svg" xmlns:xlink="http://www.w3.org/1999/xlink" width="200" zoomAndPan="magnify" viewBox="0 0 150 225" height="300" preserveAspectRatio="xMidYMid meet" version="1.0"><defs><clipPath id="27ce9b792a"><path d="M 21.957031 15 L 127.707031 15 L 127.707031 120.75 L 21.957031 120.75 Z M 21.957031 15 " clip-rule="nonzero"></path></clipPath></defs><rect x="-15" width="180" fill="#ffffff" y="-22.5" height="270" fill-opacity="1"></rect><rect x="-15" width="180" fill="#ffffff" y="-22.5" height="270" fill-opacity="1"></rect><g clip-path="url(#27ce9b792a)"><path fill="#026da5" d="M 126.632812 84.378906 C 127.257812 83.417969 128.035156 82.222656 127.765625 80.703125 C 127.601562 79.765625 127.097656 78.988281 126.652344 78.304688 C 126.367188 77.859375 126.042969 77.359375 125.988281 77.042969 C 125.929688 76.726562 126.066406 76.144531 126.183594 75.632812 C 126.410156 74.652344 126.664062 73.542969 126.253906 72.410156 C 125.832031 71.25 124.867188 70.519531 124.089844 69.933594 C 123.683594 69.625 123.21875 69.273438 123.074219 69.019531 C 122.917969 68.753906 122.84375 68.167969 122.78125 67.648438 C 122.660156 66.695312 122.511719 65.507812 121.730469 64.574219 C 120.941406 63.640625 119.792969 63.285156 118.867188 63.003906 C 118.371094 62.851562 117.8125 62.679688 117.582031 62.488281 C 117.351562 62.292969 117.082031 61.769531 116.847656 61.308594 C 116.40625 60.449219 115.859375 59.378906 114.804688 58.769531 C 113.75 58.160156 112.550781 58.21875 111.589844 58.265625 C 111.070312 58.292969 110.480469 58.320312 110.195312 58.21875 C 110.0625 58.167969 109.898438 58.054688 109.722656 57.910156 C 109.476562 46.519531 104.910156 35.847656 96.8125 27.789062 C 88.53125 19.542969 77.535156 15 65.847656 15 C 41.644531 15 21.957031 34.691406 21.957031 58.894531 C 21.957031 83.09375 41.644531 102.785156 65.847656 102.785156 C 71.945312 102.785156 77.835938 101.558594 83.367188 99.144531 C 83.453125 99.183594 83.539062 99.21875 83.621094 99.25 L 77.421875 112.566406 C 77.15625 113.144531 77.230469 113.824219 77.617188 114.328125 C 78.003906 114.832031 78.636719 115.082031 79.265625 114.972656 L 86.441406 113.714844 L 90.101562 120.015625 C 90.410156 120.542969 90.972656 120.867188 91.578125 120.867188 C 91.605469 120.867188 91.632812 120.867188 91.65625 120.863281 C 92.292969 120.835938 92.859375 120.457031 93.128906 119.878906 L 99.222656 106.789062 C 99.652344 106.65625 100.0625 106.484375 100.449219 106.324219 C 100.933594 106.117188 101.480469 105.886719 101.789062 105.886719 C 102.074219 105.886719 102.605469 106.113281 103.074219 106.308594 C 103.859375 106.640625 104.8125 107.046875 105.855469 106.996094 L 110.261719 117.226562 C 110.515625 117.8125 111.070312 118.207031 111.703125 118.253906 C 111.746094 118.257812 111.789062 118.257812 111.832031 118.257812 C 112.417969 118.257812 112.96875 117.957031 113.28125 117.453125 L 117.125 111.261719 L 124.261719 112.722656 C 124.886719 112.851562 125.527344 112.621094 125.929688 112.128906 C 126.332031 111.632812 126.425781 110.957031 126.171875 110.375 L 121.109375 98.621094 C 121.332031 98.457031 121.539062 98.265625 121.726562 98.042969 C 122.511719 97.109375 122.660156 95.917969 122.78125 94.957031 C 122.84375 94.441406 122.917969 93.859375 123.066406 93.597656 C 123.21875 93.339844 123.6875 92.984375 124.097656 92.671875 C 124.871094 92.089844 125.832031 91.367188 126.25 90.214844 C 126.667969 89.074219 126.402344 87.90625 126.1875 86.96875 C 126.070312 86.460938 125.9375 85.886719 125.992188 85.578125 C 126.042969 85.289062 126.359375 84.808594 126.632812 84.378906 Z M 25.371094 58.894531 C 25.371094 36.574219 43.527344 18.417969 65.847656 18.417969 C 87.035156 18.417969 104.53125 34.859375 106.191406 55.652344 C 105.050781 55.492188 104.027344 55.917969 103.125 56.300781 C 102.640625 56.503906 102.09375 56.734375 101.785156 56.734375 C 101.5 56.734375 100.96875 56.511719 100.5 56.3125 C 99.605469 55.933594 98.488281 55.460938 97.269531 55.675781 C 96.046875 55.890625 95.160156 56.71875 94.445312 57.378906 C 94.074219 57.726562 93.652344 58.121094 93.382812 58.21875 C 93.09375 58.320312 92.5 58.292969 91.976562 58.265625 C 90.964844 58.214844 89.816406 58.160156 88.769531 58.761719 C 87.707031 59.378906 87.15625 60.453125 86.714844 61.316406 C 86.480469 61.773438 86.214844 62.292969 85.988281 62.484375 C 85.757812 62.679688 85.191406 62.855469 84.695312 63.007812 C 84.320312 63.125 83.902344 63.253906 83.492188 63.429688 C 80.632812 60.464844 77.109375 58.296875 73.253906 57.078125 C 76.773438 54.695312 79.089844 50.664062 79.089844 46.105469 C 79.089844 38.804688 73.148438 32.863281 65.847656 32.863281 C 58.546875 32.863281 52.605469 38.804688 52.605469 46.105469 C 52.605469 50.664062 54.921875 54.691406 58.441406 57.074219 C 48.527344 60.222656 41.328125 69.511719 41.328125 80.453125 C 41.328125 81.394531 42.09375 82.160156 43.035156 82.160156 L 75.863281 82.160156 C 76.0625 82.988281 76.515625 83.691406 76.921875 84.320312 C 77.207031 84.761719 77.53125 85.261719 77.589844 85.578125 C 77.644531 85.894531 77.511719 86.476562 77.390625 86.992188 C 77.167969 87.96875 76.914062 89.078125 77.324219 90.214844 C 77.746094 91.375 78.710938 92.101562 79.484375 92.691406 C 79.894531 93 80.355469 93.347656 80.503906 93.601562 C 80.65625 93.871094 80.730469 94.457031 80.796875 94.972656 C 80.851562 95.421875 80.914062 95.917969 81.046875 96.417969 C 76.222656 98.375 71.121094 99.371094 65.847656 99.371094 C 43.527344 99.371094 25.371094 81.210938 25.371094 58.894531 Z M 77.386719 75.652344 C 77.503906 76.160156 77.636719 76.738281 77.582031 77.042969 C 77.53125 77.332031 77.21875 77.816406 76.941406 78.242188 C 76.835938 78.402344 76.726562 78.570312 76.621094 78.742188 L 44.8125 78.742188 C 45.683594 67.902344 54.785156 59.347656 65.847656 59.347656 C 71.648438 59.347656 77.15625 61.722656 81.136719 65.902344 C 80.941406 66.503906 80.863281 67.121094 80.796875 67.664062 C 80.730469 68.179688 80.65625 68.761719 80.507812 69.023438 C 80.359375 69.28125 79.890625 69.636719 79.476562 69.945312 C 78.703125 70.53125 77.742188 71.253906 77.324219 72.40625 C 76.90625 73.546875 77.175781 74.714844 77.386719 75.652344 Z M 65.847656 55.929688 C 60.429688 55.929688 56.019531 51.523438 56.019531 46.105469 C 56.019531 40.6875 60.429688 36.277344 65.847656 36.277344 C 71.265625 36.277344 75.675781 40.6875 75.675781 46.105469 C 75.675781 51.523438 71.265625 55.929688 65.847656 55.929688 Z M 91.414062 115.472656 L 88.796875 110.972656 C 88.4375 110.355469 87.730469 110.027344 87.027344 110.148438 L 81.898438 111.042969 L 86.570312 101.011719 C 86.625 101.113281 86.675781 101.214844 86.726562 101.316406 C 87.167969 102.171875 87.714844 103.242188 88.769531 103.855469 C 89.824219 104.460938 91.023438 104.402344 91.984375 104.355469 C 92.503906 104.332031 93.09375 104.300781 93.382812 104.40625 C 93.660156 104.507812 94.085938 104.90625 94.464844 105.253906 C 94.820312 105.589844 95.222656 105.964844 95.691406 106.28125 Z M 116.644531 107.675781 C 115.941406 107.53125 115.226562 107.839844 114.847656 108.449219 L 112.105469 112.871094 L 108.90625 105.449219 C 108.984375 105.378906 109.058594 105.308594 109.128906 105.242188 C 109.5 104.894531 109.925781 104.503906 110.191406 104.40625 C 110.480469 104.300781 111.074219 104.332031 111.597656 104.355469 C 112.609375 104.40625 113.757812 104.464844 114.804688 103.859375 C 115.871094 103.246094 116.417969 102.167969 116.859375 101.304688 C 117.09375 100.847656 117.359375 100.328125 117.585938 100.136719 C 117.671875 100.066406 117.800781 99.996094 117.957031 99.929688 L 121.742188 108.722656 Z M 124.40625 81.292969 C 124.4375 81.492188 124.003906 82.160156 123.769531 82.519531 C 123.316406 83.21875 122.800781 84.011719 122.628906 84.984375 C 122.457031 85.972656 122.667969 86.90625 122.859375 87.730469 C 122.953125 88.148438 123.113281 88.851562 123.042969 89.046875 C 122.96875 89.246094 122.390625 89.6875 122.042969 89.949219 C 121.371094 90.457031 120.609375 91.03125 120.113281 91.890625 C 119.613281 92.75 119.496094 93.699219 119.390625 94.535156 C 119.339844 94.964844 119.25 95.6875 119.113281 95.847656 C 118.976562 96.007812 118.285156 96.222656 117.871094 96.351562 C 117.066406 96.601562 116.148438 96.882812 115.386719 97.523438 C 114.632812 98.160156 114.199219 99.007812 113.816406 99.753906 C 113.621094 100.140625 113.289062 100.792969 113.097656 100.902344 C 112.910156 101.003906 112.195312 100.96875 111.769531 100.945312 C 110.921875 100.902344 109.964844 100.855469 109.027344 101.195312 C 108.109375 101.527344 107.414062 102.171875 106.804688 102.742188 C 106.460938 103.058594 105.941406 103.542969 105.714844 103.582031 C 105.488281 103.621094 104.835938 103.347656 104.402344 103.164062 C 103.636719 102.839844 102.765625 102.472656 101.789062 102.472656 C 101.785156 102.472656 101.785156 102.472656 101.785156 102.472656 C 100.789062 102.472656 99.90625 102.847656 99.125 103.175781 C 98.730469 103.339844 98.066406 103.617188 97.859375 103.589844 C 97.644531 103.550781 97.109375 103.054688 96.789062 102.757812 C 96.175781 102.183594 95.480469 101.535156 94.554688 101.199219 C 93.933594 100.972656 93.308594 100.914062 92.710938 100.914062 C 92.402344 100.914062 92.105469 100.929688 91.816406 100.945312 C 91.386719 100.964844 90.664062 101.003906 90.480469 100.898438 C 90.296875 100.789062 89.964844 100.144531 89.769531 99.757812 C 89.382812 99.007812 88.949219 98.15625 88.1875 97.519531 C 87.425781 96.882812 86.515625 96.601562 85.710938 96.355469 C 85.292969 96.226562 84.597656 96.015625 84.460938 95.847656 C 84.328125 95.6875 84.238281 94.976562 84.183594 94.550781 C 84.078125 93.710938 83.960938 92.757812 83.460938 91.890625 C 82.96875 91.042969 82.210938 90.46875 81.542969 89.964844 C 81.195312 89.699219 80.609375 89.257812 80.535156 89.050781 C 80.46875 88.855469 80.625 88.167969 80.71875 87.757812 C 80.910156 86.925781 81.128906 85.984375 80.953125 84.984375 C 80.777344 83.984375 80.25 83.175781 79.789062 82.460938 C 79.53125 82.070312 79.214844 81.578125 79.171875 81.328125 C 79.136719 81.132812 79.570312 80.460938 79.804688 80.101562 C 80.257812 79.402344 80.773438 78.609375 80.945312 77.636719 C 81.121094 76.652344 80.90625 75.714844 80.71875 74.890625 C 80.621094 74.472656 80.460938 73.773438 80.53125 73.578125 C 80.605469 73.375 81.1875 72.933594 81.535156 72.671875 C 82.207031 72.167969 82.96875 71.589844 83.464844 70.734375 C 83.960938 69.875 84.078125 68.925781 84.183594 68.085938 C 84.238281 67.65625 84.328125 66.9375 84.464844 66.773438 C 84.601562 66.613281 85.289062 66.398438 85.703125 66.273438 C 86.511719 66.023438 87.425781 65.738281 88.1875 65.097656 C 88.941406 64.464844 89.375 63.617188 89.757812 62.867188 C 89.957031 62.480469 90.289062 61.828125 90.476562 61.71875 C 90.664062 61.621094 91.378906 61.65625 91.808594 61.675781 C 92.652344 61.71875 93.613281 61.765625 94.546875 61.425781 C 95.46875 61.09375 96.160156 60.449219 96.773438 59.878906 C 97.113281 59.5625 97.632812 59.078125 97.859375 59.039062 C 98.089844 59.003906 98.738281 59.277344 99.171875 59.457031 C 99.9375 59.78125 100.808594 60.148438 101.785156 60.148438 C 101.789062 60.148438 101.789062 60.148438 101.789062 60.148438 C 102.785156 60.148438 103.671875 59.777344 104.449219 59.449219 C 104.84375 59.28125 105.503906 59.003906 105.714844 59.035156 C 105.933594 59.070312 106.464844 59.570312 106.785156 59.867188 C 107.398438 60.4375 108.097656 61.085938 109.023438 61.425781 C 109.957031 61.765625 110.914062 61.71875 111.757812 61.679688 C 112.191406 61.65625 112.910156 61.621094 113.09375 61.726562 C 113.277344 61.832031 113.609375 62.476562 113.808594 62.863281 C 114.191406 63.617188 114.628906 64.464844 115.390625 65.105469 C 116.148438 65.742188 117.0625 66.019531 117.867188 66.269531 C 118.28125 66.394531 118.976562 66.609375 119.117188 66.773438 C 119.25 66.933594 119.339844 67.648438 119.390625 68.074219 C 119.496094 68.914062 119.617188 69.863281 120.117188 70.730469 C 120.605469 71.582031 121.363281 72.152344 122.03125 72.65625 C 122.402344 72.9375 122.964844 73.363281 123.042969 73.574219 C 123.109375 73.769531 122.949219 74.457031 122.855469 74.867188 C 122.664062 75.695312 122.445312 76.636719 122.625 77.636719 C 122.800781 78.636719 123.324219 79.445312 123.789062 80.160156 C 124.042969 80.554688 124.359375 81.042969 124.40625 81.292969 Z M 101.789062 63.027344 C 91.707031 63.027344 83.503906 71.230469 83.503906 81.3125 C 83.503906 91.394531 91.707031 99.59375 101.789062 99.59375 C 111.871094 99.59375 120.070312 91.394531 120.070312 81.3125 C 120.070312 71.230469 111.871094 63.027344 101.789062 63.027344 Z M 101.789062 96.179688 C 93.589844 96.179688 86.917969 89.511719 86.917969 81.3125 C 86.917969 73.113281 93.589844 66.441406 101.789062 66.441406 C 109.988281 66.441406 116.65625 73.113281 116.65625 81.3125 C 116.65625 89.511719 109.988281 96.179688 101.789062 96.179688 Z M 105.78125 75.582031 L 103.367188 69.683594 C 103.105469 69.039062 102.480469 68.621094 101.789062 68.621094 C 101.09375 68.621094 100.46875 69.039062 100.207031 69.683594 L 97.796875 75.582031 L 91.4375 76.054688 C 90.746094 76.105469 90.152344 76.570312 89.9375 77.230469 C 89.722656 77.890625 89.929688 78.613281 90.460938 79.058594 L 95.328125 83.179688 L 93.808594 89.371094 C 93.644531 90.042969 93.902344 90.75 94.464844 91.160156 C 95.027344 91.566406 95.777344 91.59375 96.367188 91.230469 L 101.789062 87.871094 L 107.207031 91.230469 C 107.484375 91.398438 107.796875 91.484375 108.105469 91.484375 C 108.460938 91.484375 108.8125 91.375 109.109375 91.160156 C 109.671875 90.75 109.929688 90.042969 109.765625 89.371094 L 108.246094 83.179688 L 113.117188 79.058594 C 113.644531 78.613281 113.851562 77.890625 113.636719 77.230469 C 113.421875 76.570312 112.832031 76.105469 112.140625 76.054688 Z M 105.234375 81.253906 C 104.738281 81.671875 104.523438 82.335938 104.679688 82.964844 L 105.453125 86.125 L 102.6875 84.410156 C 102.136719 84.070312 101.4375 84.070312 100.886719 84.410156 L 98.121094 86.125 L 98.894531 82.964844 C 99.050781 82.335938 98.835938 81.671875 98.339844 81.253906 L 95.855469 79.152344 L 99.101562 78.910156 C 99.746094 78.863281 100.3125 78.453125 100.554688 77.855469 L 101.789062 74.839844 L 103.019531 77.855469 C 103.261719 78.453125 103.828125 78.863281 104.472656 78.910156 L 107.71875 79.152344 Z M 105.234375 81.253906 " fill-opacity="1" fill-rule="nonzero"></path></g></svg> 