<?xml version="1.0" encoding="UTF-8"?> <svg xmlns="http://www.w3.org/2000/svg" xmlns:xlink="http://www.w3.org/1999/xlink" width="200" zoomAndPan="magnify" viewBox="0 0 150 225" height="300" preserveAspectRatio="xMidYMid meet" version="1.0"><defs><clipPath id="28abe09f11"><path d="M 22 35 L 127.707031 35 L 127.707031 78.75 L 22 78.75 Z M 22 35 " clip-rule="nonzero"></path></clipPath></defs><rect x="-15" width="180" fill="#ffffff" y="-22.5" height="270" fill-opacity="1"></rect><rect x="-15" width="180" fill="#ffffff" y="-22.5" height="270" fill-opacity="1"></rect><g clip-path="url(#28abe09f11)"><path fill="#026da5" d="M 127.183594 38.207031 L 114.5 35.496094 L 117.78125 41.203125 L 67.492188 70.40625 L 47.828125 61.679688 L 22.824219 75.328125 L 24.925781 79.15625 L 48.023438 66.554688 L 67.753906 75.328125 L 119.945312 44.988281 L 123.160156 50.542969 Z M 127.183594 38.207031 " fill-opacity="1" fill-rule="nonzero"></path></g><path fill="#026da5" d="M 54.566406 54.964844 C 54.566406 53.941406 54.652344 52.929688 54.828125 51.921875 C 55.910156 54.277344 56.449219 56.746094 56.445312 59.339844 C 56.449219 56.746094 55.910156 54.277344 54.828125 51.921875 C 54.652344 52.929688 54.566406 53.941406 54.566406 54.964844 Z M 54.566406 54.964844 " fill-opacity="1" fill-rule="nonzero"></path><path fill="#026da5" d="M 54.828125 51.921875 C 54.03125 50.148438 52.949219 48.574219 51.582031 47.191406 C 50.214844 45.808594 48.652344 44.710938 46.886719 43.894531 C 47.210938 43.683594 47.527344 43.453125 47.828125 43.203125 C 48.128906 42.957031 48.414062 42.695312 48.6875 42.417969 C 48.960938 42.140625 49.21875 41.847656 49.460938 41.542969 C 49.703125 41.238281 49.929688 40.921875 50.136719 40.59375 C 50.34375 40.261719 50.535156 39.921875 50.707031 39.574219 C 50.878906 39.226562 51.03125 38.867188 51.164062 38.5 C 51.300781 38.136719 51.414062 37.761719 51.507812 37.386719 C 51.601562 37.007812 51.675781 36.625 51.726562 36.238281 C 51.78125 35.855469 51.8125 35.464844 51.824219 35.078125 C 51.835938 34.6875 51.828125 34.300781 51.796875 33.910156 C 51.769531 33.523438 51.71875 33.136719 51.648438 32.753906 C 51.578125 32.371094 51.484375 31.992188 51.375 31.621094 C 51.261719 31.246094 51.132812 30.878906 50.980469 30.519531 C 50.832031 30.160156 50.660156 29.8125 50.472656 29.46875 C 50.285156 29.128906 50.078125 28.800781 49.855469 28.480469 C 49.632812 28.160156 49.394531 27.855469 49.136719 27.558594 C 48.882812 27.265625 48.609375 26.988281 48.324219 26.722656 C 48.039062 26.457031 47.742188 26.210938 47.429688 25.976562 C 47.117188 25.746094 46.792969 25.527344 46.457031 25.332031 C 46.121094 25.132812 45.777344 24.953125 45.421875 24.792969 C 45.066406 24.628906 44.707031 24.488281 44.335938 24.367188 C 43.964844 24.242188 43.589844 24.140625 43.210938 24.058594 C 42.828125 23.976562 42.445312 23.914062 42.058594 23.871094 C 41.671875 23.832031 41.28125 23.808594 40.894531 23.808594 C 40.503906 23.808594 40.117188 23.832031 39.726562 23.871094 C 39.339844 23.914062 38.957031 23.976562 38.578125 24.058594 C 38.195312 24.140625 37.820312 24.242188 37.449219 24.367188 C 37.082031 24.488281 36.71875 24.628906 36.363281 24.792969 C 36.011719 24.953125 35.664062 25.132812 35.328125 25.332031 C 34.996094 25.527344 34.671875 25.746094 34.359375 25.976562 C 34.046875 26.210938 33.746094 26.457031 33.460938 26.722656 C 33.175781 26.988281 32.90625 27.265625 32.648438 27.558594 C 32.394531 27.855469 32.152344 28.160156 31.929688 28.480469 C 31.707031 28.800781 31.5 29.128906 31.3125 29.46875 C 31.125 29.8125 30.957031 30.160156 30.804688 30.519531 C 30.65625 30.878906 30.523438 31.246094 30.414062 31.621094 C 30.300781 31.992188 30.210938 32.371094 30.140625 32.753906 C 30.070312 33.136719 30.019531 33.523438 29.988281 33.910156 C 29.957031 34.300781 29.949219 34.6875 29.960938 35.078125 C 29.972656 35.464844 30.007812 35.855469 30.058594 36.238281 C 30.113281 36.625 30.1875 37.007812 30.28125 37.386719 C 30.375 37.761719 30.488281 38.136719 30.621094 38.5 C 30.753906 38.867188 30.90625 39.226562 31.078125 39.574219 C 31.25 39.921875 31.441406 40.261719 31.648438 40.59375 C 31.859375 40.921875 32.082031 41.238281 32.324219 41.542969 C 32.566406 41.847656 32.824219 42.140625 33.097656 42.417969 C 33.371094 42.695312 33.660156 42.957031 33.960938 43.203125 C 34.261719 43.453125 34.574219 43.683594 34.898438 43.894531 C 34.179688 44.242188 33.484375 44.636719 32.820312 45.082031 C 32.15625 45.527344 31.523438 46.015625 30.929688 46.550781 C 30.335938 47.085938 29.78125 47.660156 29.265625 48.273438 C 28.753906 48.890625 28.285156 49.535156 27.867188 50.21875 C 27.445312 50.898438 27.074219 51.605469 26.757812 52.339844 C 26.4375 53.074219 26.171875 53.828125 25.960938 54.597656 C 25.746094 55.371094 25.59375 56.152344 25.492188 56.945312 C 25.390625 57.742188 25.347656 58.539062 25.363281 59.339844 L 25.363281 68.632812 L 47.914062 55.683594 L 55.242188 58.964844 L 67.273438 64.105469 L 83.65625 54.832031 L 85.011719 53.933594 L 110.757812 39.367188 C 109.226562 37.515625 107.367188 36.09375 105.179688 35.101562 C 105.507812 34.890625 105.820312 34.660156 106.121094 34.414062 C 106.421875 34.164062 106.710938 33.902344 106.984375 33.625 C 107.257812 33.347656 107.515625 33.058594 107.757812 32.753906 C 108 32.445312 108.226562 32.128906 108.4375 31.800781 C 108.644531 31.472656 108.835938 31.132812 109.007812 30.78125 C 109.179688 30.433594 109.332031 30.074219 109.464844 29.710938 C 109.601562 29.34375 109.714844 28.972656 109.808594 28.59375 C 109.902344 28.214844 109.976562 27.835938 110.03125 27.449219 C 110.085938 27.0625 110.117188 26.675781 110.128906 26.285156 C 110.140625 25.894531 110.132812 25.507812 110.101562 25.117188 C 110.074219 24.730469 110.023438 24.34375 109.953125 23.960938 C 109.882812 23.578125 109.792969 23.199219 109.679688 22.824219 C 109.570312 22.453125 109.4375 22.085938 109.289062 21.726562 C 109.136719 21.367188 108.96875 21.015625 108.78125 20.675781 C 108.59375 20.332031 108.386719 20.003906 108.164062 19.683594 C 107.941406 19.363281 107.699219 19.058594 107.445312 18.761719 C 107.1875 18.46875 106.917969 18.191406 106.632812 17.925781 C 106.347656 17.660156 106.046875 17.410156 105.734375 17.179688 C 105.421875 16.945312 105.097656 16.730469 104.761719 16.53125 C 104.429688 16.332031 104.082031 16.152344 103.726562 15.992188 C 103.375 15.832031 103.011719 15.6875 102.640625 15.566406 C 102.273438 15.441406 101.898438 15.339844 101.515625 15.257812 C 101.136719 15.175781 100.75 15.113281 100.363281 15.070312 C 99.976562 15.03125 99.585938 15.007812 99.199219 15.007812 C 98.808594 15.007812 98.417969 15.03125 98.03125 15.070312 C 97.644531 15.113281 97.261719 15.175781 96.878906 15.257812 C 96.5 15.339844 96.125 15.441406 95.753906 15.566406 C 95.382812 15.6875 95.023438 15.832031 94.667969 15.992188 C 94.3125 16.152344 93.96875 16.332031 93.632812 16.53125 C 93.296875 16.730469 92.972656 16.945312 92.660156 17.179688 C 92.347656 17.410156 92.046875 17.660156 91.761719 17.925781 C 91.476562 18.191406 91.207031 18.46875 90.949219 18.761719 C 90.695312 19.058594 90.453125 19.363281 90.230469 19.683594 C 90.007812 20.003906 89.804688 20.332031 89.617188 20.675781 C 89.425781 21.015625 89.257812 21.367188 89.109375 21.726562 C 88.957031 22.085938 88.828125 22.453125 88.714844 22.824219 C 88.605469 23.199219 88.511719 23.578125 88.441406 23.960938 C 88.371094 24.34375 88.320312 24.730469 88.292969 25.117188 C 88.261719 25.507812 88.253906 25.894531 88.265625 26.285156 C 88.277344 26.675781 88.3125 27.0625 88.363281 27.449219 C 88.417969 27.835938 88.492188 28.214844 88.585938 28.59375 C 88.679688 28.972656 88.792969 29.34375 88.929688 29.710938 C 89.0625 30.074219 89.214844 30.433594 89.386719 30.78125 C 89.5625 31.132812 89.75 31.472656 89.960938 31.800781 C 90.167969 32.128906 90.394531 32.445312 90.636719 32.753906 C 90.878906 33.058594 91.136719 33.347656 91.410156 33.625 C 91.683594 33.902344 91.972656 34.164062 92.273438 34.414062 C 92.574219 34.660156 92.890625 34.890625 93.214844 35.101562 C 91.992188 35.699219 90.863281 36.433594 89.824219 37.308594 C 88.78125 38.179688 87.863281 39.167969 87.066406 40.269531 C 86.269531 41.371094 85.617188 42.550781 85.109375 43.8125 C 84.605469 45.074219 84.257812 46.375 84.070312 47.722656 C 83.398438 45.867188 82.382812 44.222656 81.03125 42.785156 C 79.675781 41.351562 78.09375 40.238281 76.285156 39.453125 C 76.609375 39.238281 76.921875 39.007812 77.21875 38.761719 C 77.519531 38.511719 77.804688 38.25 78.074219 37.96875 C 78.34375 37.691406 78.601562 37.398438 78.839844 37.09375 C 79.082031 36.789062 79.304688 36.472656 79.507812 36.140625 C 79.714844 35.8125 79.902344 35.472656 80.074219 35.125 C 80.242188 34.773438 80.394531 34.417969 80.527344 34.050781 C 80.65625 33.683594 80.769531 33.3125 80.863281 32.9375 C 80.953125 32.558594 81.027344 32.175781 81.078125 31.792969 C 81.128906 31.40625 81.160156 31.019531 81.171875 30.632812 C 81.179688 30.242188 81.171875 29.855469 81.140625 29.46875 C 81.109375 29.082031 81.054688 28.695312 80.984375 28.316406 C 80.914062 27.933594 80.820312 27.554688 80.707031 27.183594 C 80.59375 26.8125 80.464844 26.445312 80.3125 26.089844 C 80.160156 25.730469 79.992188 25.382812 79.804688 25.042969 C 79.617188 24.703125 79.410156 24.375 79.1875 24.054688 C 78.960938 23.738281 78.722656 23.433594 78.46875 23.140625 C 78.210938 22.847656 77.941406 22.570312 77.65625 22.304688 C 77.371094 22.042969 77.070312 21.792969 76.757812 21.5625 C 76.445312 21.332031 76.125 21.117188 75.789062 20.917969 C 75.453125 20.722656 75.109375 20.542969 74.757812 20.382812 C 74.402344 20.222656 74.039062 20.082031 73.671875 19.957031 C 73.304688 19.835938 72.929688 19.734375 72.546875 19.652344 C 72.167969 19.570312 71.785156 19.507812 71.398438 19.46875 C 71.011719 19.425781 70.625 19.40625 70.238281 19.40625 C 69.847656 19.40625 69.460938 19.425781 69.074219 19.46875 C 68.6875 19.507812 68.304688 19.570312 67.925781 19.652344 C 67.546875 19.734375 67.171875 19.835938 66.800781 19.957031 C 66.433594 20.082031 66.070312 20.222656 65.71875 20.382812 C 65.363281 20.542969 65.019531 20.722656 64.683594 20.917969 C 64.351562 21.117188 64.027344 21.332031 63.714844 21.5625 C 63.402344 21.792969 63.105469 22.042969 62.820312 22.304688 C 62.535156 22.570312 62.261719 22.847656 62.007812 23.140625 C 61.75 23.433594 61.511719 23.738281 61.289062 24.054688 C 61.066406 24.375 60.859375 24.703125 60.671875 25.042969 C 60.480469 25.382812 60.3125 25.730469 60.160156 26.089844 C 60.011719 26.445312 59.878906 26.8125 59.765625 27.183594 C 59.652344 27.554688 59.5625 27.933594 59.488281 28.316406 C 59.417969 28.695312 59.367188 29.082031 59.335938 29.46875 C 59.304688 29.855469 59.292969 30.242188 59.304688 30.632812 C 59.3125 31.019531 59.34375 31.40625 59.398438 31.792969 C 59.449219 32.175781 59.519531 32.558594 59.613281 32.9375 C 59.703125 33.3125 59.816406 33.683594 59.949219 34.050781 C 60.078125 34.417969 60.230469 34.773438 60.402344 35.125 C 60.570312 35.472656 60.757812 35.8125 60.964844 36.140625 C 61.171875 36.472656 61.394531 36.789062 61.632812 37.09375 C 61.875 37.398438 62.128906 37.691406 62.398438 37.96875 C 62.671875 38.25 62.957031 38.511719 63.253906 38.761719 C 63.554688 39.007812 63.863281 39.238281 64.1875 39.453125 C 62.96875 40.03125 61.835938 40.746094 60.792969 41.601562 C 59.746094 42.457031 58.820312 43.425781 58.011719 44.503906 C 57.203125 45.585938 56.539062 46.746094 56.015625 47.992188 C 55.488281 49.234375 55.125 50.523438 54.914062 51.855469 " fill-opacity="1" fill-rule="nonzero"></path></svg> 