<?xml version="1.0" encoding="UTF-8"?> <svg xmlns="http://www.w3.org/2000/svg" xmlns:xlink="http://www.w3.org/1999/xlink" width="200" zoomAndPan="magnify" viewBox="0 0 150 225" height="300" preserveAspectRatio="xMidYMid meet" version="1.0"><defs><clipPath id="744e080f72"><path d="M 21.957031 15 L 127.707031 15 L 127.707031 152.25 L 21.957031 152.25 Z M 21.957031 15 " clip-rule="nonzero"></path></clipPath></defs><rect x="-15" width="180" fill="#ffffff" y="-22.5" height="270" fill-opacity="1"></rect><rect x="-15" width="180" fill="#ffffff" y="-22.5" height="270" fill-opacity="1"></rect><path fill="#026da5" d="M 39.460938 37.558594 L 46.253906 37.558594 C 47.480469 37.558594 48.472656 36.566406 48.472656 35.339844 C 48.472656 34.117188 47.480469 33.125 46.253906 33.125 L 39.460938 33.125 C 38.234375 33.125 37.242188 34.117188 37.242188 35.339844 C 37.242188 36.566406 38.234375 37.558594 39.460938 37.558594 " fill-opacity="1" fill-rule="nonzero"></path><path fill="#026da5" d="M 110.53125 33.125 L 55.859375 33.125 C 54.636719 33.125 53.644531 34.117188 53.644531 35.339844 C 53.644531 36.566406 54.636719 37.558594 55.859375 37.558594 L 110.53125 37.558594 C 111.757812 37.558594 112.75 36.566406 112.75 35.339844 C 112.75 34.117188 111.757812 33.125 110.53125 33.125 " fill-opacity="1" fill-rule="nonzero"></path><path fill="#026da5" d="M 39.460938 52.546875 L 46.253906 52.546875 C 47.480469 52.546875 48.472656 51.554688 48.472656 50.332031 C 48.472656 49.105469 47.480469 48.113281 46.253906 48.113281 L 39.460938 48.113281 C 38.234375 48.113281 37.242188 49.105469 37.242188 50.332031 C 37.242188 51.554688 38.234375 52.546875 39.460938 52.546875 " fill-opacity="1" fill-rule="nonzero"></path><path fill="#026da5" d="M 110.53125 48.113281 L 55.859375 48.113281 C 54.636719 48.113281 53.644531 49.105469 53.644531 50.332031 C 53.644531 51.554688 54.636719 52.546875 55.859375 52.546875 L 110.53125 52.546875 C 111.757812 52.546875 112.75 51.554688 112.75 50.332031 C 112.75 49.105469 111.757812 48.113281 110.53125 48.113281 " fill-opacity="1" fill-rule="nonzero"></path><path fill="#026da5" d="M 39.460938 67.539062 L 46.253906 67.539062 C 47.480469 67.539062 48.472656 66.542969 48.472656 65.320312 C 48.472656 64.09375 47.480469 63.101562 46.253906 63.101562 L 39.460938 63.101562 C 38.234375 63.101562 37.242188 64.09375 37.242188 65.320312 C 37.242188 66.542969 38.234375 67.539062 39.460938 67.539062 " fill-opacity="1" fill-rule="nonzero"></path><path fill="#026da5" d="M 110.53125 63.101562 L 55.859375 63.101562 C 54.636719 63.101562 53.644531 64.09375 53.644531 65.320312 C 53.644531 66.542969 54.636719 67.539062 55.859375 67.539062 L 110.53125 67.539062 C 111.757812 67.539062 112.75 66.542969 112.75 65.320312 C 112.75 64.09375 111.757812 63.101562 110.53125 63.101562 " fill-opacity="1" fill-rule="nonzero"></path><path fill="#026da5" d="M 39.460938 82.527344 L 46.253906 82.527344 C 47.480469 82.527344 48.472656 81.535156 48.472656 80.308594 C 48.472656 79.085938 47.480469 78.09375 46.253906 78.09375 L 39.460938 78.09375 C 38.234375 78.09375 37.242188 79.085938 37.242188 80.308594 C 37.242188 81.535156 38.234375 82.527344 39.460938 82.527344 " fill-opacity="1" fill-rule="nonzero"></path><path fill="#026da5" d="M 110.53125 78.09375 L 55.859375 78.09375 C 54.636719 78.09375 53.644531 79.085938 53.644531 80.308594 C 53.644531 81.535156 54.636719 82.527344 55.859375 82.527344 L 110.53125 82.527344 C 111.757812 82.527344 112.75 81.535156 112.75 80.308594 C 112.75 79.085938 111.757812 78.09375 110.53125 78.09375 " fill-opacity="1" fill-rule="nonzero"></path><path fill="#026da5" d="M 39.460938 97.515625 L 46.253906 97.515625 C 47.480469 97.515625 48.472656 96.523438 48.472656 95.296875 C 48.472656 94.074219 47.480469 93.082031 46.253906 93.082031 L 39.460938 93.082031 C 38.234375 93.082031 37.242188 94.074219 37.242188 95.296875 C 37.242188 96.523438 38.234375 97.515625 39.460938 97.515625 " fill-opacity="1" fill-rule="nonzero"></path><path fill="#026da5" d="M 110.53125 93.082031 L 55.859375 93.082031 C 54.636719 93.082031 53.644531 94.074219 53.644531 95.296875 C 53.644531 96.523438 54.636719 97.515625 55.859375 97.515625 L 110.53125 97.515625 C 111.757812 97.515625 112.75 96.523438 112.75 95.296875 C 112.75 94.074219 111.757812 93.082031 110.53125 93.082031 " fill-opacity="1" fill-rule="nonzero"></path><g clip-path="url(#744e080f72)"><path fill="#026da5" d="M 123.59375 130.265625 C 123.59375 134.59375 120.074219 138.109375 115.746094 138.109375 L 105.316406 138.109375 C 105.898438 136.574219 106.316406 134.957031 106.546875 133.28125 C 106.554688 133.21875 106.5625 133.152344 106.570312 133.089844 C 106.605469 132.824219 106.640625 132.5625 106.664062 132.296875 C 106.679688 132.148438 106.6875 132 106.699219 131.851562 C 106.710938 131.660156 106.730469 131.464844 106.738281 131.273438 C 106.753906 130.917969 106.765625 130.5625 106.765625 130.207031 C 106.765625 117.890625 96.746094 107.871094 84.429688 107.871094 C 72.113281 107.871094 62.09375 117.890625 62.09375 130.207031 C 62.09375 130.5625 62.101562 130.917969 62.121094 131.273438 C 62.128906 131.464844 62.144531 131.65625 62.160156 131.847656 C 62.171875 132 62.179688 132.148438 62.195312 132.296875 C 62.21875 132.5625 62.25 132.824219 62.285156 133.089844 C 62.292969 133.152344 62.300781 133.21875 62.308594 133.28125 C 62.542969 134.957031 62.960938 136.574219 63.542969 138.109375 L 34.246094 138.109375 C 29.917969 138.109375 26.398438 134.59375 26.398438 130.265625 L 26.398438 27.28125 C 26.398438 22.953125 29.917969 19.433594 34.246094 19.433594 L 115.746094 19.433594 C 120.074219 19.433594 123.59375 22.953125 123.59375 27.28125 Z M 84.429688 148.109375 C 77.886719 148.109375 72.15625 144.578125 69.03125 139.324219 C 69.011719 139.289062 68.996094 139.246094 68.976562 139.210938 C 67.789062 137.179688 67.015625 134.941406 66.695312 132.636719 C 66.683594 132.546875 66.675781 132.457031 66.664062 132.367188 C 66.640625 132.199219 66.621094 132.035156 66.605469 131.863281 C 66.589844 131.660156 66.574219 131.453125 66.558594 131.246094 C 66.554688 131.164062 66.550781 131.082031 66.546875 131 C 66.535156 130.738281 66.527344 130.472656 66.527344 130.207031 C 66.527344 120.335938 74.558594 112.304688 84.429688 112.304688 C 94.300781 112.304688 102.328125 120.335938 102.328125 130.207031 C 102.328125 130.472656 102.320312 130.738281 102.308594 131 C 102.304688 131.082031 102.300781 131.164062 102.296875 131.246094 C 102.285156 131.453125 102.269531 131.660156 102.25 131.863281 C 102.234375 132.035156 102.214844 132.199219 102.195312 132.367188 C 102.183594 132.457031 102.171875 132.546875 102.160156 132.636719 C 101.839844 134.941406 101.070312 137.179688 99.882812 139.210938 C 99.859375 139.246094 99.84375 139.289062 99.824219 139.324219 C 96.703125 144.578125 90.972656 148.109375 84.429688 148.109375 Z M 115.746094 15 L 34.246094 15 C 27.472656 15 21.964844 20.507812 21.964844 27.28125 L 21.964844 130.265625 C 21.964844 137.039062 27.472656 142.542969 34.246094 142.542969 L 65.824219 142.542969 C 69.828125 148.566406 76.671875 152.542969 84.429688 152.542969 C 92.1875 152.542969 99.03125 148.566406 103.035156 142.542969 L 115.746094 142.542969 C 122.519531 142.542969 128.027344 137.039062 128.027344 130.265625 L 128.027344 27.28125 C 128.027344 20.507812 122.519531 15 115.746094 15 " fill-opacity="1" fill-rule="nonzero"></path></g><path fill="#026da5" d="M 90.535156 120.335938 C 89.5 119.691406 88.128906 120.011719 87.484375 121.054688 L 79.339844 134.21875 L 76.78125 131.289062 C 75.980469 130.367188 74.578125 130.273438 73.65625 131.074219 C 72.734375 131.878906 72.636719 133.28125 73.445312 134.203125 L 77.972656 139.398438 C 78.394531 139.882812 79.007812 140.15625 79.644531 140.15625 C 79.703125 140.15625 79.765625 140.15625 79.824219 140.152344 C 80.523438 140.09375 81.160156 139.707031 81.527344 139.105469 L 91.253906 123.386719 C 91.898438 122.34375 91.578125 120.980469 90.535156 120.335938 " fill-opacity="1" fill-rule="nonzero"></path><path fill="#026da5" d="M 47.46875 112.117188 L 37.339844 112.117188 C 36.117188 112.117188 35.125 113.109375 35.125 114.335938 C 35.125 115.558594 36.117188 116.550781 37.339844 116.550781 L 47.46875 116.550781 C 48.691406 116.550781 49.683594 115.558594 49.683594 114.335938 C 49.683594 113.109375 48.691406 112.117188 47.46875 112.117188 " fill-opacity="1" fill-rule="nonzero"></path><path fill="#026da5" d="M 47.46875 122.777344 L 37.339844 122.777344 C 36.117188 122.777344 35.125 123.769531 35.125 124.992188 C 35.125 126.21875 36.117188 127.210938 37.339844 127.210938 L 47.46875 127.210938 C 48.691406 127.210938 49.683594 126.21875 49.683594 124.992188 C 49.683594 123.769531 48.691406 122.777344 47.46875 122.777344 " fill-opacity="1" fill-rule="nonzero"></path></svg> 