<?xml version="1.0" encoding="UTF-8"?> <svg xmlns="http://www.w3.org/2000/svg" xmlns:xlink="http://www.w3.org/1999/xlink" version="1.1" id="Layer_1" x="0px" y="0px" viewBox="0 0 500 500" style="enable-background:new 0 0 500 500;" xml:space="preserve"> <style type="text/css"> .st0{clip-path:url(#SVGID_00000117669694359073753060000010131489287301605032_);fill:#006FA7;} .st1{fill:#006FA7;} .st2{clip-path:url(#SVGID_00000098914647888021966300000012101027547418446761_);fill:#006FA7;} .st3{clip-path:url(#SVGID_00000098914647888021966300000012101027547418446761_);fill:none;stroke:#006FA7;stroke-width:1.417;stroke-miterlimit:10;} </style> <g> <g> <defs> <rect id="SVGID_1_" x="136.2" y="100.8" width="253.8" height="301.3"></rect> </defs> <clipPath id="SVGID_00000079447570243318715030000001037802731528601234_"> <use xlink:href="#SVGID_1_" style="overflow:visible;"></use> </clipPath> <path style="clip-path:url(#SVGID_00000079447570243318715030000001037802731528601234_);fill:#006FA7;" d="M307.5,283.6h-91 c-2,0-3.6-1.9-3.6-4.2s1.6-4.2,3.6-4.2h91c2,0,3.6,1.9,3.6,4.2S309.5,283.6,307.5,283.6"></path> <path style="clip-path:url(#SVGID_00000079447570243318715030000001037802731528601234_);fill:#006FA7;" d="M307.5,309h-91 c-2,0-3.6-1.9-3.6-4.2c0-2.3,1.6-4.2,3.6-4.2h91c2,0,3.6,1.9,3.6,4.2C311.1,307.1,309.5,309,307.5,309"></path> <path style="clip-path:url(#SVGID_00000079447570243318715030000001037802731528601234_);fill:#006FA7;" d="M252.7,334.4h-36.3 c-2,0-3.6-1.9-3.6-4.2s1.6-4.2,3.6-4.2h36.3c2,0,3.6,1.9,3.6,4.2S254.7,334.4,252.7,334.4"></path> </g> <path class="st1" d="M163,246.2h162.8V337l-50.7,56.6H163V246.2z M154.5,237.7v164.3h124.4l55.4-61.8V237.7H154.5z"></path> <polygon class="st1" points="279.9,397.9 271.4,397.9 271.4,334.4 330.1,334.4 330.1,342.9 279.9,342.9 "></polygon> <g> <defs> <rect id="SVGID_00000002360489770585152000000000564737145384470414_" x="136.2" y="100.8" width="253.8" height="301.3"></rect> </defs> <clipPath id="SVGID_00000092444009711817662090000012546473317122517906_"> <use xlink:href="#SVGID_00000002360489770585152000000000564737145384470414_" style="overflow:visible;"></use> </clipPath> <path style="clip-path:url(#SVGID_00000092444009711817662090000012546473317122517906_);fill:#006FA7;" d="M136.2,238.2v89.5 c0,0.7,0.3,1.3,0.9,1.7l18.6,13.4V238.2H136.2z"></path> <path style="clip-path:url(#SVGID_00000092444009711817662090000012546473317122517906_);fill:#006FA7;" d="M367.2,300.5h-19.5 c-2.3,0-4.2-1.9-4.2-4.2s1.9-4.2,4.2-4.2h19.5c2.3,0,4.2,1.9,4.2,4.2S369.5,300.5,367.2,300.5 M367.2,317.5h-19.5 c-2.3,0-4.2-1.9-4.2-4.2c0-2.3,1.9-4.2,4.2-4.2h19.5c2.3,0,4.2,1.9,4.2,4.2C371.4,315.6,369.5,317.5,367.2,317.5 M330.1,238.2 v104.6l58.3-13.6c1-0.2,1.6-1.1,1.6-2.1v-88.9H330.1z"></path> <path style="clip-path:url(#SVGID_00000092444009711817662090000012546473317122517906_);fill:#006FA7;" d="M368.2,210.9H155.7 v-83h212.4V210.9z M387.9,100.8h-249c-1.5,0-2.6,1.2-2.6,2.6v134.8H390V102.9C390,101.7,389.1,100.8,387.9,100.8"></path> <path style="clip-path:url(#SVGID_00000092444009711817662090000012546473317122517906_);fill:#006FA7;" d="M202.6,279.4 c0,4.1-5.8,7.4-13,7.4c-7.2,0-13-3.3-13-7.4s5.8-7.4,13-7.4C196.8,272,202.6,275.3,202.6,279.4"></path> <path style="clip-path:url(#SVGID_00000092444009711817662090000012546473317122517906_);fill:none;stroke:#006FA7;stroke-width:1.417;stroke-miterlimit:10;" d=" M201.9,329.8c0,3.9-5.5,7-12.4,7c-6.8,0-12.4-3.1-12.4-7c0-3.9,5.5-7,12.4-7C196.4,322.8,201.9,325.9,201.9,329.8z M201.9,304.8 c0,3.9-5.5,7-12.4,7c-6.8,0-12.4-3.1-12.4-7c0-3.9,5.5-7,12.4-7C196.4,297.8,201.9,300.9,201.9,304.8z"></path> </g> </g> </svg> 