<?xml version="1.0" encoding="UTF-8"?> <!-- Generator: Adobe Illustrator 24.1.0, SVG Export Plug-In . SVG Version: 6.00 Build 0) --> <svg xmlns="http://www.w3.org/2000/svg" xmlns:xlink="http://www.w3.org/1999/xlink" version="1.1" id="Layer_1" x="0px" y="0px" viewBox="0 0 357 312" style="enable-background:new 0 0 357 312;" xml:space="preserve"> <style type="text/css"> .st0{fill:#CA3333;} </style> <path class="st0" d="M58.1,149.5c20.8,0,37.6-16.8,37.6-37.6c0-20.8-16.8-37.6-37.6-37.6s-37.6,16.8-37.6,37.6 C20.5,132.7,37.4,149.5,58.1,149.5 M298.9,157.3c-27.6,0-50.1,22.2-50.5,49.7c-11.6-28.7-39.6-49-72.4-49c-29.3,0-54.8,16.1-68.1,40 c-4.6-23.2-25.1-40.7-49.6-40.7c-27.9,0-50.6,22.7-50.6,50.6v29.8h90.2v44.5H254v-44.5h95.4v-29.8 C349.4,179.9,326.8,157.3,298.9,157.3 M298.9,149.5c20.8,0,37.6-16.8,37.6-37.6c0-20.8-16.8-37.6-37.6-37.6s-37.6,16.8-37.6,37.6 C261.3,132.7,278.1,149.5,298.9,149.5 M175.9,146c32.1,0,58.1-26,58.1-58.1c0-32.1-26-58.1-58.1-58.1c-32.1,0-58.1,26-58.1,58.1 C117.8,120,143.8,146,175.9,146"></path> </svg> 