<?xml version="1.0" encoding="UTF-8"?> <!-- Generator: Adobe Illustrator 24.1.0, SVG Export Plug-In . SVG Version: 6.00 Build 0) --> <svg xmlns="http://www.w3.org/2000/svg" xmlns:xlink="http://www.w3.org/1999/xlink" version="1.1" id="Layer_1" x="0px" y="0px" viewBox="0 0 311.8 312" style="enable-background:new 0 0 311.8 312;" xml:space="preserve"> <style type="text/css"> .st0{fill:#026DA5;} </style> <g> <path class="st0" d="M156,279.8L156,279.8c21.6,0.1,43.2,0.7,64.7-0.1c36.1-1.3,57.3-22.1,57.9-58c0.8-42.3,0.8-84.6,0-127 c2-29.8-20.4-55.6-50.2-57.6c-2.4-0.2-4.8-0.2-7.2,0c-43.7-0.9-87.4-0.9-131.1,0c-29.5-1.9-55,20.5-57,50c-0.1,2.1-0.1,4.2,0,6.3 c-1.1,43.4-1.1,86.8,0,130.3c-1.3,29.6,21.6,54.7,51.2,56c1.7,0.1,3.5,0.1,5.2,0C111.7,280.5,133.9,279.8,156,279.8 M4.6,100.2 c1-7.1,1.8-14.1,3-21.2C12.4,40.8,44.5,11.8,83.1,11c48.4-1.7,96.8-1.7,145.1,0c42.5,0.5,76.7,35.1,76.7,77.7 c1.4,46.4,1.4,93,0,139.4c0,42.5-34.2,77.1-76.7,77.6c-48.4,1.7-96.8,1.8-145.1,0c-42.3-1.2-76.2-35.5-76.8-77.9 c-0.2-3.8-1.1-7.5-1.6-11.3C4.6,177.8,4.6,139,4.6,100.2"></path> <path class="st0" d="M206.1,158.3c0.2-27.8-22.2-50.4-50-50.6c-27.8-0.2-50.4,22.2-50.6,50c-0.2,27.8,22.2,50.4,50,50.6h0.4 c27.6,0.1,50.1-22.2,50.2-49.9V158.3z M155.8,234.9c-42.3-0.6-76-35.4-75.4-77.7c0.6-42.3,35.4-76,77.7-75.4 c41.8,0.6,75.4,34.7,75.4,76.5C233.2,201,198.4,235.2,155.8,234.9L155.8,234.9z"></path> <path class="st0" d="M254.4,78.5c0,9.8-8,17.8-17.9,17.8c-9.8,0-17.8-8-17.8-17.9c0-9.8,8-17.7,17.7-17.8 C246.3,60.7,254.3,68.6,254.4,78.5"></path> </g> </svg> 