<?xml version="1.0" encoding="UTF-8"?> <!-- Generator: Adobe Illustrator 24.1.0, SVG Export Plug-In . SVG Version: 6.00 Build 0) --> <svg xmlns="http://www.w3.org/2000/svg" xmlns:xlink="http://www.w3.org/1999/xlink" version="1.1" id="Layer_1" x="0px" y="0px" viewBox="0 0 357 312" style="enable-background:new 0 0 357 312;" xml:space="preserve"> <style type="text/css"> .st0{fill:#026DA5;} </style> <path class="st0" d="M60.9,119.3c1-11.6,11.1-20.2,22.7-19.5h190.2c11.6-0.8,21.7,7.9,22.7,19.5v25.1l45.5-34 c0,0-135.6-90.1-142-93.4c-6.3-4.4-13.6-7.1-21.2-8.1c-7.6,1-14.9,3.7-21.2,8.1c-6.6,3.3-142.1,93.3-142.1,93.3l45.5,34L60.9,119.3 L60.9,119.3z M214.5,124.7h-71.5c-2.8-0.2-5.2,2-5.4,4.8c-0.2,2.8,2,5.2,4.8,5.4c0.2,0,0.4,0,0.6,0h71.5c2.8,0,5.1-2.3,5.1-5.1 C219.6,127,217.3,124.7,214.5,124.7L214.5,124.7z M351.1,121.9c-27.8,21.3-129.5,99-139.1,107.7c-8.9,9.1-20.6,15-33.2,16.6 c-12.6-1.6-24.4-7.4-33.3-16.6c-9.6-8.7-111.4-86.5-139.1-107.7c-0.8,2.7-1.2,5.6-1.3,8.5v142.7c0,5.7,1.5,11.3,4.5,16.1l81.6-79.5 c1.8-1.7,4.6-1.7,6.4,0.1c1.7,1.8,1.7,4.6-0.1,6.4l-82,80c5.7,5.1,13,7.9,20.6,7.9h285.4c7.6,0,14.9-2.8,20.6-7.9l-82.1-80 c-1.8-1.7-1.8-4.6-0.1-6.4c1.7-1.8,4.6-1.8,6.4-0.1l81.6,79.5c3-4.8,4.5-10.4,4.5-16.1V130.3C352.3,127.5,351.9,124.6,351.1,121.9 M214.5,149.8h-71.5c-2.8-0.2-5.2,2-5.4,4.8c-0.2,2.8,2,5.2,4.8,5.4c0.2,0,0.4,0,0.6,0h71.5c2.8,0,5.1-2.3,5.1-5.1 C219.6,152.1,217.3,149.8,214.5,149.8L214.5,149.8z M214.5,174.4h-71.5c-2.8-0.2-5.2,2-5.4,4.8c-0.2,2.8,2,5.2,4.8,5.4 c0.2,0,0.4,0,0.6,0h71.5c2.8,0.2,5.2-2,5.4-4.8c0.2-2.8-2-5.2-4.8-5.4C214.9,174.4,214.7,174.4,214.5,174.4"></path> </svg> 