<?xml version="1.0" encoding="UTF-8"?> <!-- Generator: Adobe Illustrator 24.1.0, SVG Export Plug-In . SVG Version: 6.00 Build 0) --> <svg xmlns="http://www.w3.org/2000/svg" xmlns:xlink="http://www.w3.org/1999/xlink" version="1.1" id="Layer_1" x="0px" y="0px" viewBox="0 0 357 312" style="enable-background:new 0 0 357 312;" xml:space="preserve"> <style type="text/css"> .st0{fill:#026DA5;} </style> <path class="st0" d="M2.2,205.1c39.6,30.9,95.6,29.2,133.2-4.1c-15.4-4.1-38-7.2-16.4-29.7c0,0-32.3-6.2-40.4-22.9 c6-6,14.2-9.1,22.7-8.5c-7.8-5-37.9-14.5-36.4-35.7c18.4-0.3,20.2-0.3,20.2-0.3S53,81.4,56.6,57.4c27.6,9.2,83.9,28.7,116.9,63 c3.5-13.4,19.5-64,53.1-86l0.3,8.1c0,0,15.2-15.6,24.4-10.6l-3.5,7c6-2.3,12.5-3,18.8-2.1c-7,5.3-24.1,8.1-28.7,18.8 c7.5,0,62.3-3.5,74,66.3c19.5,2.1,30.1,3.9,41.5-2.1c-5.3,7.5-9.2,14.2-37.5,18.1c12.4,4.5,25.7,6.2,38.9,5 c-9.3,11.8-24.8,17.1-39.4,13.4c-12,33.6-43.2,108.4-170.3,115.8C124.5,270.9,47.6,269.9,2.2,205.1"></path> </svg> 