<?xml version="1.0" encoding="UTF-8"?> <!-- Generator: Adobe Illustrator 24.1.0, SVG Export Plug-In . SVG Version: 6.00 Build 0) --> <svg xmlns="http://www.w3.org/2000/svg" xmlns:xlink="http://www.w3.org/1999/xlink" version="1.1" id="Layer_1" x="0px" y="0px" viewBox="0 0 357 312" style="enable-background:new 0 0 357 312;" xml:space="preserve"> <style type="text/css"> .st0{fill:#CA3333;} </style> <path class="st0" d="M37.7,124.9H25.5V160H11.9v23.3h13.6v23H15.4v87.4h10.7v-30.4h11.2v30.4h10.8v-87.4H37.7v-23h11.9V160H37.7 V124.9z M82.8,127.9L75,240.8c62-46.5,99.6,4.4,107.4,16.6c48.7-76.4,105.1-7.7,105.1-7.7V133.4c-44.3,26.6-86.3,40.9-99.6,39.8 C134.8,173.3,82.8,127.9,82.8,127.9 M352.8,85.9L184.6,18.4L4.2,84.7L179,153.4L352.8,85.9z"></path> </svg> 