<?xml version="1.0" encoding="UTF-8"?> <!-- Generator: Adobe Illustrator 24.1.0, SVG Export Plug-In . SVG Version: 6.00 Build 0) --> <svg xmlns="http://www.w3.org/2000/svg" xmlns:xlink="http://www.w3.org/1999/xlink" version="1.1" id="Layer_1" x="0px" y="0px" viewBox="0 0 500 500" style="enable-background:new 0 0 500 500;" xml:space="preserve"> <style type="text/css"> .st0{clip-path:url(#SVGID_2_);fill:#026DA5;} </style> <g> <defs> <rect id="SVGID_1_" x="124.8" y="99.9" width="250.5" height="300.2"></rect> </defs> <clipPath id="SVGID_2_"> <use xlink:href="#SVGID_1_" style="overflow:visible;"></use> </clipPath> <path class="st0" d="M250,361.6L250,361.6L250,361.6L250,361.6L250,361.6c-1.3-0.6-87.3-42.7-93.1-88.2c0-70,0.5-117.4,0.5-117.4 s31.5-22.7,92.6-25.6h0h0c61.1,3,92.6,25.6,92.6,25.6s0.5,47.4,0.5,117.4C337.3,318.9,251.3,361,250,361.6 M374.6,134.4 c0,0-42.4-30.5-124.6-34.5h0h0c-82.1,4-124.6,34.5-124.6,34.5s-0.7,53-0.7,147.1c7.9,61.2,123.5,117.8,125.2,118.6v0h0h0v0 c1.7-0.8,117.3-57.4,125.2-118.6C375.2,187.4,374.6,134.4,374.6,134.4 M209.5,296c17.7,15.5,40,26.4,40.5,26.7v0l0,0l0,0v0 c0.8-0.4,57.8-28.3,61.7-58.5c0-29.8-0.1-55.6-0.2-70.3L209.5,296z M250,164.1L250,164.1L250,164.1c-40.5,2-61.4,17-61.4,17 s-0.3,36.7-0.3,83.1c0.5,4.2,2.1,8.4,4.5,12.5L296,173.4C285.8,169.4,270.4,165.1,250,164.1"></path> </g> </svg> 