<?xml version="1.0" encoding="UTF-8"?> <!-- Generator: Adobe Illustrator 24.1.0, SVG Export Plug-In . SVG Version: 6.00 Build 0) --> <svg xmlns="http://www.w3.org/2000/svg" xmlns:xlink="http://www.w3.org/1999/xlink" version="1.1" id="Layer_1" x="0px" y="0px" viewBox="0 0 500 500" style="enable-background:new 0 0 500 500;" xml:space="preserve"> <style type="text/css"> .st0{clip-path:url(#SVGID_2_);fill:#026DA5;} </style> <g> <defs> <rect id="SVGID_1_" x="79.4" y="100.2" width="341.2" height="299.6"></rect> </defs> <clipPath id="SVGID_2_"> <use xlink:href="#SVGID_1_" style="overflow:visible;"></use> </clipPath> <path class="st0" d="M250,198.8c19.7,0,35.9,15,37.9,34.2h7.1c-2-23.1-21.4-41.3-45-41.3c-23.7,0-43,18.2-45,41.3h7.1 C214,213.8,230.3,198.8,250,198.8 M240.8,304.3h18.3v42.3h-18.3V304.3z M187,360.5h126c4.6,0,8.3-3.7,8.3-8.3V244.4 c0-4.6-3.7-8.3-8.3-8.3H187c-4.6,0-8.3,3.7-8.3,8.3v107.8C178.7,356.8,182.4,360.5,187,360.5 M409.9,387.5H90.1V158.4h319.9V387.5z M99.8,131.1c5.1,0,9.2,4.1,9.2,9.2c0,5-4.1,9.1-9.2,9.1c-5.1,0-9.1-4.1-9.1-9.1C90.6,135.2,94.7,131.1,99.8,131.1 M125.6,131.1 c5.1,0,9.2,4.1,9.2,9.2c0,5-4.1,9.1-9.2,9.1c-5,0-9.1-4.1-9.1-9.1C116.5,135.2,120.6,131.1,125.6,131.1 M151.4,131.1 c5.1,0,9.2,4.1,9.2,9.2c0,5-4.1,9.1-9.2,9.1s-9.1-4.1-9.1-9.1C142.3,135.2,146.4,131.1,151.4,131.1 M403.7,100.2H96.3 c-9.3,0-16.9,7.5-16.9,16.9V383c0,9.3,7.6,16.9,16.9,16.9h307.4c9.3,0,16.9-7.6,16.9-16.9V117C420.6,107.7,413,100.2,403.7,100.2"></path> </g> </svg> 