<?xml version="1.0" encoding="UTF-8"?> <!-- Generator: Adobe Illustrator 24.1.0, SVG Export Plug-In . SVG Version: 6.00 Build 0) --> <svg xmlns="http://www.w3.org/2000/svg" xmlns:xlink="http://www.w3.org/1999/xlink" version="1.1" id="Layer_1" x="0px" y="0px" viewBox="0 0 500 500" style="enable-background:new 0 0 500 500;" xml:space="preserve"> <style type="text/css"> .st0{clip-path:url(#SVGID_2_);fill:#026DA5;} </style> <g> <defs> <rect id="SVGID_1_" x="99.2" y="100.1" width="301.7" height="299.7"></rect> </defs> <clipPath id="SVGID_2_"> <use xlink:href="#SVGID_1_" style="overflow:visible;"></use> </clipPath> <path class="st0" d="M356.3,256.7c-0.4-0.8-0.8-1.2-1.8-1.2c-15.2,0-30.4,0-45.7,0c-0.4,0-0.8,0-1.2,0.1v24h1.4c3.8,0,7.5,0,11.3,0 c0.9,0,1.3,0.2,1.6,1.1c1.7,5.9,3.5,11.8,5.3,17.8c0.1,0.3,0.2,0.7,0.2,1.1H159.1c0-0.2,0-0.3,0-0.5c1.9-6.3,3.7-12.5,5.6-18.8 c0.2-0.7,0.6-0.7,1.2-0.7c3.1,0,6.2,0,9.3,0h3.7v-24.1h-1.4c-15.1,0-30.2,0-45.3,0c-1,0-1.5,0.3-2,1.3c-9.3,21-18.6,42-28,63 c-1,2.3-2.1,4.6-3.2,6.9h288.2C377,303.3,366.6,280,356.3,256.7"></path> <path class="st0" d="M99.2,336.4v63.4c0.5,0,1,0,1.6,0h287.5c0-1.1,0.1-1.7,0.1-2.2c0-20.4,0-40.8,0-61.2L99.2,336.4L99.2,336.4z"></path> <path class="st0" d="M400.8,100.1H328v63.4c0.1,0,0.3,0,0.4,0h72.4c0-1.1,0-1.7,0-2.2C400.8,140.9,400.8,120.5,400.8,100.1"></path> <path class="st0" d="M299.4,195.3c-0.7,0-1.4,0.1-2,0c-1.8-0.2-3.3,0.4-4.7,1.5c-13.7,9.8-27.4,19.6-41.1,29.4 c-2.9,2.1-6,3.9-9.5,4.9c-7.9,2.2-15.2-1.9-16.9-9.9c-1.7-7.9-0.2-15.2,5.1-21.4c1.2-1.4,2.5-2.8,3.8-4.4h-46.9v96.2h112.3V195.3z"></path> <path class="st0" d="M236.9,187.3c0.8,0,1-0.4,1.2-1c1.5-4.4,3.2-8.8,4.5-13.3c0.8-2.6,2.5-4.2,4.9-5.3c3.7-1.6,7.6-2.3,11.6-1.9 c1.8,0.2,3.6,0.7,5.2,1.4c1.9,0.9,2.4,2.7,1.5,4.6c-0.5,1-1.2,1.9-1.9,2.8c-9.5,10.5-18.9,21-28.4,31.5c-0.5,0.5-1,1.1-1.3,1.7 c-1.7,3.8-2.2,7.7-1.1,11.8c0.9,3.5,3.4,4.9,6.8,3.8c2.2-0.8,4.4-1.9,6.4-3.3c18.8-13.4,37.6-26.8,56.4-40.2 c0.5-0.3,0.9-0.9,1.1-1.5c1.2-3.3,2.2-6.6,3.4-9.9c0.3-0.8,0.7-1.5,1.3-2.1c3.4-3.5,6.8-6.9,10.3-10.3c0.6-0.6,0.9-1.2,0.9-2 c0-11.2,0-22.4,0-33.6c0-0.4,0-0.9-0.1-1.3c-0.5,0-0.8-0.1-1.2-0.1c-12.6,0-25.3,0-38,0c-0.6,0-1.3,0.2-1.9,0.6 c-8.7,5.2-17.4,10.4-26.1,15.7c-5.6,3.4-11.2,6.8-16.7,10.3c-4.9,3.1-8.5,7.4-10.6,12.8c-2.1,5.4-3.8,10.8-5.7,16.2 c-1.4,4.1-2.8,8.3-4.2,12.6c0.4,0.1,0.6,0.1,0.8,0.1C223,187.2,230,187.2,236.9,187.3"></path> </g> </svg> 