<?xml version="1.0" encoding="UTF-8"?> <!-- Generator: Adobe Illustrator 24.1.0, SVG Export Plug-In . SVG Version: 6.00 Build 0) --> <svg xmlns="http://www.w3.org/2000/svg" xmlns:xlink="http://www.w3.org/1999/xlink" version="1.1" id="Layer_1" x="0px" y="0px" viewBox="0 0 357 312" style="enable-background:new 0 0 357 312;" xml:space="preserve"> <style type="text/css"> .st0{fill:#CA3333;} </style> <g> <path class="st0" d="M61.8,45.1c8.8,5.6,17.6,11.1,27.4,17.3C70,96.6,51,130.4,31.4,165.3c-9.9-6.1-18.9-11.6-27.9-17.2v-2.5 c0.8-0.9,1.7-1.7,2.2-2.7C24,110.3,42.3,77.7,60.6,45.1H61.8z"></path> <path class="st0" d="M353.5,148.1c-8.9,5.5-17.8,11.1-27.4,17.1c-4.5-7.8-8.7-14.8-12.7-21.9c-14.1-25.2-28.1-50.4-42.4-75.5 c-2.4-4.1-2-6.5,2.1-8.9c7.4-4.3,14.7-8.9,23.2-14.1c19.4,34.6,38.2,68.4,57.1,102.1V148.1z"></path> <path class="st0" d="M140,267.3c-2.4-1.8-5.2-3.3-7.1-5.6c-3.7-4.3-4.3-9.2-0.8-14.2c3.5-4.8,7-9.7,10.5-14.5 c3.5-4.7,8-5.5,13.1-2.7c5.5,3.1,9.2,9.9,6.7,14.5c-4.7,8.6-9.5,17.3-18.6,22.4H140z"></path> <path class="st0" d="M216.2,251.9c-10.3,13-32.9,14.4-50.2,3.7c7.3-20.7,2.6-30.8-16.8-34.8c0.1-13.7-6.9-21.8-20.6-24.3 c-0.1-10.7-3.6-19.5-14.4-23c-10.2-3.2-17.7,1.1-22.7,10.4c-9.5-15.6-20.1-18.6-33.9-9c-4-4.8-8.1-9.6-11.9-14.7 c-0.7-1-0.9-3.2-0.3-4.2c14.2-25.6,28.6-51,42.4-75.5c12.3,3.8,23.8,7.3,36,11c-1.7,2.5-3.7,5.5-5.6,8.5c-4.3,7-9.4,13.7-12.7,21.2 c-5.7,13,0.1,20.8,14.1,19.7c15-1.2,26.4-9.3,35.5-20.4c4.3-5.3,9-9,15.7-9.8c2.1-0.3,4.5-0.2,6.3,0.6 c37.9,18.9,72.5,42.8,105,69.8c3,2.5,5.7,6.2,6.9,9.8c1.5,4.5,0,10.1-4.6,11.6c-4.6,1.5-11.1,2.3-15.1,0.1 c-16-8.5-31.3-18.4-47.1-27.4c-3.1-1.8-6.4-6.2-10.8-2.1c2.5,2.6,4.6,5.8,7.6,7.7c13.2,8.4,26.6,16.6,40.2,24.5 c4.4,2.6,7,5.8,5.1,10.3c-1.5,3.6-4.6,8.1-7.9,9c-4.3,1.2-10,0.5-14-1.6c-12.2-6.1-23.8-13.2-35.6-20c-1.3-0.7-2.5-1.9-3.8-2 c-2.1-0.2-4.3,0.3-6.4,0.4c0.9,1.8,1.4,4.3,2.8,5.2c7.8,5,15.9,9.6,23.9,14.3c4.1,2.4,8.3,4.7,12.3,7.2c3,1.9,7,3.3,5.5,8.4 c-1.5,5.2-4.3,9.3-10,9.4c-4,0.1-8.4-0.4-12-1.9c-10.3-4.3-20.1-9.5-30.4-13.9c-2-0.9-4.9,0.3-7.4,0.5c1.5,1.9,2.6,4.4,4.5,5.4 C195.5,241.6,205.6,246.6,216.2,251.9"></path> <path class="st0" d="M312.5,156.9c-6.8,5.8-13,11.1-19.3,16.5c-3.1,2.7-5.6,2.5-9-0.3c-31.9-25.8-65.4-49.1-102.2-67.5 c-10-5-23-1.6-30,7.1c-8.4,10.5-18.1,19.4-32.4,20.9c-8,0.9-10.4-2.1-7.6-9.7c1.1-3.1,3-5.9,4.8-8.6c6.5-9.5,13.5-18.8,19.7-28.5 c6.4-10.1,16.9-10.3,26.7-11.7c25.4-3.8,50.6-2.2,75.6,3.8c7.9,1.9,16.7,0.4,25,0.7c1.9,0.1,4.8,0.5,5.5,1.7 C283.7,106,297.8,131,312.5,156.9"></path> <path class="st0" d="M121,194.5c-0.5,1.1-1.2,3.3-2.5,5.1c-7,9.7-14,19.4-21.3,28.9c-4.6,5.9-10.1,6.6-15.6,2.4 c-5.6-4.2-7.2-10.9-3.4-16.3c7-9.9,14.4-19.6,21.6-29.4c3.1-4.2,6.8-6.5,12.2-4.7C116.9,182.1,121.1,188.1,121,194.5"></path> <path class="st0" d="M141.5,218.8c-0.3,0.9-0.7,3.2-1.9,5c-5.3,7.6-10.6,15.2-16.3,22.5c-4.6,5.9-10,6.5-15.5,2.4 c-5.4-4-7.2-11-3.6-16.4c5.4-7.8,11.4-15.1,16.9-22.9c3.2-4.6,7.2-6.1,12.2-4C138.4,207.6,141.3,211.6,141.5,218.8"></path> <path class="st0" d="M68.3,209.1c-9.9-0.2-16-10.9-11.2-18.8c1.8-3,4.1-5.7,6.1-8.6c3.3-4.6,7.5-6.3,12.9-3.8 c5.3,2.4,9.9,8.8,7.7,13.3c-3.1,6.3-8.1,11.6-12.6,17.2C70.7,209.2,68.9,209,68.3,209.1"></path> </g> </svg> 