<?xml version="1.0" encoding="UTF-8"?> <!-- Generator: Adobe Illustrator 24.1.0, SVG Export Plug-In . SVG Version: 6.00 Build 0) --> <svg xmlns="http://www.w3.org/2000/svg" xmlns:xlink="http://www.w3.org/1999/xlink" version="1.1" id="Layer_1" x="0px" y="0px" viewBox="0 0 500 500" style="enable-background:new 0 0 500 500;" xml:space="preserve"> <style type="text/css"> .st0{clip-path:url(#SVGID_2_);fill:#CA3333;} </style> <g> <defs> <rect id="SVGID_1_" x="131.4" y="100.2" width="237.2" height="299.6"></rect> </defs> <clipPath id="SVGID_2_"> <use xlink:href="#SVGID_1_" style="overflow:visible;"></use> </clipPath> <path class="st0" d="M212.9,237.5c9.5,0,18.9-0.1,28.4,0.1c4.8,0.1,8.7-1.2,8.6-6.5c-0.1-4.8-3.8-6.1-8.4-6.1 c-19.4,0.1-38.8,0.1-58.1,0c-4.6,0-8.2,1.5-8.3,6.2c-0.1,4.7,3.3,6.5,8,6.4C193.1,237.4,203,237.5,212.9,237.5 M212.1,319 c10,0,19.9,0,29.8,0c4.4,0,8.1-1.7,8-6.6c-0.1-4.9-3.8-6.4-8.2-6.4c-19.4,0-38.8,0-58.2,0c-4.4,0-8.2,1.5-8.4,6.3 c-0.1,5.3,3.9,6.8,8.5,6.8C193.2,319,202.6,319,212.1,319 M292.1,240.9c-4.3-4.9-8.1-9.2-12-13.4c-2.9-3.2-6.9-4.2-9.4-0.5 c-1.4,2.8-1.2,6.2,0.4,8.9c5.3,6.4,11.5,12,17.5,17.8c3.4,3.3,7.4,3.8,10.1-0.1c8.7-12.5,17.2-25.1,25.2-38.1 c0.7-2.9-0.1-5.9-2.1-8.1c-1.3-1.2-5.4,0-7.8,1.2c-1.6,0.7-2.5,3.2-3.7,4.9C304.5,222.2,298.8,230.8,292.1,240.9 M292.3,321.8 c-4.2-4.6-7.9-8.9-11.9-13c-2.9-3-6.3-4.2-9.7-1c-3.6,3.5-2.5,7,0.7,10.2c5.2,5.2,10.4,10.5,15.7,15.6c5.6,5.5,9,5.2,13.4-1.2 c7.4-10.9,14.5-21.9,21.9-32.7c2.7-4,4.5-8.1-0.5-11.3c-4.6-2.9-7.7,0.3-10.2,4C305.5,301.8,299.3,311.2,292.3,321.8 M206.5,149.7 h86.7v-18.6c-7.6,0-14.7-0.2-21.8,0.1c-5.2,0.2-8-1.4-9-7c-1.3-7.8-5.8-11.4-12.4-11.4c-6.6-0.3-12.2,4.8-12.5,11.4 c-0.9,5.8-3.8,7.1-8.9,7c-7.3-0.2-14.6-0.1-22-0.1L206.5,149.7z M245.1,100.2h9.7c7.1,3,14.1,6.4,16.9,14.1c1.6,4.5,4.4,5,8.4,5 c22.2-0.2,44.4-0.1,66.6-0.1c15,0,21.8,6.9,21.8,22.1c0,78.6,0,157.2,0,235.8c0,15.7-7.1,22.7-22.9,22.7H154.3 c-15.9,0-22.9-7-22.9-22.7V141.3c0-15.1,6.8-22.1,21.8-22.1c22.4,0,44.8,0.1,67.3-0.1c2.2,0,5.7-1,6.3-2.4 C230.2,108,237,103.4,245.1,100.2"></path> </g> </svg> 