<?xml version="1.0" encoding="UTF-8"?> <!-- Generator: Adobe Illustrator 24.1.0, SVG Export Plug-In . SVG Version: 6.00 Build 0) --> <svg xmlns="http://www.w3.org/2000/svg" xmlns:xlink="http://www.w3.org/1999/xlink" version="1.1" id="Layer_1" x="0px" y="0px" viewBox="0 0 357 312" style="enable-background:new 0 0 357 312;" xml:space="preserve"> <style type="text/css"> .st0{fill:#CA3333;} </style> <path class="st0" d="M76.1,166.1H22.3c-2.9,0-5.3,2.1-5.3,4.8v126.3c0,2.6,2.4,4.8,5.3,4.8h53.8c2.9,0,5.3-2.2,5.3-4.8V170.9 C81.4,168.2,79,166.1,76.1,166.1 M330.3,187.6c-3.5-4-6.2-5.6-7.1-9.5c7.1-3.2,14.1-15.9,14.1-19.9c-0.9-27-29.1-32.6-29.1-32.6 h-84.7c-6.2-0.8-1.8-15.9,1.8-21.5c15-23.9,23.8-45.3,23.8-56.5c-5.3-54.9-46.8-45.3-48.5-39.8c-0.9,55.6-15,68.4-30.9,77.9 c-15.9,9.5-17.6,20.7-36.2,58.8c-18.5,38.2-38.8,25.4-38.8,25.4s0.9,11.9,0.9,124c104.1,17.5,149.1,15.1,176.5,12.7 c27.4-2.4,36.2-19.1,36.2-27.8c0-10.3,3.5-15.9,7.9-18.3c19.4-14.3,13.2-19.1,8-29.4c-5.3-10.3-3.5-13.5,5.3-20.7 C346.2,203.5,333.8,191.5,330.3,187.6"></path> </svg> 