<?xml version="1.0" encoding="UTF-8"?> <!-- Generator: Adobe Illustrator 24.1.0, SVG Export Plug-In . SVG Version: 6.00 Build 0) --> <svg xmlns="http://www.w3.org/2000/svg" xmlns:xlink="http://www.w3.org/1999/xlink" version="1.1" id="Layer_1" x="0px" y="0px" viewBox="0 0 800 165" style="enable-background:new 0 0 800 165;" xml:space="preserve"> <style type="text/css"> .st0{clip-path:url(#SVGID_2_);fill:#FFFFFF;} </style> <g> <defs> <rect id="SVGID_1_" x="30.2" y="14.2" width="741.8" height="141.9"></rect> </defs> <clipPath id="SVGID_2_"> <use xlink:href="#SVGID_1_" style="overflow:visible;"></use> </clipPath> <path class="st0" d="M426,47.5h-13.2v34.4c-1.8-3.6-6.8-8.2-16.7-8.2c-16,0-27.1,13.4-27.1,29.8c0,17.2,11,30,27.4,30 c8.1,0,14-4,16.7-8.8c0,2.3,0.4,6.1,0.6,7.4h13c-0.1-0.9-0.6-5.3-0.6-10.4V47.5z M382.6,103.5c0-10.9,6.5-17.8,15.4-17.8 c8.9,0,15,6.8,15,17.7s-6.2,18.2-15.1,18.2C388.6,121.6,382.6,114.3,382.6,103.5 M348.3,112.2c-1.9,5.6-6.1,9.9-14.3,9.9 c-8.4,0-15.2-6.2-15.5-14.8h41.6c0.1-0.2,0.4-2.1,0.4-4.3c0-18-10.3-29.6-27.8-29.6c-14.4,0-27.7,11.9-27.7,29.9 c0,19.3,13.7,30.5,29.1,30.5c13.7,0,22.7-8.1,25.7-18L348.3,112.2z M318.9,97.4c0.5-6.1,5.4-12.6,13.9-12.6c9.3,0,13.8,6,14,12.6 H318.9z M204,55.2c0,4.9,4,8.8,8.8,8.8c4.9,0,8.9-3.9,8.9-8.8c0-4.9-4-8.9-8.9-8.9C207.9,46.3,204,50.3,204,55.2 M219.5,75.2h-13.4 v56.9h13.4V75.2z M196.3,74.8c-0.6-0.1-2-0.4-3.6-0.4c-7.5,0-13.8,3.6-16.5,9.8v-9.1H163v56.9h13.6V105c0-10.6,4.8-16.7,15.3-16.7 c1.4,0,2.9,0.1,4.4,0.4V74.8z M139.4,112.2c-1.9,5.6-6.1,9.9-14.3,9.9c-8.4,0-15.2-6.2-15.5-14.8h41.6c0.1-0.2,0.4-2.1,0.4-4.3 c0-18-10.3-29.6-27.8-29.6c-14.4,0-27.7,11.9-27.7,29.9c0,19.3,13.7,30.5,29.1,30.5c13.7,0,22.7-8.1,25.7-18L139.4,112.2z M110,97.4c0.5-6.1,5.4-12.6,13.9-12.6c9.4,0,13.8,6,14,12.6H110z M62.7,113.8L45.4,58H30.2l25,74.1h14.3l47.4-117.9H102 L62.7,113.8z"></path> <path class="st0" d="M744.3,118c-8.9,0-14.8-6.2-14.8-16.1c0-9.7,6.2-16,14.8-16c8.4,0,14.6,6.3,14.6,16 C758.9,111.7,752.9,118,744.3,118 M715.7,135.3c1.5,11.5,12,20.8,27.1,20.8c21.4,0,29.2-14.1,29.2-29.3V75.2h-13.1v7.2 c-2.5-4.7-7.9-8.3-16.8-8.3c-15.7,0-26.3,12.5-26.3,27.7c0,16,11.1,27.7,26.3,27.7c8.3,0,14-3.9,16.5-8.3v6 c0,11.6-5.4,17.1-16.1,17.1c-7.8,0-13.3-5.3-14.3-12.3L715.7,135.3z M666.2,99.3c0-7.5,4.1-13.4,11.8-13.4 c8.5,0,11.7,5.6,11.7,12.6v33.7h13.6v-36c0-12.5-6.7-22.6-20.6-22.6c-6.3,0-13.1,2.7-16.8,9.2v-7.6h-13.2v56.9h13.6V99.3z M619.6,55.2c0,4.9,4,8.8,8.8,8.8c4.9,0,8.9-3.9,8.9-8.8c0-4.9-4-8.9-8.9-8.9C623.6,46.3,619.6,50.3,619.6,55.2 M635.1,75.2h-13.4 v56.9h13.4V75.2z M597.1,57.8h-12.3v8.5c0,5-2.7,8.9-8.8,8.9h-2.9v12h10.5v28.6c0,10.6,6.5,16.9,17.1,16.9c4.9,0,7.5-0.9,8.3-1.3 v-11.2c-0.6,0.1-2.8,0.5-4.7,0.5c-5,0-7.2-2.1-7.2-7.1V87.2h11.8v-12h-11.8V57.8z M539.2,73.4c-16.9,0-29.5,12.7-29.5,30.2 c0,17.5,12.5,30.3,29.5,30.3c17.1,0,29.6-12.7,29.6-30.3C568.8,86.2,556.3,73.4,539.2,73.4 M539.2,121.7c-8.3,0-15.9-6.3-15.9-18.1 s7.6-17.9,15.9-17.9c8.4,0,15.9,6.1,15.9,17.9C555.1,115.5,547.6,121.7,539.2,121.7 M476.3,113.8L459,58h-15.2l25,74.1h14.3 l47.4-117.9h-14.8L476.3,113.8z"></path> <path class="st0" d="M276.3,55.1c0,4.9,4,8.8,8.8,8.8c4.9,0,8.9-3.9,8.9-8.8c0-4.9-4-8.9-8.9-8.9C280.3,46.2,276.3,50.2,276.3,55.1 M291.9,75.1h-13.5v57h13.5V75.1z M262.4,59c2.6,0,4.1,0.4,4.9,0.6V48c-0.9-0.5-3.7-1.2-7.1-1.2c-11.7,0-19.9,7.7-19.9,20.5v7.8 h-9.9v11.8h9.9v45.2H254V86.9h13.2V75.1H254v-7.5C254,60.6,258.8,59,262.4,59"></path> </g> </svg> 