<?xml version="1.0" encoding="UTF-8"?> <svg xmlns="http://www.w3.org/2000/svg" xmlns:xlink="http://www.w3.org/1999/xlink" version="1.1" id="Layer_1" x="0px" y="0px" viewBox="0 0 200 200" style="enable-background:new 0 0 200 200;" xml:space="preserve"> <style type="text/css"> .st0{fill-rule:evenodd;clip-rule:evenodd;fill:#CB3333;} </style> <path class="st0" d="M90.1,41.6l-22-19.2l-22.5,1.9l22,19.2L90.1,41.6z M73.9,73.6l15.8-18.1H68.2L52.4,73.6H73.9z M150.4,36.6 l-22-19.2L106,19.2l22,19.2L150.4,36.6z M191.9,25.3L191.9,25.3l0-0.4l-0.4-4.7l0-0.4l0,0c-0.6-4.3-4.4-7.4-8.7-7l-16.4,1.4 l21.3,18.6C190.2,31.4,192,28.5,191.9,25.3z M5.9,40.5l0,0.4h0c0.6,4.3,4.4,7.4,8.7,7l15.1-1.3L9,28.5c-2.2,1.5-3.6,4.1-3.5,6.9l0,0 l0,0.4L5.9,40.5z M110.2,73.6h21.6l15.8-18.1H126L110.2,73.6z M32,55.5H13.6c-4.5,0-8.1,3.6-8.1,8.1v10h10.7L32,55.5z M5.4,178.1 c0,4.5,3.6,8.1,8.1,8.1h170.3c4.5,0,8.1-3.7,8.1-8.1V80.5H5.4V178.1z M36,110.8h125.4c1.8,0,3.3,1.5,3.3,3.3c0,1.8-1.5,3.2-3.3,3.2 H36c-1.8,0-3.3-1.5-3.3-3.2C32.7,112.3,34.2,110.8,36,110.8z M36,130.9h125.4c1.8,0,3.3,1.5,3.3,3.3c0,1.8-1.5,3.3-3.3,3.3H36 c-1.8,0-3.3-1.5-3.3-3.3C32.7,132.4,34.2,130.9,36,130.9z M36,151h125.4c1.8,0,3.3,1.5,3.3,3.3c0,1.8-1.5,3.2-3.3,3.2H36 c-1.8,0-3.3-1.5-3.3-3.2C32.7,152.5,34.2,151,36,151z M183.9,55.5L183.9,55.5l-15.9,18.1H192v-10C192,59.1,188.4,55.5,183.9,55.5z"></path> </svg> 